<svg version="1.1" id="svg1" xml:space="preserve" inkscape:version="1.3.2 (091e20e, 2023-11-25, custom)" sodipodi:docname="image2.svg" xmlns:inkscape="http://www.inkscape.org/namespaces/inkscape" xmlns:sodipodi="http://sodipodi.sourceforge.net/DTD/sodipodi-0.dtd" xmlns:xlink="http://www.w3.org/1999/xlink" xmlns="http://www.w3.org/2000/svg" xmlns:svg="http://www.w3.org/2000/svg" viewBox="32.98 76.13 143.17 151.67"><sodipodi:namedview id="namedview1" pagecolor="#505050" bordercolor="#ffffff" borderopacity="1" inkscape:showpageshadow="0" inkscape:pageopacity="0" inkscape:pagecheckerboard="1" inkscape:deskcolor="#505050" inkscape:document-units="mm" inkscape:zoom="0.36569515" inkscape:cx="535.96555" inkscape:cy="1237.3694" inkscape:window-width="1920" inkscape:window-height="1017" inkscape:window-x="1912" inkscape:window-y="-8" inkscape:window-maximized="1" inkscape:current-layer="g286"/><defs id="defs1"/><g inkscape:label="Layer 1" inkscape:groupmode="layer" id="layer1"><g transform="matrix(0.03527778,0,0,-0.03527778,25.533643,323.12501)" fill="#000000" stroke="none" id="g286" style="--darkreader-inline-fill: #000000; --darkreader-inline-stroke: none;" data-darkreader-inline-fill="" data-darkreader-inline-stroke=""><path id="path1" d="m 2420.0006,7000.6205 c -17.75,-1.875 -32.9951,-8.625 -49.9951,-20.625 -22,-14.9952 -38.002,-19 -67.002,-15 -46.9952,7 -69.0135,-6.9969 -144.0087,-91.9921 -144.9952,-166.9952 -167.9961,-208.0174 -195.9961,-358.0078 -8,-42 -17.001,-50.9991 -71.001,-63.9991 -76.9952,-19.9952 -183.9961,-63.0047 -225.9961,-89.9999 -88.9952,-58 -158.9961,-146.9991 -180.9961,-228.9991 -22.9952,-82.9952 -41.0174,-113.9951 -83.0126,-139.9951 -147.9952,-91.9952 -351.9873,-332.0028 -351.9873,-412.998 0,-14 -14,-45.0028 -30,-67.998 -65.99808,-89.9952 -103.00101,-276.0048 -82.00197,-405 7.99952,-51 5.99123,-72.0049 -13.00781,-145.0049 -52.9976,-194.9904 -59,-246.0104 -60,-465.996 0,-189.9952 2.99803,-223.0048 26.99707,-345 34.99808,-169.9904 54.00729,-236.0155 81.00585,-271.0107 22.99904,-32 118.00966,-91.9932 160.00486,-102.9932 15,-3 52.002,-18.0068 82.002,-32.0068 65.9952,-32 79.9882,-62.998 77.9882,-177.9932 -2,-68.9952 1.0136,-82.9971 24.0088,-116.9971 23,-34.9952 24.999,-46.0096 18.999,-100.0048 -14.9952,-149.9952 82.998,-337.9989 207.9932,-398.9941 24,-11 62.0028,-24.0118 82.998,-27.0118 23,-4 64.0048,-24.9902 105,-54.9902 36,-27 88.0049,-55.0068 115.0049,-62.0068 94.9952,-26 139.0059,-35.9971 186.0059,-41.9971 19.8022,-2.2854 33.292,-6.4602 39.7998,-10.9131 0.3916,0.098 0.8273,0.1529 1.333,0.1465 2.1783,-0.028 4.3427,0.1054 6.5185,0.1904 2.1516,0.085 4.3074,0.1484 6.46,0.2051 1.6787,0.096 3.3128,-0.13 4.8926,-0.6885 1.1162,-0.5395 2.2073,-1.0977 3.3105,-1.6406 7.4813,-0.322 14.9683,-0.628 22.4414,-1.1133 2.4329,-0.1626 4.8627,-0.3684 7.2949,-0.542 2.3231,0.1275 4.6386,0.1806 6.958,0.3955 1.6473,0.1871 3.3104,0.2949 4.9659,0.3516 1.8107,0.057 3.6232,0.075 5.4345,0.088 2.2011,0.065 4.3888,-0.037 6.5772,-0.2637 2.4296,-0.2863 4.8543,-0.5623 7.2949,-0.7324 2.7581,-0.1701 5.5126,-0.2363 8.2764,-0.293 2.5409,-0.1048 5.092,-0.2381 7.6318,-0.3515 2.4401,-0.057 4.8718,-0.121 7.3096,-0.2344 2.6124,-0.1474 5.2352,-0.2363 7.8515,-0.293 0.8494,-0.028 1.7011,-0.015 2.5489,-0.015 0.2292,0.012 0.4593,0.018 0.6884,0.029 3.1618,0.1984 6.3259,0.3105 9.4922,0.3955 0.1612,0 0.3222,0.011 0.4834,0.015 0.4596,0.033 0.9168,0.059 1.377,0.088 2.3799,0.1361 4.7546,0.4263 7.1045,0.8203 1.6035,0.2268 3.1662,0.6305 4.7168,1.084 1.7285,0.5783 3.5112,0.948 5.3027,1.2598 2.2805,0.3883 4.592,0.5018 6.8994,0.6152 2.1903,0.1134 4.386,0.048 6.5772,0.1612 1.7824,0.102 3.5547,0.24 5.332,0.4101 2.1214,0.1304 4.2428,0.3445 6.3574,0.5713 1.548,0.1531 3.102,0.2509 4.6582,0.3076 1.4199,0.034 2.8279,0.034 4.2481,0.044 0.5053,0 0.9408,-0.062 1.333,-0.1612 3.6614,3.4628 10.1811,6.0645 19.5263,6.0645 6.065,0 11.837,-1.0479 17.0069,-2.3877 0.9085,0.9961 2.222,1.6264 3.8525,1.6553 1.925,0.034 4.2588,-0.7436 6.7822,-2.6661 2.5781,-1.9597 5.3594,-3.6571 8.3496,-4.9072 2.7786,-1.1282 5.7286,-1.6057 8.6866,-1.9629 3.2621,-0.3373 6.5387,-0.4267 9.8144,-0.4834 4.6434,-0.067 9.2867,-0.077 13.9307,-0.088 5.0848,-0.01 10.1786,-0.013 15.2637,-0.015 3.9696,-0.2041 7.8815,0.3011 11.8066,0.8057 3.3824,0.5328 6.78,1.066 10.1514,1.6992 11.4943,11.4636 102.6137,56.218 160.3564,78.3545 55.9952,21.9952 86.9932,42.9979 147.9932,102.9931 116.9904,112.9952 170.0048,173.0077 190.0048,213.0029 11,22 48.0059,66.9942 81.0059,98.9942 71.9952,68.9952 90.9961,106.0088 90.9961,174.0088 0,59.9952 25.0029,127.9931 48.0029,132.9931 10,2 36.9961,5.0059 60.9961,6.0059 10.75,0.75 18.8164,1.3047 24.7851,1.289 17.9063,-0.047 16.9629,-5.2939 13.2129,-26.2939 -3,-15 -16.9922,-65.9981 -31.9922,-112.9981 -40.9952,-130.9904 -75,-260.9951 -75,-289.9951 0,-13.9952 8.9913,-59.0096 20.9913,-100.0048 38.9569,-138.6263 61.1973,-226.5331 65.5517,-256.875 0.5771,0.026 1.1672,0.032 1.7871,0.015 8.3798,-0.2324 16.738,0.4429 25.0928,0.9815 5.4568,0.2772 10.9102,0.6307 16.3623,0.9961 -42.1072,148.5629 -89.7949,337.04 -89.7949,360.8789 0,61.9952 129.999,479.996 153.999,495.996 7,5 4.0088,8.0127 -5.9912,8.0127 -35,0 -17.0049,102.9989 19.9951,113.9941 29,9 53.9961,-2.998 45.9961,-22.998 -4,-9 -14.995,-49.9961 -24.9902,-90.9961 -10,-40.9952 -33.9981,-120.0049 -52.9981,-175.0049 -19,-54.9952 -49.0106,-151.0029 -66.0058,-213.0029 l -33.003,-113.9941 56.9971,-202.0019 c 22.2998,-79.8473 31.2651,-119.1472 40.2832,-157.544 6.4177,0.5988 12.8366,1.2499 19.248,1.9336 1.8569,0.2047 3.6981,0.509 5.5518,0.7324 5.3021,4.7813 11.6015,8.215 18.4717,10.5469 -9.1527,25.8173 -20.0644,58.9947 -32.5488,103.3301 -20,71.9952 -40.0048,140.9951 -45,154.9951 -23,60.9952 -20.9992,93.0136 15.996,219.0088 83,289.9856 102.0146,331.9902 155.0098,354.9902 93.9952,41.9952 122.996,86.0153 200.9912,311.0009 11,33 25,64.9971 30,71.9971 5,6 20.9951,73.0048 34.9951,150 24,122.9952 27.0078,165.0125 28.0078,393.0029 2,202.9904 6.0038,267 18.999,315 9,32.9952 19.002,87 22.002,120 8,82.9952 -19.002,235.0106 -52.002,291.0058 -18.9952,32 -25.0058,53.9922 -21.0058,76.9922 2,17 0.01,45.0068 -5.9912,62.0068 -13,37 -144.0059,238.0087 -186.0059,284.0039 -29.9952,34 -45.9941,69.996 -53.9941,125.9912 -9,53 -82.0028,215.0098 -97.998,215.0098 -5,0 -9.0088,5.9931 -9.0088,12.9931 -1,19 -118.997,131.0059 -181.9922,171.0059 l -56.9971,35.9912 0.9961,102.0117 c 1,101.9952 -12.999,168.9979 -48.999,237.9931 -7,14 -13.0078,30.0059 -13.0078,36.0059 0,31 -51.996,123.9902 -80.9912,144.9902 -17,13 -54.9981,47.0108 -82.9981,76.0108 -33.9952,33.9952 -63.0057,53.9931 -86.0009,57.9931 -19,4 -51.0165,20.9981 -72.0117,37.9981 -33,25.9952 -44.9903,30.0039 -99.9903,29.0039 -34.9952,-1 -81.0078,4.0049 -103.0078,10.0049 -27,7.4952 -47.2451,10.4882 -64.9951,8.6132 z m 5.2441,-30.9961 c 14.25,-0.375 29.253,-6.6181 36.753,-18.6181 9,-15 16,-17.0049 30,-10.0049 12,6 25.0019,6.0039 37.0019,-0.9961 14,-7 27.0039,-7.0039 44.0039,0.9961 34,15 106.9922,-5 106.9922,-30 0,-22 37.9971,-39.999 71.9971,-33.999 19,4 30.0068,-2.0088 47.0068,-24.0088 52,-66.9952 77.0029,-92.9883 93.0029,-92.9883 25,0 48.003,-28 48.003,-60 0,-16 7,-29.999 15,-33.999 7.9952,-3 15,-17.0068 15,-32.0068 0,-14 8.9951,-37.0059 19.9951,-51.0059 11,-14 19.9951,-35.999 19.9951,-48.999 0,-12 8.0068,-35.9873 17.0068,-51.9873 15,-26 14.999,-34.0049 3.999,-55.0049 -9.9952,-18 -10.0068,-30 -2.0068,-45 15,-28 14.0117,-53.9971 -2.9883,-86.9971 -8,-14.9952 -12.0088,-33.0009 -9.0088,-41.0009 2,-7 37.0009,-32.0049 75.9961,-55.0049 149.9952,-88.9952 264.0038,-249.0048 288.999,-405 9,-58.9952 16.0069,-74.0028 62.0069,-127.998 58.9952,-69 160.997,-221.9981 176.997,-262.9981 6,-14.9952 7.999,-47.0009 3.999,-71.0009 -5.9952,-37 -2.997,-46.9981 18.003,-67.9981 55.9952,-54.9952 69.0001,-280.0038 25.0049,-423.999 -23,-74.9952 -25.0108,-92.0096 -16.0108,-145.0048 15,-92.9952 4.0127,-371.0086 -21.9873,-513.999 -23,-128.9952 -118.001,-402.0126 -161.001,-463.0078 -18.9952,-26 -125.0047,-85.9961 -134.9999,-75.9961 -2,2 1.998,20.001 7.998,41.001 8,26.9952 18.0028,37.997 37.998,41.997 31,7 61.9932,57.0048 102.9932,165 14,36 28.0068,72.9981 32.0068,82.9981 4,9 3.0039,17.0068 -0.9961,17.0068 -9.9952,0 -28.999,-40.0126 -63.999,-133.0078 -13,-32 -25.0117,-55.998 -27.0117,-52.998 -2,2 3.001,41.0057 11.001,86.0009 17,86.9952 20.0088,138.002 9.0088,127.002 -4,-4 -18.003,-65.0048 -33.003,-135 -19.9952,-99.9952 -29.0048,-126.0029 -40.0048,-123.0029 -8,2 -31.9942,6.0088 -53.9942,9.0088 -31.9952,3.9952 -42.0068,-0.01 -62.0068,-21.0059 -13,-15 -23.9941,-30.9912 -23.9941,-35.9912 0,-11 -39.0069,-26.0029 -47.0069,-18.0029 -3,3 9.001,74.995 26.001,159.9902 49.9952,248.9856 165.0117,948.0135 177.0117,1074.0087 6,68.9952 5.9941,73.0067 -21.0059,97.0019 -14.9952,14 -30.9951,26.001 -34.9951,26.001 -4,0 -5.0068,48.9931 -2.0068,107.9883 4,95.9952 -6.0049,203.001 -25.0049,266.001 -4,14.9952 -6.994,16.0097 -13.9892,5.0097 -6,-10 -9.0088,-6.999 -9.0088,11.001 0,14 -15.996,41.9951 -35.9912,64.9951 -76,84.9952 -84.0088,95 -84.0088,105 0,5 4.0088,10.0049 9.0088,10.0049 16.9952,0 145.0057,-149.0126 191.0009,-223.0078 25,-40 61.996,-88.999 80.9912,-108.999 47,-48 60.002,-100.0009 52.002,-210.9961 -7,-95.9952 -19.9942,-120.0088 -53.9942,-99.0088 -22.9952,15 -25.0029,5.001 -3.0029,-18.999 9,-10 19.002,-39.0038 22.002,-63.999 2,-25 9,-48.002 15,-52.002 6,-4 7.9951,10.0049 4.9951,40.0049 -4,34 -1.9981,44.001 7.0019,41.001 20,-8 48.0059,122.0039 36.0059,164.0039 -6,18 -8.0098,38.9922 -5.0098,46.9922 6,14.9952 55.0049,35.0097 85.0049,35.0097 25,0 24.0049,13.001 -4.9951,41.001 -14,14 -32.001,43.9873 -41.001,66.9873 -16,38 -16.0107,43.0117 -1.0107,57.0117 9,9 16.0107,19.9989 16.0107,23.9941 0,4 -24.0127,46.003 -53.0127,93.003 -186.9904,296.9856 -398.0162,464.0134 -776.997,614.0038 -100.9952,40 -339.9989,83.9942 -458.9941,83.9942 -436.9808,0 -845.0192,-183.0173 -1075.0048,-483.0029 -53,-70 -67.9961,-107.9922 -45.9961,-121.9922 6,-4 2.998,-16.0155 -7.002,-31.0107 -14,-22 -13.9874,-26.9991 -1.9922,-33.9991 11,-7 10.9961,-12.0019 0.9961,-22.0019 -9,-9 -11.997,-9 -11.997,0 0,7 -4.0049,12.0117 -10.0049,12.0117 -5,0 -10.0049,-7 -10.0049,-15 0,-8 -7,-15 -15,-15 -22,0 -40.9941,-40.0059 -23.9941,-51.0059 8,-5 19.0096,-8.9941 25.0048,-8.9941 6,0 22.9921,-9.0098 36.9873,-20.0098 26,-19.9952 26.0059,-19.9913 36.0059,-0.9961 6,11 11.001,27.002 11.001,37.002 0,25 39.0087,71.997 149.0039,181.9922 134.9904,134.9904 243.993,223.0078 257.9882,208.0078 3,-2 -1.9863,-15.0126 -10.9863,-28.0078 -9,-12 -16.0107,-19 -16.0107,-15 0,4 -8.9999,3.0117 -19.9951,-2.9883 -11,-6 -19.9952,-15.0059 -19.9952,-21.0059 0,-13 -46.0039,-59.0039 -59.0039,-59.0039 -14.9952,0 -34,-50.995 -60,-159.9902 -12.9952,-52 -25.0078,-103.0067 -28.0078,-112.0019 -2,-11 1.0088,-18.003 9.0088,-18.003 9,0 14,13.002 15,37.002 1,39.9952 69.9999,182.9951 109.9951,229.9951 14,15 28.9991,39.0019 33.9991,52.0019 7.9952,19 12.0135,21.001 24.0087,11.001 12,-10 15,-10.0039 15,0.9961 0,21 72.9883,99.0088 92.9883,99.0088 9,0 24.0077,10.9902 33.0029,24.9902 9,14 25.0098,25.0049 35.0098,25.0049 12,0 15.9932,5 12.9932,15 -4,9 -0.01,15 8.9941,15 11,0 13.0088,-7.002 9.0088,-22.002 -5,-19.9952 -3.999,-21.0048 11.001,-10.0048 9,7.9952 19.0019,22.0068 22.0019,32.0068 5,17 53.001,35.0068 86.001,32.0068 9,-1 24.999,7.9883 33.999,17.9883 20,22 54.9971,26.0088 71.9971,9.0088 9,-9 19.9979,-5.006 42.9931,13.9892 24,21 37.003,25.0098 63.003,20.0098 18,-3 34.0058,-7.0088 36.0058,-9.0088 2,-2 12.002,3.0165 22.002,12.0117 15,14 25,14.9865 60,5.9913 29.9952,-8 46.9892,-6.9992 58.9892,0.996 14,8 28.0108,6.002 61.0108,-7.998 30.9952,-15 43.9922,-15.9972 46.9922,-7.002 4.9952,17 22.0029,15.0127 63.0029,-6.9873 26,-13.9952 47.9922,-18.0039 76.9922,-14.0039 33.9952,5 42.0019,1.9932 52.0019,-17.0068 10,-18 17.0039,-20.9961 44.0039,-15.9961 26,5 37.001,1.001 56.001,-18.999 19,-20 30.0106,-23.9951 51.0058,-19.9951 22,5 33.9883,-1.0108 62.9883,-31.0108 22,-22.9952 41.0059,-33.9961 51.0059,-30.9961 21,8 45,-1.999 45,-18.999 0,-8 5.0049,-14.0039 10.0049,-14.0039 6,0 9.9902,-5.994 9.9902,-13.9892 0,-9 12.0068,-16.003 32.0068,-18.003 23,-2 36.003,-11.0068 48.003,-32.0068 15.9952,-30 39.9902,-45.9971 39.9902,-26.9971 0,27 22.0049,7.0049 40.0049,-34.9951 12,-28 28.0096,-48.0058 40.0048,-51.0058 21,-6 49.9952,-50.0009 49.9952,-75.9961 0,-8 6.9969,-14.0078 16.9921,-13.0078 10,1 19.0049,-10.0009 25.0049,-30.9961 5,-19 14.9981,-33.003 22.9981,-33.003 9,0 15,-9.9902 15,-24.9902 0,-14 5.0049,-25.0049 10.0049,-25.0049 5.9952,0 10.0048,-9.998 10.0048,-22.998 0,-13 3.9942,-27.003 8.9942,-33.003 13,-13.9952 21.0009,-72.999 11.0009,-78.999 -14.9952,-9 -12.0009,-24.999 3.9991,-18.999 18,7 26.9941,-72.9971 8.9941,-86.9971 -9,-8 -9,-15.0039 0,-29.0039 9,-15.9952 7.0029,-23.0039 -11.9971,-44.0039 -12.9952,-14 -27.9921,-22.9951 -31.9921,-19.9951 -5,3 -9.0088,0 -9.0088,-4.9951 0,-15 12.0019,-14.001 37.0019,3.999 19,14 21.001,12.9933 26.001,-22.0019 6,-35 -4.9981,-105.0126 -22.9981,-148.0078 -21.9952,-51 -31.997,-99.9903 -26.997,-129.9903 3,-17.9952 -0.01,-38.0039 -6.0059,-44.0039 -7,-7 -6.997,-22.0058 3.003,-51.0058 9.9952,-30 9.9921,-46.0077 1.9921,-63.0029 -12.9952,-27 -25.998,-78.9961 -22.998,-90.9961 1,-5 -1.9912,-12 -5.9912,-15 -15,-10 -74.9981,-90.9961 -67.9981,-90.9961 22,0 84.9903,49.0106 84.9903,66.0058 0,11 29.0097,27.9873 35.0097,21.9873 4,-3 -60.0127,-374.9892 -68.0127,-403.9892 -3,-10 -7.997,-37.0039 -11.997,-59.0039 -3,-22 -7.9971,-49 -11.9971,-60 -3,-11 -15.9971,-76.0049 -26.9971,-145.0049 -20.9952,-124.9904 -20.9951,-124.998 -49.9951,-127.998 -44.9952,-5 -76.0088,6.0088 -69.0088,24.0088 10,27 -20.0019,10.9902 -37.0019,-20.0098 -24,-41.9952 -3.9924,-47.9962 127.998,-41.001 l 112.002,6.0059 v -34.9951 c 0,-35 0,-35.0098 -41.9971,-35.0098 -24,0 -69.001,-1.0029 -101.001,-3.0029 l -57.9931,-3.999 -22.9981,-67.002 c -16,-46.9952 -22.0029,-82.9902 -18.0029,-114.9902 4,-44 0.998,-52.0088 -37.002,-99.0088 -22.9952,-29 -59.0058,-63 -81.0058,-75 -30,-17 -39.9902,-28.9883 -39.9902,-47.9883 0,-34.9952 -35.0097,-88.0029 -70.0049,-108.0029 -16,-9 -37.0069,-30.999 -47.0069,-48.999 -8.9952,-17 -28.0009,-37.0039 -41.0009,-44.0039 -13,-8 -31.9932,-26.001 -42.9932,-41.001 -19,-27 -115.0029,-87.9931 -138.0029,-87.9931 -7,0 -46.001,-16.0059 -86.001,-36.0059 -64.9952,-32 -79.0067,-34.9971 -112.0019,-26.9971 -27,6 -52.001,4.9903 -86.001,-5.0097 -42,-12 -56.994,-11.9932 -118.9892,2.0068 -39,9 -87.9991,15.9961 -108.9991,15.9961 -20.9952,0 -62.0107,8.999 -91.0107,18.999 -29,10 -63.9883,22.0049 -77.9883,25.0049 -27.9952,6 -116.0029,69.9989 -138.0029,98.9941 -10,13 -21.9961,16.0118 -45.9961,12.0118 -42.9952,-8 -145,45.9951 -180,94.9951 -65.9952,92.9952 -102.0068,196.9969 -92.0068,271.9921 12,86 10.0019,98.003 -22.9981,138.003 -35.9952,44.9952 -38.997,75 -11.997,90 19,9.9952 18.999,12.0029 3.999,48.0029 -9,20 -19.0067,62.0068 -22.0019,92.0068 -5,45 -10.001,54.9932 -26.001,57.9932 -20,3 -64.0048,20.0096 -180,70.0048 -70.9952,31 -121.00439,74.0058 -134.00391,116.001 -5,17 -18.99657,76.001 -30.99609,131.001 -10.99952,54.9952 -26.9956,128.0018 -34.99512,161.997 -9.99952,42 -15,117.0009 -15,240.9961 0,158.9952 2.9907,196.0029 28.98926,322.9981 15.99904,78.9952 37,163.998 45,187.998 12.99904,35 14.00147,56 7.00195,105 -18.99904,114.9952 -18.00295,131.0155 0.99609,211.0107 26.00002,107.9952 48.01172,174.9902 57.01172,174.9902 23,0 50.9912,44.0059 50.9912,81.0059 0,50.9952 18.0155,86.001 91.0107,176.001 72,87.9952 159.9951,167.0047 249.9903,224.9999 52.9952,34 68.0087,47.9981 69.0087,67.9981 2,79.9952 56.9942,187.0018 128.9942,251.997 64.9952,58 134.0077,91.9991 258.0029,123.9991 109.9952,28.9952 106.9979,26.0135 117.9931,114.0087 10,71 24.0098,122.9903 35.0098,129.9903 8,5 17.9942,23.0057 23.9942,41.0009 5.9952,20 24.9931,42.0088 42.9931,54.0088 20,12 32.0029,27.9971 33.0029,41.9971 0,29 26.001,52.998 56.001,52.998 19,0 24.0088,5.0049 24.0088,25.0049 0,14 9.9912,34.9961 20.9912,45.9961 18,18 29.0126,20.9961 73.0078,15.9961 55,-7 68.999,-1.999 78.999,26.001 4.5,11.5 17.996,17.0009 32.2412,16.6259 z m -166.1279,-873.1347 c 5.375,0 12.378,-0.4941 19.878,-1.4941 13.9952,-2 64.0106,-6.9902 111.0058,-9.9902 211.9904,-15 477.0154,-107.0175 666.0058,-233.0127 31,-20 63.9932,-40.9922 72.9932,-46.9922 9,-5 18.0058,-12.9961 21.0058,-15.9961 3,-3 15.9893,-12.0059 28.9893,-21.0059 77.9952,-53.9952 242.0039,-239.0028 299.0039,-337.998 14,-25 32.0049,-53.0068 40.0049,-62.0068 12,-14 11.0019,-18.9981 -7.9981,-37.9981 -19,-18.9952 -24.0078,-20.0019 -43.0078,-7.0019 -12,8 -40.999,45.0127 -63.999,83.0127 -24,37.9952 -55.0049,83.994 -70.0049,103.9892 -35,46 -177.994,188.0087 -223.9892,224.0039 -124.9952,94.9952 -164.0136,120.9971 -249.0088,161.9971 -191.9904,93.9952 -347.0057,134.0058 -555.9961,141.0058 -223.9856,9 -412.0106,-26.0018 -561.0058,-101.997 -37,-19 -73.9951,-35.0098 -79.9951,-35.0098 -7,0 -12.9932,-3.9902 -12.9932,-9.9902 0,-11 15.997,-6.0088 76.9922,20.9912 24,10 47.002,18.999 52.002,18.999 5,0 10.9931,3.9981 12.9931,7.9981 9,22.9952 297.0107,84.0058 381.0059,81.0058 l 32.0068,-0.9961 -35.0098,-7.998 c -18.9952,-4 -73,-12.9991 -120,-18.9991 -110.9904,-13.9952 -298.0047,-75.0117 -359.9999,-117.0117 -19,-13 -39.9961,-23.9941 -45.9961,-23.9941 -6,0 -16.9942,-6.0039 -23.9942,-14.0039 -6,-8 -17.0135,-12.9902 -24.0087,-9.9902 -7,2.9952 -19.001,-2.0049 -26.001,-10.0049 -7,-9 -17.002,-13.0049 -22.002,-10.0049 -11,7 -82.9902,-38.9932 -114.9902,-72.9932 -12,-12 -27.0029,-22.998 -33.0029,-22.998 -14,0 -78.001,-69.0116 -86.001,-92.0068 -3,-10 -7.9971,-16.004 -11.9971,-14.004 -4,2 -13.0097,-1.9902 -20.0097,-9.9902 -7,-8 -10.9981,-14.0039 -7.9981,-14.0039 3,0 -5.9951,-11.0049 -19.9951,-25.0049 -29,-28.9952 -45.999,-30.9902 -63.999,-9.9902 -37,43.9952 197.0096,272.996 390,380.9912 161.9904,90.9952 401.0056,158.0078 585.996,163.0078 43,1 79.9981,3.9912 82.9981,5.9912 1,1 4.747,1.4941 10.122,1.4941 z m -54.1113,-77.4902 114.9902,-3.999 c 63,-1 151.0048,-9.9951 195,-19.9951 157.9952,-33 325.0126,-99.0165 448.0078,-177.0117 66.9952,-43 49.9902,-47.9873 -20.0098,-6.9873 -99.9952,58.9952 -277.998,138.999 -307.998,138.999 -9,0 -24.9951,3.9902 -34.9951,9.9902 -29,16 -166.0048,40.0098 -285,50.0098 z m 1324.995,-749.9999 c 6,-3 11.001,-7.9971 11.001,-11.9971 -1,-12 -14.999,-9.001 -18.999,3.999 -3,6 0.998,9.9933 7.998,7.9981 z m -10.0048,-33.9991 c 5.9952,-3 10.0048,-13.0058 10.0048,-21.0058 0,-8 -4.0096,-11.9942 -10.0048,-8.9942 -5,3 -9.9903,13.0059 -9.9903,21.0059 0,8 4.9903,11.9941 9.9903,8.9941 z m -173.9942,-304.9951 c 3,0 2.0039,-31.0096 -0.9961,-70.0048 -3,-38 -10,-80.9952 -15,-94.9952 -5,-13.9952 -9.0088,-29.0029 -9.0088,-33.0029 1,-4 1,-17.0039 0,-29.0039 -1,-27 -19.9951,-30.9951 -19.9951,-4.9951 0,9 -1.0029,30.9922 -3.0029,46.9922 -3,48.9952 32.0029,185.0097 48.0029,185.0097 z m -55.2539,-370.1367 c 5,0.875 9.2578,-1.8623 9.2578,-8.8623 0,-5 -3.0058,-17.0057 -6.0058,-26.0009 -5,-12 -9.0039,-13.9991 -14.0039,-3.9991 -5,7 -6.003,17.9864 -3.003,25.9864 3,7.5 8.7549,12.0009 13.7549,12.8759 z M 464.43432,3006.6218 c -100.57565,-5.7506 -164.74758,-139.9413 -94.43847,-219.624 12.2399,-13.6807 19.43994,-24.0322 23.84766,-31.4942 0.26064,-0.1324 0.51033,-0.2276 0.77636,-0.3808 0.56403,-0.3247 1.04913,-0.7639 1.59668,-1.1133 2.19876,-0.2371 4.38718,-0.5473 6.5625,-0.9668 3.24782,-0.5273 6.37583,-1.5298 9.44824,-2.6807 2.97958,-1.1945 5.96588,-2.3898 9.00879,-3.4131 1.55424,-0.3912 3.05113,-0.957 4.54102,-1.5381 0.80775,-0.3148 1.52732,-0.6774 2.18261,-1.0546 3.13103,0.1398 6.26787,0.3049 9.375,0.7177 3.20063,0.3884 6.40727,0.4754 9.62403,0.6739 2.9364,0.2948 5.83951,0.7806 8.77441,1.0839 2.94375,0.1474 5.89494,0.3654 8.80371,0.8643 3.48962,0.5726 6.97184,1.1218 10.50293,1.377 3.70723,0.2551 7.4215,0.197 11.13281,0.3955 2.97057,0.1672 5.94104,0.4008 8.86231,0.9961 2.72111,0.496 5.47732,0.8119 8.17382,1.4355 2.73047,0.4876 5.50209,0.6896 8.18848,1.4209 3.11955,0.822 6.2402,1.671 9.36035,2.4902 3.75525,0.7626 7.54295,1.2836 11.30859,1.9922 3.04458,0.4564 6.06615,1.0161 9.06739,1.6992 2.89521,0.7937 5.76397,1.773 8.75976,2.1387 2.23262,0.4365 4.389,1.1408 6.5918,1.6992 0.0834,0.028 0.16565,0.06 0.24902,0.088 0.508,0.5675 1.08251,1.1296 1.75781,1.6846 0.49181,0.4053 0.98775,0.8105 1.47949,1.2158 2.35559,1.7022 4.66768,3.4399 6.76758,5.4639 3.02211,2.5966 6.24531,4.9924 9.72656,6.9433 2.5038,4.2315 4.25049,8.0477 8.54004,13.2569 35.99856,42.9952 34.99125,112.0057 -2.00683,161.0009 -31.99856,41 -42.00092,47.0127 -97.99804,53.0127 -6.99996,0.8125 -13.8615,0.9986 -20.56641,0.6153 z m 6.76758,-37.1778 c 17.04592,0.8125 35.04392,-2.4443 52.79296,-10.4443 32.99856,-15 59.00538,-71.0038 51.00586,-108.999 -4,-16 -20.00291,-41.0049 -37.00195,-55.0049 -40.99808,-35 -88.00727,-32.9962 -130.00487,3.999 -27.99904,25 -32.99219,36.0165 -31.99219,72.0117 1.5,57 44.06197,96 95.20019,98.4375 z m 1760.5516,-225.6445 c -0.1708,-0.01 -0.342,-0.01 -0.5126,-0.015 0.1757,-0.01 0.3516,-0.01 0.5273,-0.015 0,0.01 -0.012,0.019 -0.015,0.029 z m 1171.8457,-39.7119 c -0.01,-0.8077 0.015,-0.8385 0.073,0 z m 2.3584,-0.2344 c -0.069,-0.4452 0.2385,-1.1849 0.029,-1.5234 2.8592,-0.062 13.3027,-0.014 16.2744,-0.073 -5.4456,0.4305 -10.8736,1.0031 -16.3037,1.5967 z m -795.791,-0.5127 c -0.015,0 -0.029,-0.011 -0.044,-0.015 0.06,-0.01 0.1008,-0.024 0.1611,-0.029 -0.035,0.022 -0.081,0.023 -0.1172,0.044 z"/><path d="m 2415,6879 c -8,-25 2,-39 11,-15 6,16 8,16 24,1 15,-14 21,-14 38,-4 18,11 23,10 42,-12 l 21,-24 15,23 c 20,27 44,29 44,2 0,-11 5,-20 11,-20 6,0 9,12 7,27 -4,37 -31,41 -63,9 -14,-14 -25,-19 -25,-13 0,25 -21,36 -48,26 -19,-7 -29,-6 -42,6 -22,20 -27,19 -35,-6 z" id="path2"/><path d="m 2280,6865 c 0,-8 0,-18 -1,-22 0,-4 5,-9 12,-12 8,-2 10,2 6,13 -4,9 -2,16 4,16 6,0 7,5 4,10 -9,15 -25,12 -25,-5 z" id="path3"/><path d="m 2320,6856 c 0,-7 63,-36 68,-31 13,13 -11,35 -38,35 -16,0 -30,-2 -30,-4 z" id="path4"/><path d="m 2691,6812 c 8,-13 20,-17 37,-14 20,4 24,2 19,-12 -4,-10 -1,-16 8,-16 8,0 15,-5 15,-12 0,-9 3,-9 11,-1 15,15 -19,53 -48,53 -12,0 -25,5 -28,10 -3,6 -10,10 -16,10 -5,0 -4,-8 2,-18 z" id="path5"/><path d="m 2257,6803 c -6,-10 19,-34 26,-26 8,7 -3,33 -13,33 -5,0 -11,-3 -13,-7 z" id="path6"/><path d="m 2200,6765 c 0,-14 5,-25 10,-25 6,0 10,7 10,15 0,8 5,15 10,15 6,0 10,5 10,10 0,6 -9,10 -20,10 -15,0 -20,-7 -20,-25 z" id="path7"/><path d="m 2785,6729 c -10,-14 -1,-21 19,-13 9,3 13,10 10,15 -7,12 -21,11 -29,-2 z" id="path8"/><path d="m 2153,6708 c -27,-16 -33,-26 -33,-54 0,-22 -6,-37 -15,-40 -8,-4 -15,-11 -15,-18 0,-6 -6,-23 -14,-38 -16,-31 -11,-68 10,-68 20,0 17,16 -3,25 -15,6 -14,9 11,20 18,7 24,15 17,19 -6,4 -11,15 -11,26 0,18 32,33 85,39 6,1 -5,10 -22,21 -43,26 -42,34 5,26 l 37,-6 -30,16 c -28,16 -28,17 -8,25 21,8 41,30 26,28 -4,0 -23,-10 -40,-21 z" id="path9"/><path d="m 2840,6700 c 6,-10 9,-25 8,-32 -2,-7 4,-13 12,-13 22,0 24,34 3,50 -26,20 -35,18 -23,-5 z" id="path10"/><path d="m 2241,6637 c 2,-2 18,-11 34,-21 l 30,-17 -24,20 c -13,12 -28,21 -34,21 -6,0 -8,-1 -6,-3 z" id="path11"/><path d="m 2883,6600 c -10,-26 -9,-30 9,-36 21,-6 41,6 21,13 -8,3 -11,14 -7,29 9,34 -9,30 -23,-6 z" id="path12"/><path d="m 2921,6537 c 12,-9 14,-18 7,-36 -6,-18 -4,-27 9,-37 17,-12 16,-13 -5,-14 -20,0 -22,-4 -16,-22 4,-13 14,-28 23,-35 15,-11 15,-12 -1,-18 -9,-4 -22,-4 -28,0 -8,5 -11,1 -8,-11 3,-14 11,-18 32,-16 17,2 25,-1 21,-7 -3,-6 -2,-11 4,-11 21,0 22,22 2,53 -19,31 -19,35 -4,50 15,15 15,18 1,34 -10,12 -14,29 -11,51 5,28 3,32 -18,32 -21,-1 -22,-2 -8,-13 z" id="path13"/><path d="m 2594,6532 c -12,-7 -34,-46 -34,-58 0,-3 7,-1 15,6 8,7 15,18 15,25 0,8 6,15 13,18 6,2 10,7 7,10 -3,3 -10,3 -16,-1 z" id="path14"/><path d="m 2054,6465 c -4,-8 -3,-31 0,-50 7,-33 6,-34 -31,-40 -82,-13 -211,-49 -260,-73 -71,-33 -135,-91 -167,-151 -27,-52 -45,-151 -26,-151 5,0 10,8 11,18 4,121 39,182 147,251 58,37 203,80 295,88 68,6 69,6 64,33 -7,32 20,52 60,44 17,-3 36,1 48,10 19,14 17,15 -30,12 -27,-2 -63,-8 -79,-15 -27,-11 -28,-10 -22,14 7,27 -1,35 -10,10 z" id="path15"/><path d="m 2256,6465 c 10,-8 30,-15 43,-15 20,0 21,2 11,15 -7,8 -26,15 -43,15 -29,0 -30,-1 -11,-15 z" id="path16"/><path d="m 2618,6454 c -16,-8 -28,-19 -28,-24 0,-5 16,0 35,11 51,31 45,42 -7,13 z" id="path17"/><path d="m 2416,6442 c -3,-6 3,-12 15,-15 12,-3 19,-1 16,6 -5,15 -24,20 -31,9 z" id="path18"/><path d="m 2481,6436 c -12,-14 -12,-22 -3,-37 7,-10 12,-28 12,-39 0,-23 25,-27 34,-5 4,11 13,14 31,9 15,-4 25,-2 25,5 0,15 40,14 73,-3 15,-8 27,-10 27,-5 0,5 -7,12 -15,15 -8,4 -12,10 -9,15 3,5 -13,9 -35,9 -22,0 -43,-4 -46,-10 -3,-5 -21,-9 -38,-7 -28,2 -33,6 -37,36 -5,32 -6,33 -19,17 z" id="path19"/><path d="m 2329,6423 c -32,-5 -73,-43 -46,-43 9,0 21,-8 26,-17 9,-16 10,-16 11,-1 0,9 11,25 25,36 24,19 33,34 18,31 -5,-1 -20,-4 -34,-6 z" id="path20"/><path d="m 2185,6404 c -71,-17 -94,-34 -47,-34 18,0 41,-5 52,-12 17,-11 24,-8 50,17 51,48 43,53 -55,29 z" id="path21"/><path d="m 2840,6360 c 0,-9 39,-25 46,-18 2,3 -7,10 -21,16 -14,6 -25,7 -25,2 z" id="path22"/><path d="m 2684,6314 c 3,-9 9,-28 12,-42 9,-41 26,-72 40,-72 11,0 11,5 2,25 -6,14 -9,27 -7,30 8,8 81,-16 96,-31 20,-19 35,-18 31,3 -2,10 -34,33 -73,53 -98,50 -109,54 -101,34 z" id="path23"/><path d="m 2933,6289 c 9,-36 -1,-42 -31,-19 -13,11 -32,20 -41,20 -11,-1 -8,-7 12,-21 29,-22 35,-44 15,-52 -7,-2 2,-7 21,-12 18,-4 61,-22 95,-41 33,-19 68,-37 77,-40 24,-8 153,-145 172,-182 9,-18 14,-39 11,-46 -3,-7 1,-16 8,-19 8,-3 20,-24 27,-48 21,-70 23,-75 27,-63 6,15 -40,136 -71,191 -54,91 -153,177 -267,232 -58,27 -65,37 -44,60 20,22 20,35 -1,52 -15,13 -16,11 -10,-12 z" id="path24"/><path d="m 2306,6254 c -11,-28 -6,-39 9,-20 8,11 15,23 15,28 0,14 -18,9 -24,-8 z" id="path25"/><path d="m 1965,5819 c -10,-15 3,-25 16,-12 7,7 7,13 1,17 -6,3 -14,1 -17,-5 z" id="path26"/><path d="m 1850,5770 c -8,-5 -11,-12 -7,-16 4,-4 13,-2 19,4 15,15 7,24 -12,12 z" id="path27"/><path d="m 1925,5731 c -6,-11 9,-23 19,-14 9,9 7,23 -3,23 -6,0 -12,-4 -16,-9 z" id="path28"/><path d="m 2305,5720 c 3,-5 16,-10 28,-9 21,0 21,1 2,9 -28,12 -37,12 -30,0 z" id="path29"/><path d="m 2040,5706 c 0,-2 7,-9 15,-16 12,-10 15,-10 15,4 0,9 -7,16 -15,16 -8,0 -15,-2 -15,-4 z" id="path30"/><path d="m 2170,5700 c 0,-5 7,-10 15,-10 8,0 15,5 15,10 0,6 -7,10 -15,10 -8,0 -15,-4 -15,-10 z" id="path31"/><path d="m 1916,5674 c -9,-25 -7,-36 7,-32 6,3 13,14 13,26 1,26 -11,29 -20,6 z" id="path32"/><path d="m 2310,5680 c 19,-13 30,-13 30,0 0,6 -10,10 -22,10 -19,0 -20,-2 -8,-10 z" id="path33"/><path d="m 2575,5660 c 3,-5 13,-10 21,-10 8,0 14,5 14,10 0,6 -9,10 -21,10 -11,0 -17,-4 -14,-10 z" id="path34"/><path d="m 1800,5650 c 0,-5 7,-10 15,-10 8,0 15,5 15,10 0,6 -7,10 -15,10 -8,0 -15,-4 -15,-10 z" id="path35"/><path d="m 2168,5648 c 9,-9 15,-9 24,0 9,9 7,12 -12,12 -19,0 -21,-3 -12,-12 z" id="path36"/><path d="m 2304,5645 c 21,-16 32,-13 21,4 -3,6 -14,11 -23,11 -15,-1 -15,-2 2,-15 z" id="path37"/><path d="m 1625,5639 c -10,-15 3,-25 16,-12 7,7 7,13 1,17 -6,3 -14,1 -17,-5 z" id="path38"/><path d="m 2030,5640 c 0,-13 11,-13 30,0 12,8 11,10 -7,10 -13,0 -23,-4 -23,-10 z" id="path39"/><path d="m 2440,5640 c 19,-13 30,-13 30,0 0,6 -10,10 -22,10 -19,0 -20,-2 -8,-10 z" id="path40"/><path d="m 2816,5643 c -11,-11 -6,-23 9,-23 8,0 15,4 15,9 0,13 -16,22 -24,14 z" id="path41"/><path d="m 2920,5628 c 0,-7 5,-20 10,-28 8,-12 10,-11 10,7 0,12 -4,25 -10,28 -5,3 -10,0 -10,-7 z" id="path42"/><path d="m 1800,5610 c 0,-5 7,-10 15,-10 8,0 15,5 15,10 0,6 -7,10 -15,10 -8,0 -15,-4 -15,-10 z" id="path43"/><path d="m 2050,5610 c 0,-5 -7,-10 -15,-10 -8,0 -15,-4 -15,-10 0,-5 7,-10 15,-10 8,0 15,5 15,10 0,6 7,10 16,10 8,0 12,5 9,10 -3,6 -10,10 -16,10 -5,0 -9,-4 -9,-10 z" id="path44"/><path d="m 2161,5611 c -7,-5 -9,-11 -4,-14 6,-4 19,0 29,8 15,11 16,14 4,15 -8,0 -21,-4 -29,-9 z" id="path45"/><path d="m 2560,5610 c 0,-5 9,-10 21,-10 11,0 17,5 14,10 -3,6 -13,10 -21,10 -8,0 -14,-4 -14,-10 z" id="path46"/><path d="m 2695,5610 c 3,-5 13,-10 21,-10 8,0 14,5 14,10 0,6 -9,10 -21,10 -11,0 -17,-4 -14,-10 z" id="path47"/><path d="m 1900,5600 c 0,-5 9,-10 20,-10 11,0 20,5 20,10 0,6 -9,10 -20,10 -11,0 -20,-4 -20,-10 z" id="path48"/><path d="m 2280,5600 c 8,-5 22,-10 30,-10 13,0 13,1 0,10 -8,5 -22,10 -30,10 -13,0 -13,-1 0,-10 z" id="path49"/><path d="m 1697,5593 c -12,-11 -8,-23 8,-23 8,0 15,7 15,15 0,16 -12,20 -23,8 z" id="path50"/><path d="m 2415,5590 c 3,-5 15,-10 26,-10 11,0 17,5 14,10 -3,6 -15,10 -26,10 -11,0 -17,-4 -14,-10 z" id="path51"/><path d="m 1793,5573 c -18,-6 -16,-23 1,-23 17,0 30,16 19,23 -5,2 -14,2 -20,0 z" id="path52"/><path d="m 1900,5560 c 0,-5 7,-10 15,-10 8,0 15,5 15,10 0,6 -7,10 -15,10 -8,0 -15,-4 -15,-10 z" id="path53"/><path d="m 2030,5545 c -16,-19 0,-19 26,0 16,12 16,14 3,15 -9,0 -22,-7 -29,-15 z" id="path54"/><path d="m 1590,5540 c 0,-5 6,-10 14,-10 8,0 17,-6 19,-12 4,-10 6,-10 6,-1 1,7 -8,17 -19,23 -14,7 -20,7 -20,0 z" id="path55"/><path d="m 2415,5540 c -3,-5 3,-10 14,-10 11,0 23,5 26,10 3,6 -3,10 -14,10 -11,0 -23,-4 -26,-10 z" id="path56"/><path d="m 3008,5532 c -4,-15 -1,-18 14,-14 19,5 20,23 1,29 -6,2 -13,-5 -15,-15 z" id="path57"/><path d="m 1682,5529 c 2,-6 8,-10 13,-10 5,0 11,4 13,10 2,6 -4,11 -13,11 -9,0 -15,-5 -13,-11 z" id="path58"/><path d="m 2686,5533 c -3,-3 -3,-10 0,-14 7,-12 34,-11 34,0 0,11 -26,22 -34,14 z" id="path59"/><path d="m 1785,5520 c -3,-5 3,-10 15,-10 12,0 18,5 15,10 -3,6 -10,10 -15,10 -5,0 -12,-4 -15,-10 z" id="path60"/><path d="m 2550,5520 c 0,-5 9,-10 21,-10 11,0 17,5 14,10 -3,6 -13,10 -21,10 -8,0 -14,-4 -14,-10 z" id="path61"/><path d="m 2915,5514 c -18,-13 -18,-14 8,-14 15,0 27,4 27,9 0,17 -15,19 -35,5 z" id="path62"/><path d="m 1522,5508 c -13,-13 -16,-38 -4,-38 4,0 13,9 19,20 14,22 2,35 -15,18 z" id="path63"/><path d="m 1304,5451 c -29,-36 -52,-76 -56,-98 -5,-21 -11,-52 -14,-70 -4,-18 -4,-40 0,-49 6,-15 8,-16 24,0 10,9 24,16 30,16 7,0 12,13 12,29 0,26 9,62 46,180 8,25 12,46 10,48 -2,2 -25,-23 -52,-56 z" id="path64"/><path d="m 1587,5493 c -12,-11 -8,-23 8,-23 8,0 15,7 15,15 0,16 -12,20 -23,8 z" id="path65"/><path d="m 2413,5486 c -16,-19 -4,-29 13,-11 8,7 14,16 14,19 0,10 -15,6 -27,-8 z" id="path66"/><path d="m 2800,5485 c 0,-8 7,-15 15,-15 9,0 12,6 9,15 -4,8 -10,15 -15,15 -5,0 -9,-7 -9,-15 z" id="path67"/><path d="m 3020,5483 c 0,-12 5,-25 11,-28 16,-11 17,-2 2,25 -12,24 -13,24 -13,3 z" id="path68"/><path d="m 1672,5478 c 6,-18 28,-21 28,-4 0,9 -7,16 -16,16 -9,0 -14,-5 -12,-12 z" id="path69"/><path d="m 2544,5482 c 3,-6 0,-12 -6,-15 -23,-8 -4,-14 22,-7 l 25,6 -24,13 c -13,7 -21,8 -17,3 z" id="path70"/><path d="m 1460,5465 c -10,-12 -10,-15 4,-15 9,0 16,7 16,15 0,8 -2,15 -4,15 -2,0 -9,-7 -16,-15 z" id="path71"/><path d="m 1885,5470 c -3,-5 1,-10 9,-10 8,0 18,5 21,10 3,6 -1,10 -9,10 -8,0 -18,-4 -21,-10 z" id="path72"/><path d="m 2675,5470 c 3,-5 13,-10 21,-10 8,0 12,5 9,10 -3,6 -13,10 -21,10 -8,0 -12,-4 -9,-10 z" id="path73"/><path d="m 2020,5447 c -22,-9 -23,-11 -6,-14 10,-3 23,0 29,6 16,16 5,20 -23,8 z" id="path74"/><path d="m 3092,5451 c -11,-7 -10,-10 3,-15 23,-9 25,-8 25,9 0,17 -9,19 -28,6 z" id="path75"/><path d="m 1510,5434 c 0,-14 3,-14 15,-4 8,7 15,14 15,16 0,2 -7,4 -15,4 -8,0 -15,-7 -15,-16 z" id="path76"/><path d="m 1664,5438 c -4,-6 -2,-14 5,-16 9,-3 8,-9 -5,-23 -18,-20 -9,-25 15,-10 8,5 11,16 8,24 -3,8 0,20 6,26 8,8 7,11 -5,11 -9,0 -20,-5 -24,-12 z" id="path77"/><path d="m 1783,5440 c -28,-11 -30,-20 -4,-20 10,0 21,7 25,15 3,8 4,15 3,14 -1,0 -12,-4 -24,-9 z" id="path78"/><path d="m 2792,5439 c 2,-7 10,-15 17,-17 8,-3 12,1 9,9 -2,7 -10,15 -17,17 -8,3 -12,-1 -9,-9 z" id="path79"/><path d="m 2910,5436 c 0,-9 7,-16 16,-16 17,0 14,22 -4,28 -7,2 -12,-3 -12,-12 z" id="path80"/><path d="m 1890,5430 c -8,-5 -11,-12 -7,-16 4,-4 13,-2 19,4 15,15 7,24 -12,12 z" id="path81"/><path d="m 2660,5432 c 0,-5 7,-16 16,-23 14,-12 16,-11 13,5 -4,20 -29,35 -29,18 z" id="path82"/><path d="m 2380,5401 c 0,-10 42,-23 49,-15 7,6 -20,24 -36,24 -7,0 -13,-4 -13,-9 z" id="path83"/><path d="m 1564,5388 c -4,-6 2,-18 12,-26 13,-10 15,-16 7,-19 -15,-5 -18,-33 -4,-33 12,0 20,33 14,64 -6,28 -17,33 -29,14 z" id="path84"/><path d="m 2533,5387 c 3,-9 1,-18 -6,-20 -7,-2 -8,-8 -4,-13 4,-5 11,-4 15,2 4,6 13,13 20,15 8,3 5,9 -9,18 -19,11 -21,11 -16,-2 z" id="path85"/><path d="m 2780,5385 c 0,-8 9,-15 20,-15 24,0 27,15 4,24 -22,9 -24,8 -24,-9 z" id="path86"/><path d="m 2900,5385 c 7,-8 16,-12 21,-9 13,8 1,24 -18,24 -13,0 -13,-3 -3,-15 z" id="path87"/><path d="m 3017,5393 c -11,-10 -8,-20 7,-26 10,-4 12,0 9,14 -6,21 -7,22 -16,12 z" id="path88"/><path d="m 3100,5374 c -12,-32 -13,-31 3,-37 9,-3 13,6 14,29 1,41 -4,43 -17,8 z" id="path89"/><path d="m 1760,5380 c 0,-5 6,-10 14,-10 8,0 18,5 21,10 3,6 -3,10 -14,10 -12,0 -21,-4 -21,-10 z" id="path90"/><path d="m 2650,5380 c 0,-5 9,-14 20,-20 22,-12 27,-1 8,18 -14,14 -28,16 -28,2 z" id="path91"/><path d="m 3166,5371 c -4,-7 -3,-18 4,-25 6,-9 8,-26 4,-43 -7,-25 -6,-27 9,-14 12,9 15,21 11,40 -10,41 -20,56 -28,42 z" id="path92"/><path d="m 1370,5334 c -6,-14 -10,-38 -9,-52 0,-15 -1,-34 -3,-42 -2,-8 2,-15 7,-15 6,0 9,8 8,17 -2,13 3,17 19,15 11,-1 23,4 25,11 3,7 1,12 -4,11 -30,-5 -35,2 -28,41 8,45 -1,53 -15,14 z" id="path93"/><path d="m 2896,5353 c -3,-3 -3,-10 0,-14 7,-12 34,-11 34,0 0,11 -26,22 -34,14 z" id="path94"/><path d="m 1497,5313 c -6,-34 -3,-52 7,-42 10,10 17,79 8,79 -5,0 -12,-17 -15,-37 z" id="path95"/><path d="m 2647,5343 c -7,-10 29,-50 37,-42 3,2 -3,15 -13,28 -10,13 -21,19 -24,14 z" id="path96"/><path d="m 2777,5339 c 6,-6 9,-17 7,-24 -3,-7 0,-16 7,-21 9,-5 10,-2 6,9 -3,9 -1,18 6,21 9,3 8,8 -3,15 -20,14 -37,14 -23,0 z" id="path97"/><path d="m 3000,5335 c 0,-8 7,-15 15,-15 8,0 15,4 15,9 0,5 -7,11 -15,15 -9,3 -15,0 -15,-9 z" id="path98"/><path d="m 1446,5324 c -9,-24 -7,-64 3,-64 5,0 11,18 13,40 4,40 -5,53 -16,24 z" id="path99"/><path d="m 1141,5299 c -13,-37 -15,-119 -3,-119 4,0 6,-16 4,-35 -3,-22 0,-35 8,-35 7,0 9,-8 6,-20 -3,-11 -9,-29 -12,-40 -12,-43 12,-17 29,30 13,36 26,54 43,60 32,13 30,17 -6,14 -17,-1 -27,2 -24,7 3,6 0,16 -6,24 -7,9 -11,38 -8,76 3,70 -13,90 -31,38 z" id="path100"/><path d="m 2893,5293 c 9,-9 19,-14 23,-11 10,10 -6,28 -24,28 -15,0 -15,-1 1,-17 z" id="path101"/><path d="m 3002,5289 c 2,-7 10,-15 17,-17 8,-3 12,1 9,9 -2,7 -10,15 -17,17 -8,3 -12,-1 -9,-9 z" id="path102"/><path d="m 3096,5293 c -11,-11 -6,-23 9,-23 8,0 15,4 15,9 0,13 -16,22 -24,14 z" id="path103"/><path d="m 1561,5276 c -8,-10 -9,-16 -1,-21 5,-3 13,1 16,10 9,22 -1,29 -15,11 z" id="path104"/><path d="m 2760,5260 c 0,-5 5,-10 11,-10 6,0 9,-7 5,-15 -3,-8 -1,-15 3,-15 15,0 22,33 9,42 -18,11 -28,10 -28,-2 z" id="path105"/><path d="m 2870,5261 c 0,-11 31,-24 39,-16 3,3 -1,10 -9,15 -19,12 -30,12 -30,1 z" id="path106"/><path d="m 2990,5245 c 0,-8 7,-15 16,-15 14,0 14,3 4,15 -7,8 -14,15 -16,15 -2,0 -4,-7 -4,-15 z" id="path107"/><path d="m 3167,5254 c -8,-8 1,-24 14,-24 5,0 9,7 9,15 0,15 -12,20 -23,9 z" id="path108"/><path d="m 3229,5255 c -11,-17 -8,-108 2,-98 6,6 9,32 7,59 -2,27 -6,45 -9,39 z" id="path109"/><path d="m 3080,5235 c -10,-13 -9,-15 9,-15 12,0 21,6 21,15 0,8 -4,15 -9,15 -5,0 -14,-7 -21,-15 z" id="path110"/><path d="m 3385,5170 c 0,-68 3,-81 18,-86 9,-3 17,-10 17,-15 0,-5 5,-9 11,-9 16,0 1,128 -19,163 -9,15 -19,27 -22,27 -3,0 -5,-36 -5,-80 z" id="path111"/><path d="m 1442,5231 c -10,-6 -11,-13 -1,-34 7,-15 16,-27 21,-27 11,0 10,18 -2,25 -6,4 -8,15 -5,26 7,21 6,22 -13,10 z" id="path112"/><path d="m 1825,5230 c -3,-5 3,-10 15,-10 12,0 18,5 15,10 -3,6 -10,10 -15,10 -5,0 -12,-4 -15,-10 z" id="path113"/><path d="m 1950,5230 c 0,-5 9,-10 20,-10 11,0 20,5 20,10 0,6 -9,10 -20,10 -11,0 -20,-4 -20,-10 z" id="path114"/><path d="m 2215,5230 c 3,-5 13,-10 21,-10 8,0 14,5 14,10 0,6 -9,10 -21,10 -11,0 -17,-4 -14,-10 z" id="path115"/><path d="m 2876,5215 c 4,-8 13,-15 21,-15 13,0 13,3 3,15 -7,8 -16,15 -21,15 -5,0 -6,-7 -3,-15 z" id="path116"/><path d="m 2050,5210 c 0,-5 9,-10 20,-10 11,0 20,5 20,10 0,6 -9,10 -20,10 -11,0 -20,-4 -20,-10 z" id="path117"/><path d="m 2355,5210 c 27,-12 35,-12 35,0 0,6 -12,10 -27,9 -25,0 -26,-1 -8,-9 z" id="path118"/><path d="m 2980,5203 c 0,-12 7,-23 15,-26 23,-9 26,9 5,28 -19,17 -20,17 -20,-2 z" id="path119"/><path d="m 1940,5200 c 0,-6 7,-13 15,-17 24,-9 27,1 5,15 -13,8 -20,8 -20,2 z" id="path120"/><path d="m 3162,5188 c 0,-13 -3,-36 -6,-53 -4,-16 -7,-37 -8,-45 0,-8 -5,-20 -10,-27 -5,-7 -5,-14 2,-18 11,-7 14,1 25,50 12,58 15,115 6,115 -5,0 -9,-10 -9,-22 z" id="path121"/><path d="m 2207,5189 c 8,-8 16,-8 30,0 16,9 14,10 -11,11 -22,0 -27,-3 -19,-11 z" id="path122"/><path d="m 3077,5188 c -9,-24 -2,-61 12,-66 10,-3 12,0 7,13 -3,10 -2,23 4,30 7,9 6,16 -4,24 -10,9 -15,8 -19,-1 z" id="path123"/><path d="m 1283,5166 c -33,-28 -47,-75 -65,-221 -17,-133 -17,-867 0,-984 6,-47 10,-86 8,-88 -2,-3 -30,10 -62,28 -109,60 -110,61 -122,138 -7,38 -12,100 -13,138 -1,48 -3,60 -9,43 -17,-57 -25,23 -25,265 1,193 5,275 19,358 9,60 16,111 13,113 -7,7 -22,-60 -52,-231 -11,-59 -13,-401 -4,-445 6,-25 17,-90 26,-145 22,-142 48,-204 98,-232 22,-12 63,-30 90,-38 28,-9 62,-23 77,-31 14,-8 45,-14 67,-14 h 41 v -58 c 0,-36 6,-66 15,-78 8,-10 15,-27 15,-37 0,-11 9,-31 21,-45 l 21,-27 -26,-22 c -29,-25 -26,-45 8,-61 18,-8 25,-6 34,9 14,21 16,49 4,49 -4,0 -18,-7 -30,-16 -32,-22 -27,-7 8,26 21,20 28,33 23,46 -5,13 -3,16 9,11 12,-4 20,4 31,31 8,20 13,39 10,42 -3,3 -8,-2 -11,-10 -7,-20 -63,-72 -70,-65 -3,3 -1,10 6,17 6,6 9,23 6,37 -4,18 1,34 15,50 31,36 25,49 -7,18 -27,-26 -52,-35 -52,-20 0,4 12,18 28,30 15,13 19,20 10,17 -14,-5 -18,0 -18,21 0,20 -4,26 -15,21 -21,-8 -19,21 3,33 14,9 15,12 3,20 -8,5 -11,16 -8,24 3,9 -1,18 -9,21 -10,4 -11,11 -4,30 11,31 10,182 -2,164 -4,-7 -8,-23 -8,-34 0,-12 -7,-24 -15,-28 -19,-7 -20,-36 -1,-36 8,0 17,8 19,18 4,14 5,13 6,-4 1,-24 -38,-155 -50,-169 -16,-17 -10,33 11,87 11,28 17,54 15,57 -9,8 -39,-28 -41,-47 0,-9 -1,-29 -2,-44 -2,-30 -31,-39 -50,-15 -16,20 -30,234 -31,481 l -2,229 35,-36 c 43,-46 52,-47 26,-4 -11,17 -20,40 -20,50 0,9 -4,17 -8,17 -12,0 -34,121 -31,168 2,23 1,44 -2,47 -4,3 11,40 32,83 45,89 72,173 63,196 -3,8 1,29 9,46 15,29 15,30 -8,30 -13,0 -36,-11 -52,-24 z" id="path124"/><path d="m 2333,5176 c 5,-15 37,-20 49,-8 6,6 -1,11 -22,14 -19,3 -29,1 -27,-6 z" id="path125"/><path d="m 2880,5182 c 0,-5 7,-15 15,-22 8,-7 15,-8 15,-2 0,5 -7,15 -15,22 -8,7 -15,8 -15,2 z" id="path126"/><path d="m 1705,5169 c -12,-19 5,-23 22,-6 16,16 16,17 1,17 -9,0 -20,-5 -23,-11 z" id="path127"/><path d="m 2148,5159 c -9,-5 -51,-8 -92,-7 -42,2 -76,0 -76,-5 0,-4 -18,-4 -40,-1 -26,4 -45,2 -55,-6 -8,-7 -35,-11 -65,-8 -29,2 -50,-1 -50,-7 0,-16 -40,-36 -59,-30 -11,3 -25,-3 -36,-15 -10,-11 -28,-20 -40,-20 -12,0 -33,-8 -46,-19 -13,-10 -42,-27 -64,-39 -22,-11 -58,-37 -80,-57 -30,-27 -47,-35 -67,-32 -18,2 -28,-1 -28,-9 0,-7 10,-14 23,-16 l 22,-3 -22,-20 c -13,-11 -23,-25 -23,-31 0,-7 -5,-14 -12,-16 -13,-5 -12,-208 2,-255 5,-15 9,-21 10,-13 3,24 8,131 8,178 1,24 7,51 14,59 10,13 10,17 1,20 -20,7 -15,23 6,23 10,0 30,17 44,38 15,20 36,44 48,52 12,8 44,32 72,52 48,35 102,56 114,44 3,-3 -6,-8 -19,-11 -22,-6 -98,-103 -98,-126 0,-20 19,-7 38,26 13,21 40,44 74,61 46,23 60,26 115,21 35,-4 63,-4 63,-1 0,3 -10,14 -22,25 -14,11 -18,18 -10,19 7,0 20,7 28,15 14,13 13,15 -6,15 -12,0 -19,-4 -16,-9 3,-4 -6,-6 -20,-3 -23,4 -25,2 -19,-18 5,-17 4,-21 -6,-17 -8,2 -13,10 -11,16 2,8 -8,10 -34,5 -61,-11 -36,18 37,43 57,20 81,22 219,20 154,-2 155,-2 158,-25 4,-29 26,-24 30,7 3,19 9,22 40,19 33,-3 37,-7 45,-40 11,-45 27,-50 27,-9 0,34 15,48 34,32 7,-6 51,-14 97,-16 46,-3 109,-11 139,-17 l 54,-10 -29,-16 c -29,-16 -29,-17 -7,-20 12,-2 22,-8 22,-14 0,-6 9,-8 20,-5 24,6 25,-1 4,-24 -15,-17 -14,-18 21,-12 21,3 40,2 44,-4 3,-6 33,-18 65,-27 32,-10 65,-23 72,-31 8,-7 17,-15 21,-17 5,-1 24,-21 43,-43 20,-22 40,-41 45,-42 14,-3 6,36 -12,64 -28,42 1,24 70,-44 49,-48 67,-72 63,-85 -3,-14 4,-25 25,-37 16,-10 26,-21 22,-24 -3,-4 -1,-7 5,-7 7,0 12,-11 12,-25 0,-14 -6,-25 -13,-25 -8,0 -13,-10 -13,-22 1,-13 -4,-22 -10,-21 -6,1 -14,-15 -18,-37 -3,-21 -9,-47 -13,-57 -4,-11 3,-8 20,11 15,16 27,37 27,46 0,18 27,47 35,38 5,-5 13,-60 14,-97 1,-20 4,-22 13,-13 8,8 12,40 11,90 -3,85 -5,101 -16,120 -5,6 -6,12 -3,12 3,0 -9,15 -25,33 l -30,32 33,5 c 22,3 34,11 36,24 3,13 0,16 -10,10 -14,-9 -23,-12 -52,-16 -25,-4 -33,20 -9,29 28,11 46,30 31,35 -7,3 -19,-4 -28,-14 -15,-18 -16,-18 -57,2 -49,23 -63,40 -34,40 12,0 21,7 21,15 0,8 5,15 10,15 6,0 10,7 10,15 0,8 -4,15 -10,15 -5,0 -10,-7 -10,-15 0,-8 -12,-18 -26,-21 -20,-5 -39,2 -86,35 -33,22 -66,41 -74,41 -8,0 -12,5 -9,10 3,6 -2,10 -13,10 -11,0 -31,9 -45,20 -14,11 -32,20 -41,20 -8,0 -20,9 -26,20 -8,15 -21,20 -50,20 -27,0 -47,7 -60,20 -11,11 -32,20 -47,21 -42,1 -76,8 -86,18 -5,5 -26,8 -46,5 -20,-2 -28,-1 -18,2 30,10 18,20 -25,20 -96,2 -167,10 -180,21 -8,8 -19,8 -30,2 z m 506,-144 c 3,-9 0,-15 -9,-15 -8,0 -15,7 -15,15 0,8 4,15 9,15 5,0 11,-7 15,-15 z" id="path128"/><path d="m 2460,5160 c 0,-5 12,-10 26,-10 14,0 23,4 19,10 -3,6 -15,10 -26,10 -10,0 -19,-4 -19,-10 z" id="path129"/><path d="m 2975,5150 c 3,-5 13,-10 21,-10 8,0 12,5 9,10 -3,6 -13,10 -21,10 -8,0 -12,-4 -9,-10 z" id="path130"/><path d="m 1606,5142 c -3,-6 -1,-14 5,-17 15,-10 25,3 12,16 -7,7 -13,7 -17,1 z" id="path131"/><path d="m 2570,5143 c 0,-7 33,-32 43,-33 16,0 5,16 -18,27 -14,6 -25,9 -25,6 z" id="path132"/><path d="m 3216,5104 c -4,-10 -1,-14 6,-12 15,5 23,28 10,28 -5,0 -13,-7 -16,-16 z" id="path133"/><path d="m 2715,5100 c 3,-5 13,-10 21,-10 8,0 14,5 14,10 0,6 -9,10 -21,10 -11,0 -17,-4 -14,-10 z" id="path134"/><path d="m 3063,5077 c -2,-19 4,-42 12,-53 14,-18 14,-17 9,12 -4,19 -1,34 5,38 8,5 7,12 -3,22 -20,19 -21,19 -23,-19 z" id="path135"/><path d="m 2620,5090 c 0,-5 7,-10 15,-10 8,0 15,5 15,10 0,6 -7,10 -15,10 -8,0 -15,-4 -15,-10 z" id="path136"/><path d="m 1450,5050 c 0,-11 4,-20 9,-20 17,0 19,15 5,28 -12,11 -14,9 -14,-8 z" id="path137"/><path d="m 3210,5069 c 0,-2 -4,-19 -9,-37 -11,-39 1,-43 18,-5 8,18 9,29 1,37 -5,5 -10,8 -10,5 z" id="path138"/><path d="m 1950,5041 c 0,-5 7,-14 15,-21 8,-7 15,-21 15,-31 0,-11 5,-19 10,-19 12,0 13,12 1,43 -9,23 -41,45 -41,28 z" id="path139"/><path d="m 2483,5013 c -3,-10 -8,-22 -11,-26 -2,-5 5,-4 17,2 11,7 21,18 21,26 0,21 -19,19 -27,-2 z" id="path140"/><path d="m 3130,5018 c 0,-23 11,-48 21,-48 14,0 11,24 -6,46 -12,16 -14,17 -15,2 z" id="path141"/><path d="m 3639,5008 c -12,-40 -56,-224 -54,-226 2,-2 12,27 24,65 21,73 41,163 35,163 -2,0 -4,-1 -5,-2 z" id="path142"/><path d="m 2920,4986 c 0,-2 7,-9 15,-16 12,-10 15,-10 15,4 0,9 -7,16 -15,16 -8,0 -15,-2 -15,-4 z" id="path143"/><path d="m 3187,4973 c -23,-23 5,-82 30,-62 19,17 16,28 -7,22 -31,-8 -22,28 10,40 11,4 9,6 -6,6 -11,1 -24,-2 -27,-6 z" id="path144"/><path d="m 2470,4945 c -14,-16 -10,-18 14,-9 9,3 16,10 16,15 0,14 -16,11 -30,-6 z" id="path145"/><path d="m 2905,4940 c -3,-5 1,-10 9,-10 8,0 18,5 21,10 3,6 -1,10 -9,10 -8,0 -18,-4 -21,-10 z" id="path146"/><path d="m 3016,4935 c 4,-8 10,-12 15,-9 14,8 10,24 -6,24 -9,0 -12,-6 -9,-15 z" id="path147"/><path d="m 1795,4877 c 20,-14 81,-37 96,-37 5,0 9,4 9,8 0,13 -68,42 -98,42 -25,0 -26,-1 -7,-13 z" id="path148"/><path d="m 2000,4845 c 0,-14 45,-65 57,-65 11,0 11,4 1,22 -19,33 -58,62 -58,43 z" id="path149"/><path d="m 2498,4834 c -26,-13 -39,-44 -20,-44 11,0 57,49 51,54 -2,2 -16,-2 -31,-10 z" id="path150"/><path d="m 1505,4818 c -45,-15 -95,-40 -95,-48 0,-4 -8,-16 -18,-28 -14,-16 -18,-35 -16,-79 4,-84 14,-144 30,-174 7,-15 11,-29 7,-32 -5,-5 -15,-49 -29,-127 -3,-14 -7,-54 -8,-90 -4,-72 -34,-170 -53,-170 -6,0 -11,-13 -11,-29 1,-15 -2,-33 -6,-39 -3,-6 -2,-13 3,-16 10,-7 21,16 21,44 0,10 7,20 15,24 8,3 15,17 15,31 0,14 9,34 20,45 21,21 28,80 9,80 -7,0 -6,8 4,23 9,14 17,62 22,125 6,90 9,102 24,96 130,-56 253,-79 372,-71 57,4 78,2 71,-5 -6,-6 -74,-14 -152,-18 -154,-7 -209,-25 -88,-28 103,-3 224,16 286,45 56,26 100,80 137,168 25,61 52,85 96,85 29,0 43,-7 63,-31 14,-17 26,-37 26,-44 0,-25 49,-126 80,-165 71,-90 267,-145 497,-141 31,1 41,5 37,14 -3,10 -33,14 -102,16 -94,2 -177,12 -255,30 -60,14 -58,23 3,14 92,-14 269,-8 350,10 130,30 139,37 146,112 1,17 10,66 18,110 21,105 20,115 -5,115 -11,0 -17,-4 -14,-10 3,-5 1,-36 -5,-67 -6,-32 -13,-80 -16,-108 -6,-53 -29,-99 -44,-90 -5,3 -4,19 4,38 28,68 34,100 30,155 -2,31 -5,67 -5,80 -1,12 -6,22 -13,22 -6,0 -27,8 -46,18 -19,11 -64,24 -100,31 -36,7 -76,15 -90,18 -16,3 -20,1 -13,-4 7,-5 -29,-7 -85,-5 -86,3 -194,-5 -317,-23 -22,-3 -53,-12 -69,-20 -43,-22 -57,-19 -136,26 -39,23 -73,39 -76,36 -3,-3 4,-8 15,-12 12,-3 21,-11 21,-17 0,-6 -7,-7 -17,-3 -184,77 -438,116 -538,83 z m 317,-33 c 117,-25 179,-47 211,-77 26,-25 29,-33 25,-72 -3,-24 -18,-70 -34,-102 -24,-48 -37,-63 -74,-81 -90,-44 -272,-52 -360,-16 -19,8 -52,14 -72,15 -67,1 -109,63 -116,175 -2,39 -2,83 2,97 8,31 44,57 94,67 68,13 249,9 324,-6 z m 1002,-88 c 101,-33 126,-56 126,-115 0,-97 -49,-194 -113,-226 -59,-28 -232,-34 -328,-11 -72,17 -176,62 -166,71 2,3 21,-5 40,-16 36,-22 129,-50 157,-49 8,0 -12,9 -45,18 -74,22 -111,41 -148,77 -69,65 -89,197 -35,237 46,35 130,47 288,43 122,-3 158,-8 224,-29 z" id="path151"/><path d="m 1638,4764 c -25,-13 -48,-42 -48,-60 0,-4 12,4 28,19 15,14 43,33 62,41 31,14 32,15 10,15 -14,0 -37,-6 -52,-15 z" id="path152"/><path d="m 1473,4758 c -50,-16 -63,-69 -42,-170 8,-36 21,-61 42,-80 33,-31 45,-31 26,0 -10,16 -10,40 -1,119 7,54 15,108 18,121 7,24 4,25 -43,10 z m -4,-130 c -11,-41 -12,-42 -21,-18 -11,30 -2,101 15,112 17,11 21,-41 6,-94 z" id="path153"/><path d="m 1890,4730 c 49,-43 120,-84 128,-75 4,4 2,10 -5,12 -7,2 -29,18 -50,35 -70,55 -132,80 -73,28 z" id="path154"/><path d="m 1650,4696 c -25,-17 -39,-21 -47,-14 -10,8 -13,4 -14,-16 -1,-14 -2,-31 -3,-38 -1,-6 14,-12 32,-12 27,-1 32,3 32,21 0,23 47,63 74,63 18,0 21,-15 6,-25 -17,-11 -11,-64 10,-85 24,-24 51,-25 89,-5 30,15 41,33 41,66 0,26 12,24 40,-6 13,-14 32,-25 42,-25 10,0 18,-5 18,-11 0,-6 -8,-8 -19,-4 -11,3 -22,1 -26,-5 -7,-11 24,-14 49,-4 25,10 19,20 -31,54 -108,73 -225,91 -293,46 z m 186,-31 c 16,-24 16,-27 -1,-45 -21,-23 -67,-26 -85,-5 -14,17 -4,55 16,55 8,0 14,5 14,10 0,20 40,9 56,-15 z" id="path155"/><path d="m 1773,4642 c -10,-26 14,-36 42,-18 15,10 24,20 21,24 -12,11 -58,7 -63,-6 z" id="path156"/><path d="m 1607,4604 c -11,-11 -8,-62 4,-70 6,-3 15,-1 19,7 7,10 16,9 49,-5 39,-18 111,-23 155,-11 46,13 76,28 76,37 0,7 -4,7 -12,0 -7,-5 -35,-13 -63,-18 -109,-17 -184,0 -211,49 -6,10 -13,14 -17,11 z" id="path157"/><path d="m 1934,4541 c -5,-5 -38,-21 -73,-35 -69,-28 -177,-36 -198,-15 -6,6 -17,9 -24,7 -22,-7 35,-39 80,-45 50,-7 170,28 208,61 15,14 25,27 22,30 -3,3 -10,2 -15,-3 z" id="path158"/><path d="m 2437,4680 c -33,-17 -59,-26 -62,-20 -7,12 -42,13 -48,2 -3,-4 3,-17 14,-30 l 18,-23 78,47 c 92,55 91,54 71,54 -8,0 -40,-13 -71,-30 z" id="path159"/><path d="m 2756,4672 c 39,-29 73,-77 61,-88 -3,-4 -24,8 -45,25 -59,46 -127,61 -209,44 -78,-16 -177,-59 -168,-73 8,-13 52,-2 85,20 51,34 60,33 60,-10 0,-45 35,-80 80,-80 45,0 77,51 60,95 -7,19 -6,25 4,25 22,0 66,-40 66,-61 0,-10 7,-19 15,-19 8,0 15,-9 15,-21 0,-14 -13,-26 -45,-40 -54,-24 -101,-23 -178,3 -75,25 -92,19 -30,-12 63,-32 189,-36 221,-7 12,11 26,16 32,12 21,-13 50,25 43,57 -4,19 -1,33 6,38 27,16 -56,120 -96,120 -9,0 1,-12 23,-28 z m -132,-38 c 25,-9 19,-34 -7,-34 -30,0 -40,10 -26,27 13,15 12,15 33,7 z m -26,-79 c 11,-4 23,2 35,16 19,24 37,17 21,-8 -20,-32 -39,-37 -67,-18 -19,12 -27,26 -26,44 l 1,26 9,-27 c 6,-14 18,-29 27,-33 z" id="path160"/><path d="m 2440,4560 c 0,-5 9,-10 21,-10 11,0 17,5 14,10 -3,6 -13,10 -21,10 -8,0 -14,-4 -14,-10 z" id="path161"/><path d="m 2400,4523 c 0,-19 75,-86 118,-105 24,-11 77,-22 118,-25 66,-5 77,-3 109,18 19,13 35,29 35,36 0,7 -15,2 -37,-13 -35,-24 -44,-25 -103,-19 -66,6 -169,53 -217,97 -13,12 -23,17 -23,11 z" id="path162"/><path d="m 2785,4360 c -13,-5 -14,-9 -5,-9 8,0 24,4 35,9 13,5 14,9 5,9 -8,0 -24,-4 -35,-9 z" id="path163"/><path d="m 2573,4343 c 9,-2 25,-2 35,0 9,3 1,5 -18,5 -19,0 -27,-2 -17,-5 z" id="path164"/><path d="m 2376,4805 c -10,-8 -23,-12 -27,-9 -5,3 -9,1 -9,-5 0,-20 21,-22 49,-5 17,10 28,21 25,26 -7,11 -16,10 -38,-7 z" id="path165"/><path d="m 1137,4675 c 3,-77 10,-144 16,-150 7,-7 8,-5 4,7 -3,9 -7,66 -8,125 -1,59 -6,119 -10,133 -4,14 -5,-38 -2,-115 z" id="path166"/><path d="m 2580,4801 c 0,-5 18,-11 41,-13 35,-3 38,-2 23,9 -20,15 -64,17 -64,4 z" id="path167"/><path d="m 1940,4791 c 8,-5 29,-11 45,-14 l 30,-6 -30,14 c -34,16 -72,21 -45,6 z" id="path168"/><path d="m 3570,4685 c 0,-101 -48,-459 -86,-642 -6,-29 -4,-33 14,-33 16,0 24,12 37,50 9,28 14,62 11,75 -4,16 -2,25 5,25 7,0 9,10 7,25 -3,13 0,26 6,28 8,3 8,10 0,23 -11,21 -2,92 13,103 6,3 10,41 9,84 0,42 2,77 7,77 4,0 7,7 7,15 0,8 -5,15 -11,15 -8,0 -7,5 1,15 9,11 11,37 6,97 -9,109 -25,136 -26,43 z" id="path169"/><path d="m 1300,4716 c 0,-8 5,-18 10,-21 6,-3 10,1 10,9 0,8 -4,18 -10,21 -5,3 -10,-1 -10,-9 z" id="path170"/><path d="m 3150,4715 c -7,-8 -8,-15 -2,-15 5,0 15,7 22,15 7,8 8,15 2,15 -5,0 -15,-7 -22,-15 z" id="path171"/><path d="m 3363,4419 c -29,-110 -30,-125 -18,-149 15,-28 45,-53 81,-64 15,-5 28,1 47,20 30,30 37,56 9,31 -10,-10 -22,-17 -27,-17 -20,0 -95,45 -100,61 -3,9 6,63 20,119 14,56 24,107 23,112 -2,6 -18,-45 -35,-113 z" id="path172"/><path d="m 1131,4496 c -7,-8 -34,-20 -62,-26 -41,-10 -48,-15 -38,-26 23,-28 94,-11 118,28 16,25 0,46 -18,24 z" id="path173"/><path d="m 3066,4428 c -3,-18 -8,-80 -11,-137 -4,-57 -8,-117 -10,-132 -2,-16 0,-29 5,-29 6,0 11,15 11,33 1,17 6,1 11,-38 6,-44 6,-75 0,-85 -5,-9 -7,-50 -4,-93 4,-70 3,-78 -17,-94 -13,-11 -24,-33 -27,-57 -4,-33 -2,-37 10,-27 8,7 14,20 13,29 0,10 10,32 23,49 19,27 23,43 21,96 -1,36 5,96 14,133 9,38 17,86 16,106 0,21 5,40 10,44 6,3 3,12 -8,19 -29,20 -45,88 -38,150 8,58 -10,89 -19,33 z m 39,-256 c 4,-30 3,-52 -2,-52 -10,0 -33,111 -32,151 1,36 25,-34 34,-99 z" id="path174"/><path d="m 3101,4358 c -1,-29 18,-79 34,-90 15,-11 18,-2 6,19 -6,10 -18,36 -25,58 -13,35 -15,37 -15,13 z" id="path175"/><path d="m 1986,4348 c -3,-13 -6,-39 -6,-57 0,-50 17,-26 23,32 5,48 -6,65 -17,25 z" id="path176"/><path d="m 2280,4318 c 0,-37 14,-66 24,-50 8,13 -4,71 -15,78 -5,3 -9,-10 -9,-28 z" id="path177"/><path d="m 2379,4243 c 11,-23 21,-50 21,-60 0,-13 3,-14 12,-5 9,9 9,15 0,24 -7,7 -12,19 -12,28 0,9 -10,25 -21,36 l -22,19 z" id="path178"/><path d="m 1330,4249 c -7,-11 -9,-27 -6,-35 3,-8 -3,-41 -14,-72 -11,-31 -20,-60 -20,-66 0,-17 37,39 45,69 7,27 13,125 8,125 -1,0 -7,-9 -13,-21 z" id="path179"/><path d="m 1998,4190 c 12,-11 27,-20 34,-20 15,1 -29,40 -45,40 -6,0 -1,-9 11,-20 z" id="path180"/><path d="m 2245,4194 c -5,-2 -28,-8 -50,-13 -29,-8 -41,-16 -42,-30 -2,-19 0,-18 50,3 29,13 59,25 66,28 13,4 13,5 0,10 -7,3 -18,4 -24,2 z" id="path181"/><path d="m 1880,4166 c 0,-14 5,-28 10,-31 6,-3 10,5 10,19 0,14 -4,28 -10,31 -6,3 -10,-5 -10,-19 z" id="path182"/><path d="m 1915,4161 c 3,-10 1,-30 -4,-45 -9,-23 -8,-26 11,-26 11,0 26,7 33,17 7,9 19,14 29,10 20,-8 21,-27 0,-27 -11,0 -14,-6 -9,-20 5,-16 2,-20 -17,-20 -57,-1 -111,-84 -114,-179 -1,-40 -7,-67 -16,-72 -7,-5 -8,-9 -3,-9 24,0 33,19 34,74 0,47 4,61 21,73 11,8 25,24 31,36 9,18 9,20 -2,10 -28,-27 -31,-12 -4,17 16,17 35,30 42,30 18,0 93,33 93,42 0,3 -7,13 -15,22 -8,8 -15,19 -15,24 0,17 -60,62 -81,62 -15,0 -19,-5 -14,-19 z" id="path183"/><path d="m 1545,4118 c -9,-64 -11,-128 -4,-128 3,0 9,27 12,60 4,33 10,72 13,85 4,15 2,25 -4,25 -6,0 -14,-19 -17,-42 z" id="path184"/><path d="m 1784,4113 c -61,-77 -61,-78 -31,-59 15,10 27,21 27,25 0,4 8,16 18,27 34,39 44,54 34,54 -5,0 -27,-21 -48,-47 z" id="path185"/><path d="m 2447,4133 c 13,-32 94,-172 103,-178 6,-4 10,-3 10,1 0,7 -67,135 -91,172 -16,26 -31,29 -22,5 z" id="path186"/><path d="m 2250,4124 c -45,-20 -80,-53 -80,-76 0,-24 6,-23 42,7 32,27 48,31 65,14 8,-8 18,-6 35,5 14,9 28,13 32,9 4,-5 6,6 4,22 -2,25 -8,30 -33,32 -16,2 -46,-4 -65,-13 z" id="path187"/><path d="m 2397,4108 c -4,-21 -16,-42 -27,-48 -26,-14 -26,-30 0,-30 26,0 42,32 38,78 l -3,37 z" id="path188"/><path d="m 3030,4082 c 0,-19 5,-29 15,-29 10,0 14,6 10,14 -3,8 -5,21 -5,29 0,8 -4,14 -10,14 -5,0 -10,-13 -10,-28 z" id="path189"/><path d="m 1820,4034 c -19,-14 -42,-33 -50,-43 -17,-21 -60,-37 -60,-23 0,6 12,13 26,16 15,4 23,10 20,14 -8,7 -76,-27 -76,-38 0,-4 -18,-30 -40,-57 -22,-28 -37,-53 -33,-56 3,-4 25,8 49,25 23,17 56,32 73,34 29,3 30,2 20,-23 -5,-14 -8,-28 -5,-30 4,-5 59,73 69,100 4,10 11,16 16,13 5,-3 12,5 15,19 4,14 20,32 37,41 17,8 28,18 25,21 -3,3 -11,1 -18,-4 -7,-5 -22,-13 -32,-17 -19,-7 -19,-6 -1,14 24,27 8,24 -35,-6 z m 1,-47 c -11,-12 -24,-18 -27,-14 -10,10 27,48 38,41 6,-4 1,-16 -11,-27 z m -81,-52 c -7,-8 -20,-15 -29,-15 -13,1 -13,3 3,15 26,19 42,19 26,0 z m 50,0 c 0,-8 -7,-15 -16,-15 -14,0 -14,3 -4,15 7,8 14,15 16,15 2,0 4,-7 4,-15 z" id="path190"/><path d="m 1745,4023 c -18,-14 -18,-15 -2,-9 10,3 23,6 28,6 5,0 9,5 9,10 0,14 -12,12 -35,-7 z" id="path191"/><path d="m 2084,4005 c 20,-19 37,-25 59,-23 48,5 44,25 -5,30 -24,3 -52,8 -63,12 -15,6 -13,1 9,-19 z" id="path192"/><path d="m 2289,4017 c 6,-8 9,-16 6,-19 -3,-3 2,-25 11,-49 11,-31 14,-61 9,-100 -10,-97 18,-80 54,32 8,25 8,45 1,63 -11,29 -8,31 22,15 13,-7 18,-7 14,-1 -8,14 -65,42 -83,42 -8,0 -11,5 -8,10 4,6 11,8 16,5 5,-4 9,-1 9,4 0,6 -14,11 -31,11 -25,0 -29,-3 -20,-13 z m 51,-67 c 27,-53 25,-61 -5,-20 -23,31 -33,60 -20,60 2,0 14,-18 25,-40 z" id="path193"/><path d="m 3004,3986 c 3,-28 11,-53 17,-57 7,-4 8,-16 4,-29 -5,-16 -4,-21 6,-18 19,6 22,68 3,68 -9,0 -14,11 -14,28 0,15 -5,34 -11,42 -8,11 -9,2 -5,-34 z" id="path194"/><path d="m 1980,4010 c 0,-13 11,-13 30,0 12,8 11,10 -7,10 -13,0 -23,-4 -23,-10 z" id="path195"/><path d="m 2425,3992 c 1,-21 13,-42 24,-42 9,0 8,31 -3,48 -11,18 -23,15 -21,-6 z" id="path196"/><path d="m 1986,3970 c -16,-16 -30,-39 -31,-51 -2,-19 2,-17 28,14 16,20 35,37 43,37 8,0 14,7 14,15 0,23 -22,17 -54,-15 z" id="path197"/><path d="m 2210,3975 c -9,-11 -7,-12 8,-8 22,5 31,-5 42,-51 4,-17 11,-40 16,-51 7,-18 6,-18 -9,-6 -22,17 -21,14 3,-34 11,-22 20,-47 20,-57 0,-19 18,-34 28,-23 3,3 0,10 -8,15 -11,7 -15,30 -16,85 -1,83 -14,117 -49,133 -18,8 -26,8 -35,-3 z" id="path198"/><path d="m 1925,3946 c -11,-19 -22,-33 -26,-30 -18,11 -25,-83 -9,-121 7,-16 9,-12 9,18 1,22 5,36 11,32 6,-3 7,1 4,10 -6,15 -1,32 31,98 20,39 2,33 -20,-7 z" id="path199"/><path d="m 2026,3934 c -39,-43 -57,-81 -69,-143 -5,-23 -3,-29 7,-25 14,5 36,67 36,100 0,10 19,35 41,56 25,23 38,43 33,48 -5,5 -26,-10 -48,-36 z" id="path200"/><path d="m 1605,3958 c -16,-6 -38,-17 -47,-26 -17,-14 -23,-10 -18,13 1,7 -2,7 -8,0 -5,-6 -6,-34 -2,-65 6,-43 7,-47 9,-19 1,43 22,64 84,85 26,9 47,18 47,20 0,7 -34,3 -65,-8 z" id="path201"/><path d="m 2162,3947 c -13,-16 -16,-34 -14,-95 2,-46 11,-45 41,7 11,21 11,25 -3,33 -21,12 -21,38 0,38 9,0 14,5 12,12 -6,18 -24,20 -36,5 z" id="path202"/><path d="m 2410,3931 c 0,-6 5,-11 11,-11 6,0 8,-8 5,-17 -3,-10 -8,-47 -11,-83 -4,-49 -3,-61 5,-50 9,12 10,11 5,-7 -4,-13 0,-31 8,-43 14,-21 14,-21 21,2 7,21 9,19 26,-20 11,-23 22,-65 26,-92 4,-27 11,-48 17,-47 15,3 38,-48 44,-97 8,-80 14,-106 23,-106 13,0 13,77 0,85 -5,3 -10,11 -10,16 0,6 4,8 8,5 5,-3 9,3 10,12 2,17 2,68 1,80 -5,36 5,40 15,7 12,-36 13,-29 10,82 -3,120 -19,204 -51,266 -24,47 -25,24 -3,-43 12,-34 19,-67 18,-72 -2,-5 -20,15 -41,45 -21,30 -45,61 -55,70 -22,19 -82,32 -82,18 z m 77,-33 c 43,-49 65,-98 65,-145 0,-45 14,-90 25,-80 2,3 -1,15 -7,27 -9,16 -9,25 1,36 18,21 26,17 31,-16 3,-16 1,-30 -2,-30 -4,0 -10,-18 -13,-40 -7,-56 -47,-95 -47,-46 0,14 -4,28 -10,31 -5,3 -10,13 -10,21 0,8 -18,42 -41,75 -30,45 -38,63 -30,73 6,7 8,16 5,19 -4,3 -3,18 0,32 6,22 9,25 21,15 12,-10 15,-10 15,0 0,6 -9,14 -20,17 -11,3 -20,12 -20,19 0,20 14,17 37,-8 z m 103,-370 c 0,-16 -3,-19 -11,-11 -6,6 -8,16 -5,22 11,17 16,13 16,-11 z" id="path203"/><path d="m 2481,3804 c -1,-25 24,-90 39,-99 14,-9 12,6 -6,40 -9,17 -20,41 -24,55 -7,22 -8,23 -9,4 z" id="path204"/><path d="m 2510,3810 c 0,-8 5,-22 10,-30 9,-13 10,-13 10,0 0,8 -5,22 -10,30 -9,13 -10,13 -10,0 z" id="path205"/><path d="m 1814,3903 c -3,-16 -9,-37 -14,-48 -20,-46 -22,-65 -6,-65 9,0 15,3 14,8 0,4 1,14 5,22 7,18 16,110 11,110 -2,0 -6,-12 -10,-27 z" id="path206"/><path d="m 2106,3917 c -5,-9 -6,-33 -4,-52 5,-40 -13,-43 -23,-4 -6,24 -6,24 -14,-6 -4,-16 -14,-43 -22,-58 -20,-39 -12,-52 15,-27 l 22,21 9,-23 c 9,-22 10,-22 10,6 1,24 3,26 16,16 23,-19 36,-3 23,28 -6,15 -14,47 -18,72 -5,33 -9,40 -14,27 z" id="path207"/><path d="m 2980,3913 c 0,-5 7,-17 15,-27 15,-20 20,-10 9,18 -6,16 -24,22 -24,9 z" id="path208"/><path d="m 2776,3888 c -10,-37 -7,-138 4,-138 6,0 10,33 10,80 0,83 -3,96 -14,58 z" id="path209"/><path d="m 2937,3904 c -4,-4 -7,-17 -7,-28 1,-19 1,-20 11,-3 11,19 8,43 -4,31 z" id="path210"/><path d="m 2038,3878 c -18,-27 -42,-97 -36,-104 5,-4 11,8 42,80 19,44 16,58 -6,24 z" id="path211"/><path d="m 2221,3884 c -1,-12 4,-36 10,-54 9,-25 9,-34 0,-40 -9,-5 -9,-9 3,-13 9,-4 16,-16 16,-27 0,-12 4,-19 9,-16 9,6 0,58 -22,126 -9,27 -15,36 -16,24 z" id="path212"/><path d="m 1940,3868 c 0,-15 -5,-39 -11,-55 -5,-15 -6,-23 -1,-18 17,19 30,72 21,86 -6,10 -9,7 -9,-13 z" id="path213"/><path d="m 1638,3842 c -63,-35 -127,-96 -115,-109 3,-3 24,15 46,39 23,24 61,54 86,67 24,12 47,26 50,32 9,13 7,12 -67,-29 z" id="path214"/><path d="m 2955,3798 c -12,-52 -26,-84 -45,-105 -21,-22 -27,-39 -27,-72 0,-23 -5,-47 -12,-54 -6,-6 -11,-23 -11,-37 0,-14 -5,-31 -11,-37 -15,-15 3,-68 33,-100 l 21,-23 h -21 c -23,0 -45,33 -57,87 -9,43 -25,52 -25,14 0,-16 5,-33 10,-36 15,-10 12,-42 -5,-49 -11,-4 -19,3 -27,22 -23,58 -29,153 -10,159 6,3 12,-2 12,-9 0,-8 7,-23 15,-34 14,-17 14,-17 3,11 -18,44 -28,54 -46,48 -13,-4 -14,-3 -3,5 10,7 11,14 2,31 -14,26 -24,28 -17,3 3,-9 2,-32 -3,-50 -5,-17 -6,-32 -1,-32 4,0 6,-8 3,-19 -3,-10 0,-22 6,-25 6,-4 11,-16 11,-27 0,-13 -4,-18 -12,-13 -6,4 -2,-8 10,-28 12,-19 22,-49 22,-65 0,-17 5,-44 11,-62 17,-49 1,-51 -18,-2 -20,50 -35,36 -21,-20 15,-57 5,-79 -57,-128 -53,-42 -67,-61 -45,-61 6,0 10,-5 10,-11 0,-6 -7,-9 -15,-5 -8,3 -20,0 -28,-7 -7,-7 -23,-21 -36,-32 l -23,-20 2,50 c 3,74 -63,211 -85,175 -3,-5 0,-13 8,-16 8,-3 27,-30 42,-60 24,-48 27,-62 21,-110 -3,-31 -11,-65 -17,-76 -10,-19 -11,-19 -25,-1 -14,17 -15,16 -9,-9 6,-33 -14,-39 -22,-8 -4,16 -8,18 -19,9 -11,-9 -14,-8 -14,2 0,8 -14,34 -30,59 -27,40 -30,41 -23,15 13,-49 6,-126 -13,-144 -15,-15 -16,-14 -10,12 6,27 5,27 -16,16 -13,-6 -31,-21 -41,-33 -17,-20 -18,-19 -11,65 7,93 1,129 -21,129 -10,0 -12,-7 -6,-27 4,-16 6,-59 4,-98 -5,-80 -22,-114 -24,-45 l -1,45 -10,-35 c -23,-86 -23,-83 3,-70 28,16 90,15 99,-1 7,-11 13,-9 70,22 37,21 78,38 113,49 20,6 37,16 37,21 0,5 9,9 20,9 13,0 22,10 28,32 5,20 15,32 27,34 11,2 25,10 31,18 6,9 16,16 23,16 8,0 9,5 1,19 -12,23 -13,32 -2,29 15,-3 62,22 62,33 0,6 7,9 15,5 11,-4 15,1 15,19 0,14 4,25 8,25 5,0 15,18 22,40 7,22 16,40 19,40 7,0 46,29 98,74 24,20 33,36 33,58 0,21 -4,29 -13,25 -9,-3 -13,6 -14,29 -1,22 4,34 12,34 15,0 45,69 45,104 0,14 4,26 9,28 6,2 6,25 2,58 -5,30 -9,46 -10,35 -1,-25 -40,-132 -75,-208 -14,-32 -26,-62 -26,-67 0,-6 -4,-10 -10,-10 -5,0 -10,2 -10,5 0,8 47,129 69,178 12,27 27,89 33,138 11,85 21,109 31,72 4,-14 5,-15 6,-2 0,8 -5,23 -12,34 -13,16 -16,10 -32,-57 z m -121,-427 c 3,-4 -1,-16 -8,-27 -8,-10 -11,-25 -8,-32 3,-10 0,-13 -9,-10 -14,5 -17,32 -4,61 8,18 21,22 29,8 z" id="path215"/><path d="m 1479,3838 c -12,-23 -12,-23 10,-4 23,21 26,26 11,26 -5,0 -15,-10 -21,-22 z" id="path216"/><path d="m 1760,3845 c -7,-8 -18,-15 -24,-15 -22,0 -39,-18 -41,-44 -2,-17 2,-26 11,-26 8,0 14,4 14,10 0,5 11,12 24,16 18,4 25,14 28,40 5,39 5,39 -12,19 z" id="path217"/><path d="m 1652,3818 c -46,-33 -129,-148 -107,-148 10,0 54,54 55,66 0,6 14,23 30,37 25,23 30,24 30,10 0,-15 2,-16 9,-3 6,8 7,18 4,22 -2,5 1,15 7,23 17,21 10,19 -28,-7 z" id="path218"/><path d="m 2355,3791 c -11,-25 -15,-47 -10,-58 8,-17 8,-17 12,0 6,24 22,21 34,-5 8,-19 9,-18 4,11 -3,18 -5,46 -5,62 0,40 -14,36 -35,-10 z" id="path219"/><path d="m 2886,3758 c -7,-28 -6,-89 1,-68 3,8 12,23 20,32 8,9 13,23 10,30 -4,8 -6,7 -6,-4 -1,-10 -5,-18 -10,-18 -4,0 -6,11 -3,25 5,31 -3,33 -12,3 z" id="path220"/><path d="m 2721,3740 c -1,-27 14,-58 24,-49 3,3 -1,21 -9,40 -14,31 -15,32 -15,9 z" id="path221"/><path d="m 1476,3717 c -10,-21 -16,-41 -13,-43 8,-8 38,47 35,64 -2,11 -9,4 -22,-21 z" id="path222"/><path d="m 1643,3724 c -10,-22 -9,-25 5,-22 9,2 18,13 20,26 5,30 -10,28 -25,-4 z" id="path223"/><path d="m 1770,3739 c 0,-18 41,-39 76,-39 30,0 56,-11 104,-42 89,-57 121,-62 262,-36 101,18 119,19 134,7 21,-17 51,-14 100,12 l 38,19 h -41 c -48,0 -93,17 -93,36 0,21 -28,24 -33,3 -7,-28 -25,-24 -20,5 3,13 0,27 -6,30 -7,4 -11,-1 -11,-12 0,-16 -8,-21 -45,-24 -84,-6 -290,23 -305,44 -7,9 -160,6 -160,-3 z m 288,-58 c 30,-9 42,-17 42,-30 0,-21 -39,-36 -54,-21 -6,6 -18,10 -27,10 -10,0 -20,9 -24,20 -7,21 2,43 13,36 4,-2 26,-9 50,-15 z m 162,-16 c 0,-6 -77,-45 -90,-45 -11,0 -14,33 -3,43 7,8 93,10 93,2 z" id="path224"/><path d="m 1693,3722 c -4,-9 -15,-28 -25,-41 -11,-15 -16,-32 -12,-44 4,-12 2,-17 -4,-13 -5,3 -26,-10 -45,-28 -28,-26 -33,-35 -22,-40 21,-8 19,-44 -2,-49 -10,-3 2,-5 27,-6 43,-1 44,-1 22,15 -28,19 -20,34 16,30 15,-2 21,-1 15,1 -7,2 -13,13 -13,23 0,22 -16,35 -23,20 -3,-6 -4,-5 -3,2 1,7 12,14 24,16 30,5 47,28 33,45 -8,10 -4,19 19,36 34,24 37,36 15,45 -10,3 -18,-1 -22,-12 z" id="path225"/><path d="m 2786,3691 c 5,-48 24,-93 23,-56 0,11 -7,38 -15,60 l -14,40 z" id="path226"/><path d="m 2853,3650 c 0,-25 2,-35 4,-22 2,12 2,32 0,45 -2,12 -4,2 -4,-23 z" id="path227"/><path d="m 1538,3648 c -8,-7 -18,-24 -21,-38 -6,-24 -5,-23 18,5 33,40 34,57 3,33 z" id="path228"/><path d="m 1801,3634 c -1,-24 39,-88 72,-115 24,-20 104,-45 113,-36 4,3 -6,9 -22,13 -16,4 -35,12 -43,18 -31,24 -104,102 -112,121 -8,20 -8,20 -8,-1 z" id="path229"/><path d="m 2646,3615 c 12,-34 34,-129 34,-147 0,-9 -7,-24 -16,-32 -8,-9 -11,-16 -5,-16 5,0 16,9 25,21 l 14,21 5,-23 c 2,-13 4,1 5,31 0,35 -2,46 -7,31 -5,-20 -9,-16 -20,30 -7,30 -20,65 -28,79 -9,15 -12,17 -7,5 z" id="path230"/><path d="m 1496,3564 c -3,-9 -6,-23 -6,-32 1,-12 5,-10 15,8 8,14 14,28 15,33 0,13 -18,7 -24,-9 z" id="path231"/><path d="m 1501,3507 c -53,-42 -54,-43 -57,-102 -3,-67 -7,-92 -16,-100 -11,-11 4,-45 19,-45 12,0 14,-7 10,-29 -5,-21 0,-37 16,-57 12,-16 21,-31 20,-34 -1,-3 5,-4 14,-2 11,2 13,-2 8,-17 -4,-12 -2,-21 4,-21 6,0 11,-6 11,-13 0,-20 77,-57 120,-57 30,0 46,7 70,31 17,18 23,29 14,25 -10,-4 -20,-2 -24,3 -3,7 -20,1 -42,-14 -40,-27 -48,-30 -48,-15 0,5 20,21 45,36 25,14 45,32 45,38 0,7 14,32 30,54 17,23 30,45 30,48 0,14 -31,-20 -54,-60 -30,-51 -63,-75 -108,-78 -26,-3 -34,2 -46,25 -7,15 -20,27 -28,27 -18,0 -18,10 2,39 17,23 16,23 -15,16 -42,-9 -39,0 7,24 l 37,20 -30,1 c -23,0 -27,3 -15,10 8,5 22,7 32,4 9,-3 28,6 44,21 15,14 34,25 43,25 9,1 27,7 41,16 25,15 25,15 -10,8 -19,-3 -63,-20 -98,-36 -34,-17 -69,-27 -78,-24 -20,8 -9,26 16,26 31,0 89,32 83,45 -3,8 8,16 29,20 60,12 147,81 148,115 0,9 -11,1 -26,-17 -14,-18 -32,-33 -39,-33 -8,0 -18,-8 -24,-17 -6,-12 -20,-16 -43,-15 -28,2 -39,-4 -64,-33 -16,-20 -44,-43 -63,-51 -41,-17 -41,-17 -36,-1 2,6 6,42 8,78 6,81 30,133 58,126 22,-6 31,4 20,21 -4,8 -24,-2 -60,-31 z" id="path232"/><path d="m 2345,3527 c -11,-7 -22,-15 -25,-18 -10,-11 -91,-39 -113,-39 -19,-1 -20,-2 -6,-10 24,-14 107,13 149,49 35,30 32,40 -5,18 z" id="path233"/><path d="m 1748,3509 c -43,-22 -51,-33 -13,-19 14,5 31,7 39,4 8,-3 16,3 19,15 6,25 4,25 -45,0 z" id="path234"/><path d="m 2518,3465 c -2,-25 2,-56 9,-68 7,-12 12,-28 13,-36 0,-11 -3,-11 -16,0 -14,11 -15,9 -9,-27 4,-21 9,-48 12,-59 5,-19 4,-18 -20,3 -35,33 -43,11 -8,-22 16,-15 37,-48 46,-72 9,-24 21,-44 26,-44 6,0 8,4 5,8 -2,4 -1,14 4,22 7,11 13,10 37,-5 l 28,-18 -20,24 c -27,32 -57,59 -65,59 -9,0 -6,47 5,73 4,9 3,23 -3,30 -5,6 -12,30 -15,52 -3,22 -9,49 -13,59 -6,16 -4,18 9,13 16,-6 16,-4 2,23 -9,17 -17,30 -19,30 -2,0 -6,-20 -8,-45 z" id="path235"/><path d="m 1607,3464 c -13,-13 7,-44 29,-44 13,0 24,3 24,8 -1,10 -47,42 -53,36 z" id="path236"/><path d="m 2118,3463 c 12,-2 32,-2 45,0 12,2 2,4 -23,4 -25,0 -35,-2 -22,-4 z" id="path237"/><path d="m 1837,3443 c -24,-13 -28,-20 -25,-51 3,-36 4,-37 41,-36 21,1 43,6 48,11 6,6 -4,9 -27,9 -48,-1 -52,14 -12,52 34,34 23,40 -25,15 z" id="path238"/><path d="m 1895,3424 c -17,-13 -25,-24 -19,-24 20,0 74,22 74,30 0,19 -28,16 -55,-6 z" id="path239"/><path d="m 2030,3416 c 0,-17 -4,-24 -14,-20 -7,3 -16,-1 -19,-9 -3,-8 -26,-24 -51,-37 -25,-12 -46,-28 -46,-36 0,-12 4,-12 21,-4 11,7 23,9 26,7 6,-7 103,90 103,102 0,6 -4,13 -10,16 -6,3 -10,-5 -10,-19 z" id="path240"/><path d="m 2100,3436 c 0,-4 4,-16 10,-26 5,-10 11,-33 13,-51 4,-38 11,-61 33,-102 7,-16 14,-48 14,-72 0,-24 5,-47 10,-50 6,-4 10,13 10,45 0,37 -6,59 -22,82 -15,20 -19,32 -12,35 8,3 6,16 -7,43 -11,21 -19,48 -19,58 0,11 -7,25 -15,32 -8,7 -15,9 -15,6 z" id="path241"/><path d="m 2367,3386 c 27,-51 43,-62 43,-30 0,18 -48,84 -61,84 -5,0 3,-24 18,-54 z" id="path242"/><path d="m 2073,3398 c 4,-14 9,-38 12,-54 6,-28 6,-28 -10,-9 -22,28 -85,15 -85,-17 0,-6 7,-5 15,2 17,14 19,7 6,-38 -6,-18 -6,-32 -1,-32 5,0 14,18 20,40 11,40 30,63 30,36 0,-8 5,-16 11,-18 7,-2 7,-24 -1,-72 -8,-48 -8,-72 0,-80 7,-7 10,-1 10,19 0,17 6,62 13,100 9,44 10,82 5,102 -10,39 -34,59 -25,21 z" id="path243"/><path d="m 2180,3410 c 0,-5 5,-10 10,-10 6,0 10,-7 10,-17 0,-9 11,-31 24,-48 14,-18 28,-44 32,-59 10,-40 23,-31 19,14 -4,42 4,50 25,25 21,-26 21,-10 0,38 -23,53 -34,61 -24,20 7,-25 6,-27 -9,-14 -10,7 -17,19 -17,26 0,7 -7,18 -15,25 -11,9 -9,0 6,-35 28,-64 17,-68 -18,-6 -26,48 -43,64 -43,41 z" id="path244"/><path d="m 2696,3387 c -8,-32 -7,-49 3,-43 12,8 20,55 11,61 -4,3 -10,-5 -14,-18 z" id="path245"/><path d="m 2150,3368 c 0,-13 33,-68 41,-68 17,0 9,27 -16,50 -14,13 -25,21 -25,18 z" id="path246"/><path d="m 2645,3333 c -12,-26 -15,-41 -8,-52 13,-21 54,-41 67,-33 6,4 3,8 -9,10 -35,7 -45,32 -29,71 17,39 17,41 5,41 -5,0 -17,-17 -26,-37 z" id="path247"/><path d="m 1848,3318 c -48,-51 -32,-53 31,-3 38,31 41,35 20,34 -13,-1 -36,-15 -51,-31 z" id="path248"/><path d="m 1740,3320 c -8,-5 -11,-12 -7,-16 4,-4 15,0 24,9 18,18 8,23 -17,7 z" id="path249"/><path d="m 2588,3303 c -3,-11 0,-34 7,-50 19,-45 85,-101 69,-58 -4,8 -1,15 6,15 6,0 8,5 5,11 -4,6 -14,8 -22,5 -8,-3 -11,-1 -8,4 3,6 2,10 -4,10 -6,0 -19,18 -29,41 -16,34 -20,38 -24,22 z" id="path250"/><path d="m 1662,3299 c -28,-11 -57,-38 -49,-45 5,-6 97,44 97,52 0,7 -23,3 -48,-7 z" id="path251"/><path d="m 2362,3255 c 15,-14 30,-25 34,-25 4,0 -3,11 -16,25 -13,14 -28,25 -34,25 -6,0 1,-11 16,-25 z" id="path252"/><path d="m 1668,3249 c -7,-5 -23,-9 -35,-9 -13,0 -23,-5 -23,-11 0,-11 35,-8 73,6 10,4 17,3 17,-4 0,-7 -13,-17 -30,-22 -31,-11 -39,-24 -18,-31 7,-3 5,-13 -8,-33 l -18,-28 22,12 c 13,7 26,20 29,29 4,9 19,36 35,59 l 28,42 -29,-1 c -16,-1 -36,-5 -43,-9 z" id="path253"/><path d="m 1798,3225 c -20,-18 -39,-43 -43,-54 -3,-12 -10,-21 -15,-21 -4,0 -10,-11 -12,-25 -3,-14 -4,-25 -2,-25 10,0 54,57 54,71 0,9 14,28 30,42 17,15 30,32 30,37 0,14 -1,14 -42,-25 z" id="path254"/><path d="m 1903,3222 c -12,-15 -31,-38 -42,-51 -24,-28 -24,-26 -10,-52 8,-16 7,-26 -5,-44 -9,-14 -16,-30 -16,-37 0,-7 11,7 25,30 14,24 23,48 20,52 -3,5 -1,11 5,15 5,3 10,1 10,-6 0,-7 16,2 35,21 40,38 51,37 30,-4 -18,-33 -19,-39 -5,-31 14,8 63,115 57,122 -3,2 -27,-15 -53,-39 -32,-29 -45,-37 -41,-23 6,16 3,15 -12,-5 -11,-14 -23,-21 -27,-17 -9,9 25,47 41,47 7,0 21,12 31,28 14,21 14,24 2,14 -10,-8 -17,-9 -20,-3 -1,6 -13,-2 -25,-17 z" id="path255"/><path d="m 1838,3203 c -29,-34 -31,-48 -3,-20 15,15 26,30 23,32 -3,3 -12,-3 -20,-12 z" id="path256"/><path d="m 2260,3176 c 0,-25 -5,-48 -10,-51 -15,-9 -2,-25 15,-18 17,6 21,98 5,108 -6,4 -10,-11 -10,-39 z" id="path257"/><path d="m 2105,3148 c 2,-35 4,-69 4,-75 1,-7 6,-13 12,-13 6,0 9,6 6,14 -3,7 -2,17 3,22 8,9 -9,97 -22,109 -3,3 -4,-23 -3,-57 z" id="path258"/><path d="m 2464,3193 c 4,-9 2,-20 -5,-23 -12,-8 6,-48 27,-62 6,-4 12,-29 12,-54 2,-78 12,-63 12,17 0,56 -5,82 -20,107 -21,34 -37,43 -26,15 z" id="path259"/><path d="m 2016,3164 c -9,-35 -4,-39 11,-8 6,13 8,26 3,29 -4,3 -11,-7 -14,-21 z" id="path260"/><path d="m 2390,3177 c 0,-3 11,-22 24,-42 14,-20 27,-41 29,-48 3,-9 7,-9 17,0 10,9 3,21 -29,54 -22,24 -41,40 -41,36 z" id="path261"/><path d="m 2330,3145 c 0,-8 5,-15 10,-15 6,0 10,7 10,15 0,8 -4,15 -10,15 -5,0 -10,-7 -10,-15 z" id="path262"/><path d="m 1793,3123 c -13,-9 -23,-23 -23,-31 0,-13 7,-10 27,10 31,31 29,43 -4,21 z" id="path263"/><path d="m 2056,3133 c -3,-3 -7,-20 -7,-37 l -1,-31 -8,30 c -8,30 -8,30 -9,-7 -2,-56 28,-46 43,14 6,26 -4,44 -18,31 z" id="path264"/><path d="m 2160,3094 c 0,-14 4,-23 10,-19 6,3 10,15 10,26 0,10 -4,19 -10,19 -5,0 -10,-12 -10,-26 z" id="path265"/><path d="m 2320,3113 c 1,-5 7,-19 15,-33 8,-14 15,-36 15,-50 1,-14 4,-19 7,-12 10,25 -7,102 -23,102 -8,0 -14,-3 -14,-7 z" id="path266"/><path d="m 2390,3080 c 10,-19 28,-44 40,-55 l 23,-20 -7,25 c -14,49 -40,88 -57,87 -16,-1 -16,-3 1,-37 z" id="path267"/><path d="m 1956,3094 c -15,-14 -22,-44 -11,-44 2,0 11,14 20,30 17,33 14,38 -9,14 z" id="path268"/><path d="m 1997,3065 c -10,-47 -45,-134 -64,-155 -11,-12 -12,-6 -10,33 3,54 -5,60 -23,17 -7,-16 -16,-27 -21,-24 -5,3 -3,17 5,32 12,23 12,29 0,40 -12,11 -14,8 -14,-18 0,-19 -5,-30 -14,-30 -11,0 -12,8 -6,37 8,35 8,36 -10,17 -10,-10 -20,-34 -22,-53 -3,-34 -2,-35 57,-53 32,-10 64,-17 70,-14 6,2 23,27 38,55 23,41 27,61 25,103 l -3,53 z" id="path269"/><path d="m 1772,3067 c -28,-30 -41,-87 -19,-87 8,0 17,-7 21,-15 12,-31 27,-15 22,24 -2,22 -1,42 2,46 9,9 10,55 2,55 -4,0 -16,-10 -28,-23 z" id="path270"/><path d="m 1894,3075 c -10,-8 -14,-14 -9,-15 15,0 40,18 34,24 -3,3 -14,-1 -25,-9 z" id="path271"/><path d="m 2197,3073 c -10,-10 -8,-43 2,-43 5,0 8,11 7,25 0,14 -1,25 -2,25 0,0 -4,-3 -7,-7 z" id="path272"/><path d="m 2320,3055 c -4,-59 -7,-82 -14,-105 -9,-24 -8,-24 15,-8 20,13 23,23 21,59 -4,49 -21,89 -22,54 z" id="path273"/><path d="m 2085,3010 c 0,-26 3,-36 12,-33 9,3 11,-6 7,-34 -4,-33 -3,-35 6,-14 13,29 2,118 -14,118 -7,0 -11,-16 -11,-37 z" id="path274"/><path d="m 2146,3031 c -5,-15 -4,-26 4,-31 9,-5 6,-22 -12,-65 -29,-73 -46,-81 -50,-23 -2,26 -8,42 -14,41 -7,-1 -10,6 -7,17 3,11 2,28 -2,37 -7,15 -9,13 -15,-12 -4,-16 -8,-50 -9,-75 -1,-44 0,-45 39,-58 22,-6 58,-12 80,-12 36,0 40,3 42,25 2,47 3,50 12,56 5,4 7,12 4,19 -2,8 -15,3 -36,-15 -37,-31 -37,-30 -17,19 13,30 13,41 2,68 -14,32 -14,33 -21,9 z m 54,-118 c 0,-10 -32,-43 -42,-43 -5,0 -1,11 9,25 17,23 33,32 33,18 z" id="path275"/><path d="m 2202,2998 c -6,-6 -12,-19 -12,-27 0,-13 2,-13 16,1 9,9 15,21 13,27 -3,9 -8,8 -17,-1 z" id="path276"/><path d="m 1990,2927 c -14,-23 -26,-44 -27,-47 -2,-3 11,-5 27,-5 29,0 30,1 30,48 0,26 -1,47 -2,47 -2,0 -14,-19 -28,-43 z" id="path277"/><path d="m 989,6841 c -17,-17 -29,-40 -29,-55 0,-93 106,-135 165,-64 29,34 31,57 10,99 -29,55 -100,65 -146,20 z m 101,-21 c 38,-38 16,-100 -36,-100 -27,0 -64,32 -64,55 0,20 45,65 65,65 8,0 24,-9 35,-20 z" id="path278"/><path d="m 3644,6600 c -31,-12 -54,-49 -54,-85 0,-39 45,-85 83,-85 41,0 90,49 90,90 0,25 -8,40 -31,62 -33,29 -52,33 -88,18 z m 78,-55 c 17,-38 -3,-75 -41,-75 -32,0 -61,22 -61,47 0,51 81,73 102,28 z" id="path279"/><path d="m 362,6250 c -15,-12 -26,-35 -29,-59 -5,-35 -2,-44 25,-71 73,-72 183,-3 145,91 -23,58 -95,78 -141,39 z m 98,-30 c 11,-11 20,-29 20,-40 0,-26 -34,-60 -60,-60 -26,0 -60,34 -60,60 0,26 34,60 60,60 11,0 29,-9 40,-20 z" id="path280"/><path d="m 4044,6090 c -11,-4 -33,-23 -48,-41 -25,-30 -28,-39 -24,-93 4,-52 8,-63 37,-87 115,-96 277,20 212,153 -11,24 -34,51 -50,61 -31,18 -92,22 -127,7 z m 105,-34 c 87,-45 54,-186 -44,-186 -47,0 -71,13 -90,50 -28,54 -12,109 39,134 39,19 60,20 95,2 z" id="path281"/><path d="m 285,5178 c -73,-41 -95,-123 -51,-189 52,-77 136,-86 204,-24 35,31 37,37 37,92 0,63 -16,92 -67,119 -32,17 -95,18 -123,2 z m 133,-53 c 53,-62 8,-165 -73,-165 -71,0 -119,86 -85,150 29,54 117,62 158,15 z" id="path282"/><path d="m 4098,5100 c -41,-34 -52,-72 -33,-117 17,-41 57,-66 103,-65 29,1 44,9 70,37 37,40 41,76 13,119 -41,62 -98,71 -153,26 z m 116,-32 c 53,-75 -47,-164 -103,-92 -12,15 -21,37 -21,50 0,58 92,89 124,42 z" id="path283"/><path d="m 450,4123 c -23,-20 -33,-40 -37,-71 -5,-39 -3,-45 31,-77 42,-40 81,-45 126,-18 60,35 67,108 16,159 -44,44 -92,46 -136,7 z m 94,-14 c 13,-7 30,-24 36,-39 28,-68 -57,-123 -112,-73 -36,32 -17,98 32,116 8,3 16,6 17,6 1,1 13,-4 27,-10 z" id="path284"/><path d="m 3983,3881 c -38,-24 -53,-49 -53,-91 0,-57 55,-110 114,-110 56,0 118,89 97,141 -25,66 -102,95 -158,60 z m 93,-29 c 16,-10 34,-48 34,-69 0,-32 -37,-63 -75,-63 -62,0 -96,73 -55,118 21,22 73,30 96,14 z" id="path285"/><path d="m 3625,3059 c -34,-9 -65,-54 -65,-92 0,-32 33,-72 68,-85 66,-23 139,52 113,117 -23,54 -63,76 -116,60 z m 67,-46 c 53,-47 -17,-133 -74,-90 -28,22 -33,62 -9,86 25,25 58,27 83,4 z" id="path286"/><path style="fill: rgb(0, 0, 0); fill-opacity: 1; stroke-width: 0.341815px; --darkreader-inline-fill: #e8e6e3;" d="m 369.16545,736.9567 c -0.63401,-0.46776 -1.70216,-0.94085 -2.37365,-1.05131 -2.92987,-0.48194 -3.93249,-1.38013 -4.33242,-3.88115 -0.22107,-1.38244 0.3308,-3.44607 0.92156,-3.44607 0.78131,0 9.64233,2.77336 10.88252,3.40605 1.80828,0.92252 2.41229,2.11397 1.7079,3.36892 -1.34936,2.40406 -4.66274,3.18473 -6.80591,1.60356 z" id="path336" transform="matrix(7.4999995,0,0,-7.4999995,-723.78826,9159.4485)" data-darkreader-inline-fill=""/><path style="fill: rgb(0, 0, 0); fill-opacity: 1; stroke-width: 0.341815px; --darkreader-inline-fill: #e8e6e3;" d="m 379.76134,737.64978 c -0.53504,-1.40728 -0.41517,-3.44261 0.25122,-4.26544 0.49432,-0.61036 1.19347,-0.8033 4.02664,-1.11118 3.29017,-0.35755 8.02233,-0.14415 8.02233,0.36177 0,0.59785 -8.80946,5.15278 -11.01838,5.69705 -0.79804,0.19664 -0.98563,0.0968 -1.28181,-0.6822 z" id="path337" transform="matrix(7.4999995,0,0,-7.4999995,-723.78826,9159.4485)" data-darkreader-inline-fill=""/><path style="fill: rgb(0, 0, 0); fill-opacity: 1; stroke-width: 0.341815px; --darkreader-inline-fill: #e8e6e3;" d="m 368.82342,736.59566 c -0.84309,-0.46166 -1.72442,-0.83938 -1.95852,-0.83938 -1.12249,0 -3.24092,-1.18882 -3.69984,-2.07628 -0.50966,-0.98557 -0.66607,-3.24483 -0.29212,-4.21934 0.29533,-0.76961 0.91638,-0.69182 5.45012,0.68258 6.8038,2.06258 8.30554,3.09874 7.3932,5.1011 -0.99254,2.17839 -4.22512,2.81212 -6.89284,1.35132 z" id="path338" transform="matrix(7.4999995,0,0,-7.4999995,-723.78826,9159.4485)" data-darkreader-inline-fill=""/><path style="fill: rgb(0, 0, 0); fill-opacity: 1; stroke-width: 0.0854537px; --darkreader-inline-fill: #e8e6e3;" d="m 373.56081,740.23608 c -3.73563,-0.20725 -6.97132,-1.13061 -10.76716,-3.0726 -1.64748,-0.84287 -3.29104,-1.80736 -6.10994,-3.5855 -4.39643,-2.77324 -6.89354,-4.10263 -9.06126,-4.82396 -1.66428,-0.55381 -2.53582,-0.71831 -4.35497,-0.82196 -2.94893,-0.16804 -4.51503,-0.4876 -6.50406,-1.32716 -2.32955,-0.9833 -4.17765,-2.62577 -4.17765,-3.71283 0,-0.21554 0.05,-0.28254 0.28363,-0.38016 1.3783,-0.57589 9.83415,-1.02508 15.43985,-0.82019 3.99702,0.14609 5.08272,0.30566 5.66617,0.83278 2.58051,2.33133 21.43761,5.40397 35.60796,5.80208 4.13544,0.11618 8.09484,-0.27808 9.57061,-0.95301 0.97997,-0.44819 1.26885,-0.93173 1.37883,-2.30799 0.11886,-1.48743 0.41264,-1.9587 1.0938,-1.75462 0.49106,0.14712 0.84042,0.55675 1.02915,1.20668 0.25641,0.88299 0.2848,1.44113 0.12833,2.52276 -0.0836,0.57781 -0.13017,1.32705 -0.11292,1.81613 0.0357,1.01156 0.21048,1.43762 0.68503,1.66961 0.27912,0.13645 0.3455,0.14022 0.59951,0.0341 0.58498,-0.24442 1.08507,-1.02337 1.47253,-2.29367 0.2674,-0.87665 0.58065,-1.37409 1.07394,-1.70539 0.94952,-0.6377 2.33422,-0.34571 2.92994,0.61784 0.17406,0.28155 0.27413,0.60711 0.35783,1.16415 0.0639,0.42531 0.16407,0.86368 0.22257,0.97415 0.67004,1.26515 2.76026,2.42461 5.75016,3.18966 2.40319,0.61492 4.51107,0.81079 8.77125,0.81506 l 2.8627,0.003 -3.03361,1.54453 c -4.55037,2.31678 -6.07827,2.97827 -8.05847,3.48884 -1.81406,0.46773 -3.27456,0.52173 -4.64457,0.17173 -0.76942,-0.19657 -1.31624,-0.47243 -2.31572,-1.16821 -1.31867,-0.91798 -2.0973,-1.10032 -4.37764,-1.02511 -2.37762,0.0784 -5.51099,0.53106 -13.69843,1.97885 -7.78967,1.37745 -10.47632,1.74171 -14.20379,1.92578 -1.85283,0.0915 -1.75795,0.0916 -3.5036,-0.005 z m 8.23079,-1.92352 c 3.16561,-1.08165 10.10731,-4.70008 10.67297,-5.5634 0.13526,-0.20642 0.13416,-0.22452 -0.0206,-0.33768 -0.40359,-0.29511 -1.50046,-0.44445 -3.75786,-0.51163 -3.4894,-0.10384 -7.55601,0.28521 -8.44049,0.80751 -0.31505,0.18604 -0.61412,0.63111 -0.84374,1.25564 -0.15877,0.43185 -0.18906,0.69772 -0.19459,1.70783 -0.006,1.04288 0.0191,1.2706 0.19337,1.77517 0.1163,0.33675 0.31709,0.70307 0.48009,0.87591 0.37199,0.39442 0.73436,0.39265 1.91085,-0.009 z m -8.51564,-0.48648 c 1.29714,-0.41553 2.34132,-1.16388 2.88435,-2.06717 0.24949,-0.415 0.2979,-0.58382 0.3309,-1.15386 0.0336,-0.58003 0.0108,-0.72787 -0.17331,-1.12551 -0.41819,-0.90314 -1.33658,-1.56832 -3.16995,-2.29594 -0.57243,-0.22719 -1.52125,-0.54818 -2.10849,-0.71333 -0.58724,-0.16514 -1.90243,-0.53377 -2.92265,-0.81917 -1.02022,-0.2854 -2.34689,-0.69636 -2.94815,-0.91325 -1.34163,-0.48395 -1.72194,-0.53992 -2.0554,-0.30247 -0.78211,0.5569 -1.17305,2.49668 -0.83095,4.12297 0.28985,1.37792 1.06819,2.4715 2.18132,3.0648 0.39898,0.21265 0.65889,0.27992 1.33542,0.34562 1.49298,0.14498 2.49085,0.51371 3.3609,1.2419 0.56698,0.47454 0.79856,0.60293 1.38692,0.76889 0.65177,0.18384 1.89423,0.11397 2.72909,-0.15348 z" id="path339" transform="matrix(7.4999995,0,0,-7.4999995,-723.78826,9159.4485)" data-darkreader-inline-fill=""/><path style="fill: rgb(0, 0, 0); fill-opacity: 1; stroke-width: 0.0854537px; --darkreader-inline-fill: #e8e6e3;" d="m 370.95447,737.67218 c -0.49734,-0.0866 -1.30384,-0.45734 -2.22179,-1.02137 -0.71659,-0.44029 -1.29364,-0.65346 -2.34992,-0.86807 -1.92067,-0.39024 -2.89042,-0.99922 -3.42508,-2.15088 -0.66627,-1.43514 -0.59537,-3.89412 0.13759,-4.77208 l 0.22712,-0.27206 0.50471,0.11255 c 1.5367,0.34267 7.1216,2.07713 9.26372,2.87696 1.89932,0.70918 2.85886,1.46607 3.06488,2.41758 0.22813,1.05362 -0.80078,2.51886 -2.25307,3.20854 -0.96755,0.45948 -2.03078,0.62857 -2.94816,0.46883 z" id="path340" transform="matrix(7.4999995,0,0,-7.4999995,-723.78826,9159.4485)" data-darkreader-inline-fill=""/><use id="use360" inkscape:spray-origin="#path340" xlink:href="#path340" transform="translate(8.6304314,6.960247)"/><use id="use361" inkscape:spray-origin="#path340" xlink:href="#path340" transform="translate(-43.399695,36.264718)"/><use id="use362" inkscape:spray-origin="#path340" xlink:href="#path340" transform="translate(-50.773938,11.108936)"/><use id="use363" inkscape:spray-origin="#path340" xlink:href="#path340" transform="translate(75.495681,-5.0964099)"/><use id="use364" inkscape:spray-origin="#path340" xlink:href="#path340" transform="translate(78.339272,-2.0998172)"/><use id="use365" inkscape:spray-origin="#path340" xlink:href="#path340" transform="translate(77.914966,-14.927034)"/><use id="use366" inkscape:spray-origin="#path340" xlink:href="#path340" transform="translate(123.40587,-3.3387129)"/><use id="use367" inkscape:spray-origin="#path340" xlink:href="#path340" transform="translate(135.46262,-3.9146392)"/><use id="use368" inkscape:spray-origin="#path340" xlink:href="#path340" transform="translate(145.60402,-2.6903536)"/><use id="use369" inkscape:spray-origin="#path340" xlink:href="#path340" transform="translate(5.8276983,-1.6672771)"/><use id="use370" inkscape:spray-origin="#path340" xlink:href="#path340" transform="translate(-8.0796037,11.903036)"/><use id="use371" inkscape:spray-origin="#path340" xlink:href="#path340" transform="translate(-4.3820854,-4.4625192)"/><use id="use372" inkscape:spray-origin="#path340" xlink:href="#path340" transform="translate(4.4253029,-2.1126923)"/></g></g></svg>