<svg version="1.0" preserveAspectRatio="xMidYMid meet" id="svg358" sodipodi:docname="Bwh7KM01.svg" inkscape:version="1.3.2 (091e20e, 2023-11-25, custom)" xmlns:inkscape="http://www.inkscape.org/namespaces/inkscape" xmlns:sodipodi="http://sodipodi.sourceforge.net/DTD/sodipodi-0.dtd" xmlns="http://www.w3.org/2000/svg" xmlns:svg="http://www.w3.org/2000/svg" viewBox="15.4 12.05 421.5 424.5">
  <defs id="defs358"/>
  <sodipodi:namedview id="namedview358" pagecolor="#505050" bordercolor="#ffffff" borderopacity="1" inkscape:showpageshadow="0" inkscape:pageopacity="0" inkscape:pagecheckerboard="1" inkscape:deskcolor="#505050" inkscape:document-units="pt" inkscape:zoom="1.1402778" inkscape:cx="359.56151" inkscape:cy="360" inkscape:window-width="1920" inkscape:window-height="1017" inkscape:window-x="1912" inkscape:window-y="-8" inkscape:window-maximized="1" inkscape:current-layer="g358"/>
  <metadata id="metadata1">
Created by potrace 1.10, written by Peter Selinger 2001-2011
</metadata>
  <g transform="translate(0.000000,540.000000) scale(0.100000,-0.100000)" fill="#000000" stroke="none" id="g358" style="--darkreader-inline-fill: #000000; --darkreader-inline-stroke: none;" data-darkreader-inline-fill="" data-darkreader-inline-stroke="">
    <path d="M2048 5270 c-135 -16 -165 -21 -263 -45 -121 -29 -259 -73 -340 -109 -82 -37 -229 -109 -235 -116 -3 -3 -34 -23 -70 -44 -36 -22 -67 -42 -70 -46 -3 -3 -16 -13 -30 -22 -79 -49 -271 -222 -350 -314 -22 -26 -140 -175 -158 -199 -26 -35 -113 -182 -146 -245 -78 -150 -161 -389 -192 -550 -29 -156 -35 -210 -39 -390 -6 -285 19 -451 107 -715 81 -244 198 -456 364 -660 75 -92 206 -226 268 -273 19 -15 71 -55 115 -89 44 -35 83 -63 87 -63 4 0 15 -6 23 -14 70 -62 449 -237 561 -260 14 -3 41 -10 60 -16 39 -12 112 -29 150 -34 14 -2 57 -10 95 -17 125 -23 439 -18 605 11 30 5 74 12 96 15 23 2 52 9 66 14 14 5 55 17 92 26 122 31 307 109 484 206 23 12 42 26 42 31 0 4 5 8 10 8 6 0 38 19 71 43 33 23 71 49 85 58 71 46 278 251 369 364 188 235 314 489 399 805 82 306 87 694 11 1013 -38 160 -148 450 -205 537 -5 8 -17 29 -26 45 -9 17 -59 93 -110 170 -93 141 -193 250 -334 365 -30 25 -57 47 -60 50 -35 35 -231 170 -249 170 -5 0 -11 3 -13 8 -11 24 -273 143 -438 199 -224 75 -586 111 -832 83z m457 -45 c189 -22 314 -53 480 -118 277 -108 504 -252 721 -459 50 -49 96 -88 101 -88 9 0 70 -78 88 -115 6 -11 45 -72 87 -135 229 -345 348 -737 348 -1143 0 -330 -67 -626 -209 -923 -295 -614 -860 -1036 -1541 -1151 -150 -25 -496 -25 -635 0 -298 54 -538 146 -785 303 -551 349 -896 902 -961 1539 -14 145 -7 410 16 545 75 449 270 835 580 1146 133 133 189 180 320 268 176 118 370 208 570 265 101 29 288 66 370 74 102 9 342 5 450 -8z" id="path2"/>
    <path d="M2107 5188 c-229 -15 -505 -88 -716 -188 -333 -160 -604 -397 -822 -721 -71 -105 -189 -337 -189 -370 0 -16 20 -9 27 9 40 116 133 294 133 256 0 -12 -10 -36 -23 -55 -12 -19 -34 -65 -49 -104 -40 -103 -43 -112 -31 -100 6 6 25 45 42 88 41 103 162 330 183 343 18 11 30 -12 15 -28 -41 -41 -195 -336 -202 -388 l-5 -35 13 37 c7 21 21 48 32 60 11 13 20 28 20 33 1 21 17 55 26 55 13 0 11 -12 -6 -54 -20 -48 -2 -47 20 2 48 108 149 262 171 262 17 0 17 0 -43 -86 -24 -34 -43 -65 -43 -69 0 -3 -11 -21 -23 -38 -13 -18 -32 -54 -43 -82 -10 -27 -20 -53 -22 -57 -2 -5 3 -8 12 -8 9 0 16 8 16 18 0 24 79 176 126 243 21 29 39 55 39 57 1 1 10 0 19 -4 13 -5 9 -15 -26 -58 -24 -28 -46 -52 -50 -54 -5 -2 -8 -11 -8 -21 0 -9 -4 -21 -10 -27 -7 -7 -58 -103 -88 -166 -2 -5 0 -8 5 -8 5 0 17 15 26 33 49 96 166 277 180 277 10 0 9 -38 -1 -42 -29 -11 -202 -312 -202 -350 0 -29 18 -20 25 12 4 16 11 32 15 35 5 3 24 38 43 78 35 75 130 227 149 239 7 3 12 16 13 27 1 16 -1 18 -12 10 -9 -8 -14 -7 -19 4 -3 9 -14 19 -25 22 -10 4 -19 13 -19 21 0 9 -5 12 -12 8 -6 -4 -17 1 -24 11 -13 17 -14 17 -20 -1 -4 -10 -17 -30 -29 -44 -12 -14 -41 -58 -64 -98 -24 -40 -47 -75 -52 -78 -20 -12 -7 24 33 90 23 39 50 86 61 104 10 17 23 32 28 32 15 0 10 27 -6 34 -28 10 -2 48 125 181 105 109 195 190 283 253 29 20 54 40 55 44 2 5 7 8 12 8 5 0 44 21 87 47 207 123 460 213 713 253 36 6 131 13 213 17 l147 6 0 -27 c0 -16 4 -25 10 -21 6 4 8 16 4 27 -6 20 -4 20 77 14 145 -11 248 -30 432 -80 63 -17 156 -54 171 -68 15 -13 46 -10 46 5 0 13 -36 29 -192 82 -228 79 -499 111 -771 93z" id="path3"/>
    <path d="M2374 5123 c10 -10 107 -12 100 -2 -3 5 -28 9 -56 9 -28 0 -48 -3 -44 -7z" id="path4"/>
    <path d="M2506 5112 c5 -5 43 -14 84 -21 147 -23 309 -76 433 -139 4 -2 7 3 7 11 0 33 -201 103 -395 138 -123 21 -144 23 -129 11z" id="path5"/>
    <path d="M2360 5080 c37 -12 92 -12 85 0 -3 6 -30 10 -58 9 -41 -1 -47 -3 -27 -9z" id="path6"/>
    <path d="M2486 5071 c-4 -5 18 -12 51 -16 117 -14 333 -77 427 -124 35 -18 70 -19 49 -2 -42 36 -318 124 -428 136 -33 4 -67 9 -77 11 -9 3 -19 0 -22 -5z" id="path7"/>
    <path d="M2328 5020 c2 -16 8 -30 12 -30 12 0 5 53 -7 57 -5 2 -8 -10 -5 -27z" id="path8"/>
    <path d="M2371 5036 c9 -8 99 -13 99 -5 0 5 -23 9 -52 9 -28 0 -49 -2 -47 -4z" id="path9"/>
    <path d="M2480 5032 c0 -4 71 -23 158 -42 86 -18 164 -39 173 -46 8 -8 21 -14 27 -14 18 0 14 20 -5 26 -10 3 -27 10 -38 15 -40 17 -174 49 -236 55 -35 3 -67 8 -71 11 -5 2 -8 0 -8 -5z" id="path10"/>
    <path d="M2390 4991 c0 -4 44 -13 98 -20 116 -15 290 -60 387 -100 39 -16 79 -32 89 -36 19 -5 19 -5 3 12 -9 10 -42 27 -74 38 -32 10 -63 22 -69 27 -6 4 -48 17 -95 28 -46 12 -93 23 -104 26 -60 17 -235 35 -235 25z" id="path11"/>
    <path d="M3080 4966 c0 -7 99 -56 112 -56 6 0 -9 14 -35 30 -42 26 -77 38 -77 26z" id="path12"/>
    <path d="M2312 4955 c4 -4 22 -9 40 -11 40 -3 153 -19 228 -33 83 -15 223 -58 282 -86 56 -27 82 -32 76 -14 -8 24 -207 90 -383 128 -65 14 -252 26 -243 16z" id="path13"/>
    <path d="M2315 4911 c-3 -5 16 -12 42 -16 189 -24 310 -50 401 -85 61 -23 72 -25 72 -7 0 13 -35 26 -170 62 -88 23 -132 31 -235 40 -33 3 -70 8 -82 10 -12 3 -24 1 -28 -4z" id="path14"/>
    <path d="M2910 4914 c0 -3 15 -11 34 -19 18 -8 61 -32 94 -55 34 -22 66 -40 73 -40 21 0 -37 44 -109 83 -66 35 -92 44 -92 31z" id="path15"/>
    <path d="M3101 4907 c14 -7 33 -18 43 -26 9 -7 16 -9 16 -3 0 14 -46 42 -67 41 -13 0 -11 -4 8 -12z" id="path16"/>
    <path d="M3032 4898 c5 -15 108 -71 116 -63 3 3 3 6 1 8 -22 15 -112 67 -115 67 -3 0 -4 -6 -2 -12z" id="path17"/>
    <path d="M1409 4883 c-13 -15 -12 -15 11 -3 34 17 36 20 18 20 -9 0 -22 -7 -29 -17z" id="path18"/>
    <path d="M2315 4861 c-13 -12 -1 -17 49 -19 58 -2 297 -45 356 -63 19 -6 51 -19 70 -27 19 -9 40 -18 45 -21 6 -2 4 3 -4 12 -7 10 -20 17 -27 17 -8 0 -14 4 -14 8 0 11 -165 58 -250 72 -92 15 -220 27 -225 21z" id="path19"/>
    <path d="M2274 4813 c4 -4 64 -15 134 -24 70 -10 159 -25 197 -34 129 -30 146 -33 142 -22 -4 12 -28 20 -127 43 -118 27 -363 53 -346 37z" id="path20"/>
    <path d="M3020 4802 c0 -12 78 -47 86 -39 7 7 -55 47 -73 47 -7 0 -13 -4 -13 -8z" id="path21"/>
    <path d="M2946 4791 c-7 -11 8 -23 54 -44 69 -31 89 -37 84 -24 -5 15 -51 37 -76 37 -10 0 -18 3 -18 8 0 12 -39 32 -44 23z" id="path22"/>
    <path d="M2215 4760 c3 -5 17 -10 31 -10 13 0 24 5 24 10 0 6 -14 10 -31 10 -17 0 -28 -4 -24 -10z" id="path23"/>
    <path d="M2305 4761 c-7 -12 12 -24 25 -16 15 9 166 -14 271 -41 118 -31 121 -31 126 -18 5 14 -185 61 -298 74 -105 12 -116 12 -124 1z" id="path24"/>
    <path d="M1978 4743 c12 -2 30 -2 40 0 9 3 -1 5 -23 4 -22 0 -30 -2 -17 -4z" id="path25"/>
    <path d="M2920 4743 c1 -11 71 -45 79 -38 8 9 -41 45 -61 45 -10 0 -18 -3 -18 -7z" id="path26"/>
    <path d="M2305 4722 c-14 -14 -2 -22 33 -22 68 0 293 -42 357 -66 9 -4 15 -1 15 8 0 16 -58 31 -208 53 -59 9 -126 20 -149 24 -24 4 -45 6 -48 3z" id="path27"/>
    <path d="M2765 4710 c3 -5 13 -10 21 -10 8 0 14 -4 14 -9 0 -5 28 -19 63 -32 34 -12 77 -31 95 -41 40 -22 59 -24 43 -4 -6 7 -44 27 -83 45 -40 17 -86 38 -101 46 -33 17 -61 20 -52 5z" id="path28"/>
    <path d="M2900 4710 c0 -8 25 -27 55 -43 35 -17 52 -22 49 -13 -3 7 -24 22 -47 32 -23 10 -45 23 -49 29 -5 6 -8 4 -8 -5z" id="path29"/>
    <path d="M1610 4683 c-75 -35 -181 -95 -176 -100 3 -3 27 7 53 23 26 15 77 43 113 60 66 33 74 47 10 17z" id="path30"/>
    <path d="M3030 4685 c33 -19 46 -19 30 0 -7 8 -22 15 -34 15 -20 -1 -20 -2 4 -15z" id="path31"/>
    <path d="M2294 4669 c-10 -4 -14 -8 -9 -9 6 -1 37 -3 70 -6 153 -14 400 -80 502 -135 60 -32 63 -33 63 -18 0 19 -182 97 -285 123 -85 21 -136 29 -301 50 -11 1 -29 -1 -40 -5z" id="path32"/>
    <path d="M3600 4655 c0 -2 27 -33 61 -67 34 -35 85 -92 113 -128 60 -75 180 -250 170 -250 -3 0 6 -14 20 -31 14 -17 29 -41 32 -55 3 -13 10 -21 15 -18 5 3 9 0 9 -7 0 -6 18 -47 40 -91 22 -44 40 -89 40 -99 0 -11 4 -19 8 -19 8 0 37 -87 31 -93 -2 -2 1 -10 8 -18 6 -8 21 -57 33 -109 12 -52 26 -113 32 -135 18 -72 26 -149 15 -162 -9 -13 -8 -14 16 -17 9 -1 12 -50 11 -211 0 -197 -9 -280 -41 -412 -4 -16 -1 -23 10 -23 18 0 22 13 44 170 24 174 22 444 -6 601 -59 339 -185 634 -376 887 -81 108 -194 232 -211 232 -5 0 -20 14 -32 30 -20 26 -42 40 -42 25z" id="path33"/>
    <path d="M3560 4627 c0 -8 11 -19 25 -25 29 -14 33 -2 7 21 -22 20 -32 21 -32 4z" id="path34"/>
    <path d="M1568 4607 c-21 -11 -36 -22 -35 -24 5 -4 87 36 87 42 0 9 -14 4 -52 -18z" id="path35"/>
    <path d="M2340 4621 c0 -4 41 -14 90 -20 82 -10 298 -68 341 -92 24 -12 42 -12 34 2 -15 23 -218 84 -345 104 -111 17 -120 18 -120 6z" id="path36"/>
    <path d="M1600 4572 c-73 -37 -178 -100 -184 -111 -7 -11 67 28 128 67 27 17 53 29 57 26 5 -3 9 0 9 5 0 6 6 11 13 11 14 1 55 30 41 30 -5 0 -34 -13 -64 -28z" id="path37"/>
    <path d="M2297 4574 c3 -8 11 -13 19 -10 39 15 327 -48 433 -95 24 -10 47 -17 50 -13 27 26 -273 113 -441 127 -57 5 -66 4 -61 -9z" id="path38"/>
    <path d="M3620 4585 c0 -6 16 -28 35 -50 99 -114 255 -331 255 -355 0 -15 22 -8 28 8 2 7 -3 12 -12 12 -9 0 -16 6 -16 13 0 8 -14 33 -31 56 -17 24 -38 55 -47 70 -49 81 -212 270 -212 246z" id="path39"/>
    <path d="M1301 4559 c-13 -11 -22 -21 -20 -24 3 -2 18 7 34 20 17 13 26 24 20 24 -5 0 -21 -9 -34 -20z" id="path40"/>
    <path d="M3500 4571 c0 -5 11 -16 25 -25 29 -19 34 -7 7 17 -21 19 -32 22 -32 8z" id="path41"/>
    <path d="M2287 4544 c-3 -3 0 -15 6 -25 10 -16 9 -21 -2 -29 -12 -7 -12 -12 -3 -23 15 -17 10 -56 -7 -67 -11 -6 -11 -8 0 -12 7 -2 9 -10 5 -16 -4 -8 -35 -12 -81 -12 -40 0 -106 -6 -147 -14 -86 -17 -242 -65 -235 -73 5 -4 97 19 197 50 19 6 46 12 60 12 14 1 66 5 116 9 l92 8 0 -79 c0 -43 2 -87 4 -98 3 -18 -4 -21 -75 -26 -103 -9 -111 -20 -11 -16 68 2 79 0 82 -15 3 -16 -5 -18 -59 -18 -34 0 -59 -3 -56 -6 3 -4 29 -6 57 -5 44 0 50 -2 50 -19 0 -11 -6 -20 -12 -21 -24 -1 35 -19 111 -35 42 -8 95 -22 119 -30 55 -18 68 -18 53 0 -11 13 -118 42 -205 54 -27 4 -48 12 -47 17 4 20 117 2 250 -40 18 -6 23 -5 19 5 -5 17 -114 49 -197 58 -41 4 -66 12 -69 21 -6 18 109 7 193 -20 33 -10 72 -19 87 -19 15 0 30 -4 33 -10 3 -5 14 -10 23 -10 14 0 14 2 2 14 -17 15 -201 62 -284 72 -39 5 -56 11 -56 21 0 11 8 13 28 9 15 -3 47 -8 72 -11 42 -6 126 -30 214 -61 39 -14 58 -11 40 5 -9 8 -90 37 -164 59 -19 5 -66 16 -105 23 -38 7 -74 16 -79 21 -42 36 150 1 282 -51 58 -23 72 -25 72 -12 0 24 -230 91 -314 91 -40 0 -51 12 -36 39 7 13 7 22 0 26 -43 27 51 24 165 -5 39 -10 74 -14 79 -10 5 5 -1 11 -15 14 -127 30 -160 36 -196 36 -33 0 -43 4 -43 16 0 14 9 15 66 9 36 -4 95 -15 130 -24 35 -10 66 -16 69 -13 11 11 4 20 -22 26 -84 18 -133 27 -178 32 -27 3 -54 10 -60 16 -16 17 132 1 205 -21 62 -19 84 -20 64 -2 -13 12 -128 38 -201 47 -64 7 -87 24 -34 24 37 0 169 -25 239 -45 39 -12 52 -20 48 -30 -5 -15 39 -45 67 -45 13 0 32 39 23 47 -1 2 -36 15 -77 29 -94 33 -231 64 -286 64 -33 0 -43 4 -43 16 0 14 9 15 63 9 106 -11 252 -51 371 -100 14 -6 17 -4 14 6 -10 30 -237 96 -390 114 -32 3 -58 11 -58 17 0 26 297 -28 398 -72 54 -24 87 -27 58 -5 -44 33 -243 86 -376 100 -36 3 -72 8 -81 11 -8 2 -18 1 -22 -2z m409 -205 c3 -5 1 -9 -5 -9 -17 0 -41 12 -41 20 0 10 38 1 46 -11z" id="path42"/>
    <path d="M2089 4535 c-3 -2 -24 -7 -47 -10 -47 -5 -171 -37 -216 -54 -56 -22 -15 -24 53 -2 82 26 146 38 259 51 46 4 86 11 90 14 3 3 -26 6 -65 6 -38 0 -72 -2 -74 -5z" id="path43"/>
    <path d="M3600 4533 c0 -3 27 -37 60 -74 61 -69 72 -89 45 -89 -8 0 -15 -4 -15 -9 0 -16 21 -24 33 -12 6 6 15 11 19 11 14 0 9 -22 -7 -34 -14 -10 -14 -13 0 -31 41 -52 104 -158 99 -166 -9 -15 -24 -10 -31 9 -9 24 -65 110 -99 153 -16 19 -38 52 -49 72 -11 20 -24 37 -30 38 -5 0 -35 29 -65 65 -30 35 -59 64 -65 64 -15 -1 -49 -29 -43 -35 3 -3 12 1 21 9 13 14 18 12 48 -18 19 -18 39 -40 44 -49 6 -8 40 -52 76 -98 78 -99 159 -216 159 -230 0 -6 3 -9 8 -7 48 24 62 32 62 40 0 4 -6 8 -14 8 -8 0 -17 9 -21 20 -3 11 -24 46 -46 79 -21 32 -39 64 -39 70 0 21 21 11 38 -19 27 -50 82 -124 82 -113 0 14 -45 94 -67 118 -10 11 -30 38 -44 60 -14 22 -52 70 -84 108 -54 61 -75 78 -75 60z" id="path44"/>
    <path d="M1278 4479 l-33 -31 38 27 c20 15 37 29 37 31 0 10 -12 2 -42 -27z" id="path45"/>
    <path d="M1600 4470 c-25 -16 -41 -30 -37 -30 10 0 97 50 97 56 0 10 -18 2 -60 -26z" id="path46"/>
    <path d="M3580 4494 c0 -8 71 -88 82 -92 18 -8 6 17 -28 56 -32 38 -54 52 -54 36z" id="path47"/>
    <path d="M1995 4464 c-98 -22 -192 -52 -168 -53 7 -1 32 5 55 13 60 19 176 45 218 48 26 2 30 5 15 9 -12 3 -66 -4 -120 -17z" id="path48"/>
    <path d="M2158 4483 c12 -2 32 -2 45 0 12 2 2 4 -23 4 -25 0 -35 -2 -22 -4z" id="path49"/>
    <path d="M2874 4465 c11 -8 25 -15 30 -15 6 0 2 7 -8 15 -11 8 -25 15 -30 15 -6 0 -2 -7 8 -15z" id="path50"/>
    <path d="M3400 4474 c0 -3 33 -40 74 -82 41 -42 94 -102 117 -132 24 -30 46 -57 50 -60 3 -3 16 -23 28 -45 24 -44 54 -97 59 -105 2 -3 10 3 17 14 8 10 18 15 23 12 6 -3 12 1 16 9 3 8 1 15 -5 15 -5 0 -13 10 -18 23 -11 29 -130 195 -184 258 -27 31 -45 45 -51 39 -7 -7 2 -23 25 -48 41 -42 119 -142 173 -221 27 -38 35 -56 27 -64 -6 -6 -12 -9 -14 -6 -2 2 -18 29 -37 59 -50 81 -125 175 -209 263 -67 69 -91 88 -91 71z" id="path51"/>
    <path d="M2835 4440 c10 -16 65 -42 65 -31 0 6 -13 17 -30 26 -34 18 -44 19 -35 5z" id="path52"/>
    <path d="M1658 4396 c-26 -19 -22 -26 7 -13 14 7 25 15 25 20 0 11 -13 8 -32 -7z" id="path53"/>
    <path d="M2100 4390 c-14 -4 13 -5 60 -2 47 2 87 6 89 8 8 7 -124 2 -149 -6z" id="path54"/>
    <path d="M2820 4395 c0 -6 57 -35 70 -35 22 0 8 17 -23 28 -36 13 -47 15 -47 7z" id="path55"/>
    <path d="M3330 4383 c0 -6 67 -86 122 -147 25 -28 34 -12 11 18 -79 100 -133 153 -133 129z" id="path56"/>
    <path d="M1110 4335 c-24 -25 -42 -45 -39 -45 3 0 25 20 49 45 24 25 42 45 39 45 -3 0 -25 -20 -49 -45z" id="path57"/>
    <path d="M1575 4349 c-27 -19 -28 -20 -5 -13 13 3 30 13 38 20 20 21 1 17 -33 -7z" id="path58"/>
    <path d="M2770 4363 c1 -11 102 -75 108 -69 11 12 -9 35 -47 55 -44 22 -61 26 -61 14z" id="path59"/>
    <path d="M1910 4350 c-11 -7 -5 -8 20 -4 43 8 51 14 19 14 -13 0 -31 -5 -39 -10z" id="path60"/>
    <path d="M1730 4328 c-52 -24 -55 -26 -48 -34 5 -4 54 18 97 44 2 1 2 4 0 6 -2 2 -24 -5 -49 -16z" id="path61"/>
    <path d="M1608 4316 c-40 -22 -50 -37 -20 -29 20 5 82 53 67 52 -5 -1 -27 -11 -47 -23z" id="path62"/>
    <path d="M2750 4331 c0 -13 28 -33 41 -29 8 3 6 9 -5 21 -19 18 -36 22 -36 8z" id="path63"/>
    <path d="M3250 4324 c0 -3 38 -48 85 -99 47 -51 85 -95 85 -99 0 -3 25 -42 55 -86 31 -45 53 -85 50 -89 -2 -5 2 -14 10 -21 12 -10 15 -10 15 2 0 7 16 22 36 33 19 10 46 28 59 39 l24 21 -29 42 c-16 24 -36 55 -44 70 -8 16 -24 39 -36 53 -12 14 -28 37 -36 53 -8 15 -19 27 -24 27 -19 0 -10 -37 15 -60 14 -13 44 -53 67 -89 24 -36 46 -67 50 -69 11 -5 10 -32 0 -32 -5 0 -29 33 -55 73 -52 83 -87 120 -87 94 0 -9 6 -20 13 -24 12 -8 107 -148 107 -158 0 -3 -6 -5 -13 -5 -7 0 -33 30 -57 68 -73 112 -92 134 -104 122 -8 -8 -8 -13 0 -18 6 -4 39 -47 74 -95 47 -68 59 -92 50 -100 -8 -9 -13 -8 -20 4 -16 27 -121 172 -154 211 -17 21 -49 60 -71 87 -35 43 -65 64 -65 45z" id="path64"/>
    <path d="M2616 4311 c17 -18 84 -50 84 -40 0 9 -24 23 -67 40 -20 7 -25 7 -17 0z" id="path65"/>
    <path d="M1731 4280 c-136 -64 -333 -221 -413 -328 -23 -32 -25 -32 -53 -18 -15 8 -32 21 -37 28 -9 14 -34 -11 -89 -91 -28 -41 -89 -154 -89 -166 0 -3 6 -5 13 -5 7 0 22 21 33 48 24 56 112 192 125 192 17 0 9 -18 -46 -101 -30 -46 -55 -87 -55 -92 0 -4 -12 -33 -26 -63 -14 -31 -23 -58 -20 -61 8 -8 6 -11 50 81 43 92 121 216 136 216 17 0 11 -26 -10 -45 -11 -10 -20 -27 -20 -37 0 -10 -7 -33 -16 -49 -8 -17 -13 -33 -11 -35 3 -3 20 26 40 63 19 37 40 69 46 71 18 6 13 -16 -14 -58 -27 -44 -30 -50 -16 -50 6 0 20 18 32 40 13 22 29 40 36 40 18 0 17 -6 -12 -48 -27 -39 -31 -52 -16 -52 6 0 20 18 32 40 13 22 26 40 31 40 14 0 9 -9 -37 -77 -25 -36 -45 -69 -45 -74 0 -17 19 -9 31 14 24 47 73 117 81 117 15 0 8 -20 -32 -81 -45 -69 -46 -72 -26 -88 21 -18 41 -4 82 55 21 30 40 54 44 54 19 0 17 -16 -7 -46 -33 -44 -17 -45 19 -2 18 22 28 28 28 17 0 -20 -55 -135 -70 -144 -26 -16 -84 -210 -96 -320 -11 -110 -10 -246 2 -256 8 -6 11 17 10 79 -1 228 43 426 114 507 9 11 25 42 35 68 10 27 24 51 32 54 7 3 13 14 13 25 0 15 -5 18 -20 13 -11 -4 -20 -2 -20 4 0 6 -7 11 -15 11 -8 0 -20 9 -27 20 -7 11 -18 20 -25 20 -7 0 -13 7 -13 15 0 8 -9 15 -20 15 -11 0 -23 7 -26 15 -4 8 -12 15 -20 15 -31 0 -9 31 99 139 61 63 102 109 90 102 -27 -14 -203 -189 -203 -202 0 -5 -10 -9 -21 -9 -21 0 -21 1 -4 28 23 35 163 170 235 225 30 23 89 60 130 81 144 75 178 106 51 46z m-312 -530 c-53 -68 -68 -84 -69 -72 0 23 73 123 83 113 6 -6 1 -21 -14 -41z" id="path66"/>
    <path d="M2745 4285 c31 -26 45 -31 45 -17 0 9 -53 42 -67 42 -4 -1 6 -12 22 -25z" id="path67"/>
    <path d="M1389 4217 c-86 -75 -162 -156 -182 -192 -5 -11 46 37 114 106 68 69 133 131 144 137 11 6 17 13 14 16 -3 4 -44 -27 -90 -67z" id="path68"/>
    <path d="M1606 4259 c-26 -17 -46 -33 -42 -36 3 -3 12 2 21 11 9 9 21 16 27 16 5 0 21 9 35 20 39 30 14 24 -41 -11z" id="path69"/>
    <path d="M3525 4279 c-4 -6 -1 -16 7 -22 33 -27 148 -191 148 -211 0 -8 7 -16 15 -20 24 -9 18 10 -27 82 -38 62 -127 182 -134 182 -1 0 -6 -5 -9 -11z" id="path70"/>
    <path d="M2333 4264 c0 -12 8 -15 34 -12 18 2 33 1 33 -2 0 -3 29 -11 64 -18 35 -6 71 -14 80 -18 11 -4 16 -1 16 10 0 9 -14 19 -37 25 -134 35 -190 40 -190 15z" id="path71"/>
    <path d="M2602 4260 c7 -11 18 -20 25 -20 6 0 18 -3 27 -6 34 -13 14 17 -20 31 -46 19 -47 19 -32 -5z" id="path72"/>
    <path d="M3180 4266 c0 -9 7 -16 16 -16 17 0 14 22 -4 28 -7 2 -12 -3 -12 -12z" id="path73"/>
    <path d="M1283 4181 c-39 -42 -88 -94 -107 -116 -32 -36 -37 -38 -47 -22 -5 9 -17 17 -25 17 -8 0 -25 10 -38 23 -29 27 -56 46 -79 54 -12 4 -16 12 -12 27 5 16 4 18 -4 6 -8 -12 -13 -12 -23 -2 -10 10 -10 17 -1 32 12 18 11 18 -17 2 -17 -9 -30 -20 -30 -23 0 -4 -20 -37 -45 -74 -53 -78 -95 -149 -95 -158 0 -15 21 -6 27 11 10 27 125 202 133 202 16 0 32 -30 25 -47 -7 -17 -8 -17 -14 0 -7 19 -10 15 -110 -141 -12 -20 -12 -25 0 -33 18 -11 39 -11 39 0 0 10 95 170 109 184 5 5 11 5 14 0 5 -8 -18 -48 -108 -188 -57 -87 -113 -222 -130 -315 -4 -19 -13 -48 -20 -65 -24 -59 -48 -251 -51 -410 -3 -140 -6 -160 -20 -164 -16 -3 -17 12 -11 185 3 104 9 199 13 212 4 16 2 22 -8 22 -18 0 -28 -113 -28 -312 0 -135 -1 -133 47 -120 22 7 23 11 27 177 5 212 26 332 96 550 33 104 54 148 64 137 5 -4 6 2 5 13 -2 11 6 36 17 55 12 19 23 40 25 46 12 32 96 154 106 154 19 0 16 -8 -21 -64 -18 -28 -49 -80 -68 -116 -19 -36 -48 -90 -65 -120 -29 -52 -49 -110 -39 -110 3 0 19 28 36 63 49 102 177 312 189 312 20 0 16 -12 -28 -81 -68 -105 -103 -174 -89 -174 7 0 23 22 35 48 28 59 110 186 123 190 20 7 9 -19 -33 -86 -82 -127 -106 -171 -96 -178 6 -3 11 -4 13 -3 1 2 15 29 31 59 48 92 107 180 122 180 19 0 18 -3 -36 -83 -72 -108 -108 -172 -116 -205 -8 -38 12 -53 21 -15 14 59 145 283 165 283 5 0 9 6 9 13 0 17 53 79 138 163 39 40 72 75 72 78 0 15 -20 -1 -87 -73z" id="path74"/>
    <path d="M1735 4233 c-76 -40 -127 -74 -122 -80 3 -3 19 4 35 16 17 12 34 21 39 21 12 1 120 70 108 70 -6 0 -33 -12 -60 -27z" id="path75"/>
    <path d="M3250 4254 c0 -4 26 -34 58 -68 60 -64 182 -229 182 -246 0 -26 -24 -2 -79 78 -70 102 -173 220 -179 203 -2 -6 23 -41 56 -78 66 -75 162 -207 162 -223 0 -24 -19 -5 -70 68 -69 100 -131 172 -148 172 -20 0 -13 -12 46 -74 28 -32 69 -83 90 -114 54 -80 55 -82 40 -82 -7 0 -25 20 -40 43 -41 65 -171 212 -176 198 -2 -6 23 -42 56 -79 72 -82 132 -160 132 -173 0 -20 -27 -7 -44 22 -10 16 -49 68 -88 115 -56 67 -74 82 -84 73 -11 -9 -18 -8 -29 1 -34 28 -11 -8 63 -99 43 -53 86 -109 96 -124 17 -28 17 -29 0 -42 -17 -12 -22 -8 -50 33 -47 69 -131 158 -140 149 -4 -4 15 -31 42 -60 69 -71 106 -124 102 -144 -2 -12 -30 16 -87 85 -46 56 -85 102 -87 102 -12 0 1 -25 36 -67 22 -26 56 -67 75 -90 19 -23 35 -46 35 -52 0 -20 -17 -12 -36 17 -41 63 -165 202 -180 202 -13 0 2 -25 44 -72 122 -135 145 -167 127 -174 -9 -4 -20 -2 -24 3 -35 56 -141 183 -152 183 -15 0 -11 -7 71 -109 44 -54 80 -102 80 -105 0 -3 -6 -6 -13 -6 -8 0 -30 24 -51 53 -70 99 -126 152 -126 117 0 -5 3 -10 8 -10 10 0 103 -114 128 -157 24 -43 40 -51 46 -25 3 10 20 26 39 35 40 21 65 36 98 59 13 10 27 15 32 12 5 -3 9 -1 9 4 0 6 19 20 43 31 71 37 87 48 80 54 -3 4 2 7 13 7 10 0 29 8 41 18 l22 17 -58 86 c-99 148 -211 272 -211 233z m48 -326 c29 -37 52 -70 52 -73 0 -3 -7 -5 -15 -5 -8 0 -21 14 -30 30 -9 17 -45 66 -80 110 -36 43 -65 83 -65 87 0 12 80 -74 138 -149z" id="path76"/>
    <path d="M883 4228 c-25 -29 -128 -187 -158 -245 -27 -50 -41 -103 -27 -103 5 0 17 19 26 43 16 43 133 240 159 267 12 13 30 60 23 60 -1 0 -12 -10 -23 -22z" id="path77"/>
    <path d="M2570 4246 c0 -6 172 -96 185 -96 2 0 2 7 -1 15 -4 8 -11 15 -17 15 -5 0 -43 16 -83 35 -71 34 -84 39 -84 31z" id="path78"/>
    <path d="M2740 4205 c7 -8 17 -15 22 -15 6 0 5 7 -2 15 -7 8 -17 15 -22 15 -6 0 -5 -7 2 -15z" id="path79"/>
    <path d="M3137 4178 c18 -18 36 -29 40 -25 9 9 -41 57 -59 57 -7 0 2 -14 19 -32z" id="path80"/>
    <path d="M1415 4112 c-68 -63 -94 -100 -30 -43 51 45 84 82 73 81 -2 -1 -21 -18 -43 -38z" id="path81"/>
    <path d="M2075 4134 c-75 -19 -126 -36 -123 -40 3 -2 30 3 62 11 31 8 66 15 76 15 11 0 20 4 20 8 0 9 -16 11 -35 6z" id="path82"/>
    <path d="M3070 4132 c0 -4 9 -13 20 -20 22 -13 27 -3 8 16 -14 14 -28 16 -28 4z" id="path83"/>
    <path d="M1828 4103 c-10 -2 -18 -9 -18 -14 0 -13 13 -11 36 6 19 14 14 17 -18 8z" id="path84"/>
    <path d="M3040 4104 c0 -11 45 -43 60 -43 9 0 4 9 -15 24 -29 24 -45 31 -45 19z" id="path85"/>
    <path d="M1861 4069 c-37 -15 -142 -81 -137 -87 3 -2 27 9 53 25 26 17 63 36 81 43 17 7 32 16 32 21 0 5 -1 9 -2 8 -2 0 -14 -5 -27 -10z" id="path86"/>
    <path d="M1990 4060 c-11 -8 -7 -9 15 -4 37 8 45 14 19 14 -10 0 -26 -5 -34 -10z" id="path87"/>
    <path d="M3146 4007 c22 -24 52 -59 67 -78 15 -19 27 -29 25 -22 -4 18 -110 143 -121 143 -5 0 8 -20 29 -43z" id="path88"/>
    <path d="M2185 4009 c-57 -4 -115 -13 -135 -23 -19 -9 -24 -13 -11 -10 68 17 259 29 226 14 -11 -5 -40 -9 -65 -9 -58 -1 -213 -37 -266 -62 -74 -34 -178 -108 -245 -174 -37 -36 -72 -65 -79 -65 -6 0 -8 5 -5 10 3 6 2 10 -3 10 -5 0 -29 -25 -53 -56 -24 -31 -45 -52 -47 -46 -4 13 47 92 59 92 5 0 9 7 9 15 0 8 -7 15 -15 15 -8 0 -15 -5 -15 -10 0 -6 -16 -35 -35 -65 -26 -42 -31 -56 -21 -62 7 -4 15 -15 18 -23 3 -10 18 5 43 43 36 54 55 70 55 46 0 -6 -14 -31 -32 -56 -17 -26 -31 -54 -31 -62 1 -9 -5 -30 -13 -48 -8 -17 -17 -46 -19 -65 -5 -27 -2 -25 15 17 31 75 52 119 59 125 3 3 23 31 45 62 76 114 210 220 346 275 157 63 363 70 515 18 208 -72 407 -238 483 -405 58 -127 66 -168 67 -320 0 -80 -3 -165 -8 -188 -6 -33 -5 -43 5 -40 18 6 27 57 35 196 3 67 10 122 15 122 18 0 8 -206 -14 -299 -2 -8 2 -15 8 -18 24 -8 42 187 28 305 -6 45 -9 50 -19 35 -11 -15 -15 -11 -29 37 -9 29 -16 61 -16 70 0 8 -18 51 -40 95 -22 43 -38 81 -35 83 2 3 10 -7 16 -21 6 -14 18 -28 26 -31 11 -4 9 4 -6 28 -12 18 -21 39 -21 45 0 7 -5 17 -10 24 -6 7 -33 42 -61 80 -28 37 -55 67 -60 67 -23 0 -4 -39 46 -91 89 -93 63 -91 -32 2 -49 47 -106 99 -128 116 -96 73 -229 129 -367 154 -38 7 -68 16 -68 21 0 4 2 8 4 8 20 0 159 -33 189 -45 47 -19 76 -20 59 -3 -15 15 -132 47 -197 55 -27 3 -54 8 -60 12 -5 4 -55 4 -110 0z" id="path89"/>
    <path d="M1824 4000 c-12 -5 -25 -14 -29 -20 -4 -7 7 -4 24 4 17 9 31 19 31 21 0 6 1 6 -26 -5z" id="path90"/>
    <path d="M1160 3985 c0 -8 -16 -36 -36 -62 -43 -56 -97 -160 -91 -176 2 -7 18 16 35 50 38 75 103 163 120 163 6 0 12 9 12 20 0 13 -7 20 -20 20 -11 0 -20 -7 -20 -15z" id="path91"/>
    <path d="M509 3932 c-27 -59 -41 -110 -36 -129 3 -15 5 -15 9 -3 13 40 47 137 53 153 14 34 -10 15 -26 -21z" id="path92"/>
    <path d="M1610 3896 c-81 -77 -95 -100 -20 -32 36 33 69 63 74 68 5 4 8 10 5 12 -3 3 -29 -19 -59 -48z" id="path93"/>
    <path d="M532 3889 c-23 -52 -33 -89 -23 -89 9 0 53 121 47 128 -3 2 -14 -15 -24 -39z" id="path94"/>
    <path d="M739 3904 c-32 -84 -43 -115 -61 -174 -32 -105 -68 -253 -68 -279 0 -49 20 -5 34 75 16 85 29 133 84 292 19 56 32 105 29 109 -4 3 -11 -7 -18 -23z" id="path95"/>
    <path d="M1844 3905 c-24 -18 -7 -19 26 0 16 9 19 14 9 15 -8 0 -24 -7 -35 -15z" id="path96"/>
    <path d="M577 3903 c-4 -3 -7 -18 -7 -32 1 -25 1 -25 15 -7 23 30 15 63 -8 39z" id="path97"/>
    <path d="M1541 3894 c-7 -8 -11 -17 -9 -20 3 -2 13 5 23 16 10 11 14 20 9 20 -5 -1 -15 -8 -23 -16z" id="path98"/>
    <path d="M2150 3889 c-72 -12 -174 -46 -230 -77 -190 -105 -336 -296 -375 -494 -71 -361 100 -684 440 -829 155 -66 367 -69 526 -8 296 114 476 377 473 689 -2 204 -66 361 -208 508 -109 113 -238 180 -406 208 -94 15 -138 16 -220 3z m226 -80 c408 -74 643 -518 474 -896 -182 -404 -708 -511 -1028 -209 -120 114 -182 233 -202 388 -54 430 330 795 756 717z m-676 -1030 c0 -4 20 -28 45 -54 25 -26 43 -50 40 -54 -4 -3 -12 2 -19 11 -7 10 -16 15 -19 11 -4 -3 -7 -2 -7 4 0 6 -16 28 -35 49 -19 22 -35 46 -35 55 0 8 -3 19 -7 25 -5 5 2 -2 14 -16 13 -14 23 -28 23 -31z m117 -135 c-9 -9 -28 6 -21 18 4 6 10 6 17 -1 6 -6 8 -13 4 -17z m85 -49 c69 -40 73 -43 66 -50 -6 -7 -118 60 -118 70 0 9 8 6 52 -20z m708 -15 c0 -6 -12 -16 -27 -23 -16 -6 -30 -14 -33 -18 -4 -5 -67 -29 -76 -29 -2 0 -4 5 -4 10 0 6 9 10 19 10 23 0 83 30 94 48 10 15 27 16 27 2z m-494 -70 c21 0 17 -16 -5 -17 -11 -1 -26 6 -33 15 -11 14 -11 15 5 9 10 -4 25 -7 33 -7z m324 -1 c13 -9 13 -10 0 -8 -8 1 -23 -1 -33 -6 -10 -4 -21 -5 -24 -1 -4 3 1 6 10 6 10 0 17 5 17 10 0 13 11 13 30 -1z m-170 -19 c0 -12 -13 -19 -23 -13 -6 4 -33 5 -60 4 -30 -2 -47 1 -43 7 7 11 126 13 126 2z" id="path99"/>
    <path d="M1776 3429 c-10 -31 -26 -109 -26 -123 0 -9 7 -16 15 -16 10 0 15 10 15 31 0 39 23 34 30 -7 3 -16 12 -30 21 -32 12 -2 18 13 28 64 6 36 10 69 7 71 -11 11 -26 -10 -26 -38 0 -41 -24 -33 -28 9 -4 35 -29 64 -36 41z" id="path100"/>
    <path d="M1895 3397 c-2 -7 -9 -36 -15 -66 -8 -43 -8 -56 2 -63 22 -13 58 -9 58 7 0 8 -9 15 -20 15 -11 0 -20 7 -20 15 0 8 9 15 20 15 23 0 27 15 5 24 -24 9 -17 26 11 26 33 0 27 21 -10 31 -18 5 -28 4 -31 -4z" id="path101"/>
    <path d="M1976 3382 c-3 -5 -8 -31 -11 -58 -6 -40 -4 -54 10 -67 35 -35 64 -12 81 65 11 47 5 66 -16 53 -5 -3 -10 -20 -10 -36 0 -37 -17 -72 -31 -63 -6 3 -8 27 -3 60 4 35 3 54 -4 54 -6 0 -13 -4 -16 -8z" id="path102"/>
    <path d="M2086 3358 c-2 -7 -7 -29 -10 -48 -3 -19 -8 -45 -12 -57 -5 -17 -2 -23 10 -23 9 0 16 8 16 20 0 11 5 20 10 20 6 0 10 -9 10 -20 0 -11 7 -23 15 -27 23 -8 27 1 14 31 -10 22 -9 29 4 44 10 10 17 23 17 29 0 25 -67 53 -74 31z m36 -50 c-15 -15 -26 -4 -18 18 5 13 9 15 18 6 9 -9 9 -15 0 -24z" id="path103"/>
    <path d="M2174 3307 c-21 -43 -12 -84 20 -98 50 -23 88 29 69 94 -7 26 -14 33 -41 35 -28 3 -34 -1 -48 -31z m64 -26 c4 -22 -13 -51 -29 -51 -14 0 -20 39 -9 60 14 26 34 21 38 -9z" id="path104"/>
    <path d="M2288 3324 c-3 -2 -4 -26 -1 -52 10 -111 25 -120 66 -37 31 64 32 68 18 73 -6 2 -18 -13 -28 -32 -22 -47 -33 -46 -33 3 0 37 -10 57 -22 45z" id="path105"/>
    <path d="M2388 3240 c-12 -48 -12 -62 -2 -71 13 -11 17 -3 29 61 4 19 9 43 11 53 3 10 0 17 -9 17 -9 0 -19 -22 -29 -60z" id="path106"/>
    <path d="M2452 3278 c-18 -18 -15 -42 8 -63 23 -20 17 -39 -10 -30 -26 8 -35 -12 -11 -24 29 -16 39 -14 57 14 16 24 16 27 -5 49 -27 28 -27 39 0 31 17 -6 20 -3 17 12 -4 22 -38 29 -56 11z" id="path107"/>
    <path d="M2535 3258 c-2 -7 -6 -37 -10 -65 -4 -42 -3 -53 8 -53 10 0 16 16 20 48 2 26 8 55 12 65 5 12 2 17 -9 17 -9 0 -18 -6 -21 -12z" id="path108"/>
    <path d="M2585 3230 c-28 -55 -11 -110 35 -110 44 0 67 91 32 123 -27 25 -50 21 -67 -13z m53 -37 c-2 -27 -8 -39 -20 -41 -13 -3 -18 3 -18 21 0 36 10 57 27 57 10 0 13 -10 11 -37z" id="path109"/>
    <path d="M1813 3183 c-13 -73 -12 -79 12 -70 9 4 15 19 15 37 0 40 16 30 24 -15 9 -46 32 -45 40 3 4 20 9 50 12 66 5 21 3 27 -7 24 -8 -3 -17 -20 -20 -39 -6 -34 -8 -32 -25 26 -17 56 -39 42 -51 -32z" id="path110"/>
    <path d="M2696 3238 c-2 -7 -7 -31 -9 -53 -3 -22 -8 -48 -12 -57 -5 -12 -2 -18 8 -18 8 0 17 13 21 31 7 34 26 30 26 -5 0 -27 27 -54 39 -40 5 5 12 37 15 72 6 52 5 62 -9 62 -10 0 -15 -10 -15 -29 0 -17 -4 -33 -10 -36 -9 -5 -15 11 -22 59 -4 23 -26 33 -32 14z" id="path111"/>
    <path d="M1950 3200 c-23 -23 -28 -88 -8 -108 35 -35 88 2 88 61 0 60 -42 85 -80 47z m54 -25 c8 -21 -11 -65 -28 -65 -22 0 -28 30 -11 56 18 28 30 30 39 9z" id="path112"/>
    <path d="M2054 3153 c12 -83 17 -103 30 -103 9 0 40 51 74 123 2 4 -4 7 -12 7 -9 0 -24 -16 -33 -35 -20 -42 -33 -36 -33 16 0 29 -4 39 -16 39 -14 0 -15 -8 -10 -47z" id="path113"/>
    <path d="M2177 3173 c-8 -13 -31 -123 -26 -127 11 -11 63 -10 66 2 3 6 -2 12 -11 12 -24 0 -19 27 7 35 19 6 19 8 5 12 -10 2 -18 13 -18 24 0 16 5 19 20 14 14 -5 20 -2 20 9 0 9 -6 16 -14 16 -8 0 -21 3 -29 6 -8 3 -17 2 -20 -3z" id="path114"/>
    <path d="M2253 3113 c-7 -27 -15 -59 -19 -72 -11 -38 18 -21 32 20 8 24 14 30 18 19 4 -9 5 -26 4 -39 -5 -38 19 -35 32 3 18 55 33 56 25 2 -6 -39 -5 -46 9 -46 11 0 16 9 16 33 0 17 3 49 6 70 6 32 4 37 -13 37 -13 0 -25 -11 -33 -30 -17 -40 -28 -38 -32 7 -5 57 -30 55 -45 -4z" id="path115"/>
    <path d="M2399 3065 c-8 -36 -13 -68 -10 -70 2 -3 21 -5 42 -5 39 0 56 23 38 51 -5 8 -2 21 9 32 16 18 16 20 -7 38 -42 34 -56 25 -72 -46z m51 20 c0 -8 -4 -15 -10 -15 -5 0 -10 7 -10 15 0 8 5 15 10 15 6 0 10 -7 10 -15z m-2 -57 c-6 -18 -28 -21 -28 -4 0 9 7 16 16 16 9 0 14 -5 12 -12z" id="path116"/>
    <path d="M2501 3047 c-14 -80 -14 -77 4 -77 10 0 15 10 15 27 0 30 16 21 22 -12 2 -11 11 -21 20 -23 15 -3 16 0 6 28 -8 23 -7 35 1 43 20 20 13 53 -14 65 -14 7 -30 12 -34 12 -5 0 -14 -28 -20 -63z m49 13 c0 -19 -11 -26 -23 -14 -8 8 3 34 14 34 5 0 9 -9 9 -20z" id="path117"/>
    <path d="M2601 3024 c-7 -36 -11 -67 -9 -69 2 -1 18 -5 36 -8 23 -5 32 -3 32 7 0 8 -9 16 -20 19 -28 7 -25 27 5 27 30 0 33 20 5 27 -28 7 -25 23 5 23 16 0 25 6 25 15 0 8 -9 15 -19 15 -11 0 -26 3 -34 6 -11 4 -17 -10 -26 -62z" id="path118"/>
    <path d="M2846 3892 c-3 -6 -1 -14 5 -17 15 -10 25 3 12 16 -7 7 -13 7 -17 1z" id="path119"/>
    <path d="M2930 3883 c1 -14 24 -48 83 -120 61 -75 65 -83 42 -83 -8 0 -27 19 -44 43 -46 65 -108 133 -116 125 -4 -3 19 -37 50 -75 81 -97 85 -102 85 -113 0 -22 -27 -7 -48 28 -34 55 -89 118 -97 111 -3 -4 18 -39 49 -78 30 -39 58 -80 61 -91 7 -21 25 -28 25 -10 0 6 7 13 16 17 9 3 27 16 40 28 l24 23 -19 23 c-11 13 -44 53 -73 89 -64 79 -78 94 -78 83z" id="path120"/>
    <path d="M447 3866 c-4 -10 -7 -25 -6 -34 0 -11 4 -9 10 7 5 13 8 29 6 35 -2 5 -6 2 -10 -8z" id="path121"/>
    <path d="M1708 3809 c-38 -33 -68 -64 -68 -69 0 -4 24 14 53 42 28 27 64 56 80 64 29 16 34 24 15 24 -7 0 -43 -28 -80 -61z" id="path122"/>
    <path d="M666 3838 c-18 -25 -21 -48 -7 -48 10 0 34 60 27 67 -2 2 -11 -6 -20 -19z" id="path123"/>
    <path d="M1635 3798 l-60 -62 65 59 c36 32 67 60 69 62 2 2 0 3 -5 3 -5 0 -36 -28 -69 -62z" id="path124"/>
    <path d="M536 3833 c-14 -14 -4 -28 19 -29 14 -1 25 1 25 5 0 10 -37 30 -44 24z" id="path125"/>
    <path d="M1170 3763 c-56 -117 -60 -126 -60 -135 0 -4 5 -8 10 -8 6 0 10 6 10 14 0 8 6 27 14 43 43 84 69 144 64 148 -3 3 -20 -25 -38 -62z" id="path126"/>
    <path d="M3460 3803 c0 -16 50 -122 61 -128 16 -10 10 9 -21 70 -32 63 -40 74 -40 58z" id="path127"/>
    <path d="M3410 3794 c0 -5 54 -124 71 -156 5 -10 9 -23 9 -30 0 -7 6 -25 14 -39 7 -14 16 -47 20 -73 4 -25 12 -46 17 -46 6 0 8 8 5 18 -3 9 -10 36 -16 60 -26 101 -120 309 -120 266z" id="path128"/>
    <path d="M520 3772 c0 -10 -5 -23 -12 -30 -7 -7 -8 -12 -2 -12 6 0 16 11 22 25 15 32 15 35 2 35 -5 0 -10 -8 -10 -18z" id="path129"/>
    <path d="M625 3760 c-18 -20 -18 -21 1 -34 17 -13 20 -12 26 7 15 51 4 61 -27 27z" id="path130"/>
    <path d="M927 3754 c-4 -4 -7 -14 -7 -23 0 -11 3 -12 11 -4 6 6 10 16 7 23 -2 6 -7 8 -11 4z" id="path131"/>
    <path d="M547 3743 c-4 -3 1 -15 10 -26 17 -19 17 -20 -4 -15 -13 4 -25 2 -28 -2 -3 -5 8 -11 25 -15 30 -7 41 -30 18 -37 -7 -3 -8 -10 -4 -17 24 -38 39 52 16 94 -14 26 -22 30 -33 18z" id="path132"/>
    <path d="M1261 3715 c-24 -40 -25 -45 -12 -45 10 0 45 69 38 76 -2 3 -14 -11 -26 -31z" id="path133"/>
    <path d="M320 3730 c0 -5 9 -10 21 -10 18 0 20 -4 15 -26 -14 -53 -18 -84 -13 -84 3 0 11 25 17 56 10 46 9 58 -2 65 -18 12 -38 11 -38 -1z" id="path134"/>
    <path d="M1206 3685 c-22 -52 -19 -58 5 -12 11 22 18 41 15 44 -3 3 -12 -12 -20 -32z" id="path135"/>
    <path d="M380 3639 c-12 -39 -20 -75 -18 -81 2 -6 12 17 23 51 10 35 26 66 37 72 24 13 23 29 -2 29 -15 0 -23 -14 -40 -71z" id="path136"/>
    <path d="M1007 3704 c-12 -12 -8 -44 6 -44 6 0 22 -3 35 -6 13 -4 22 -2 22 5 0 6 -6 11 -14 11 -7 0 -20 9 -27 21 -8 11 -17 17 -22 13z" id="path137"/>
    <path d="M306 3662 c-3 -22 -9 -49 -13 -59 -6 -15 -4 -16 9 -5 19 15 31 69 19 89 -6 11 -10 4 -15 -25z" id="path138"/>
    <path d="M450 3684 c0 -8 -4 -13 -9 -10 -9 6 -28 -33 -41 -86 -4 -18 -11 -41 -15 -50 -4 -10 -3 -18 3 -18 6 0 13 17 17 38 12 72 65 134 86 101 7 -12 9 -11 9 2 0 18 -19 39 -37 39 -7 0 -13 -7 -13 -16z" id="path139"/>
    <path d="M617 3683 c-14 -51 -20 -79 -19 -85 1 -4 -5 -26 -13 -49 -10 -29 -12 -46 -5 -53 13 -13 14 -12 32 84 9 47 19 93 23 103 4 9 3 17 -3 17 -6 0 -13 -8 -15 -17z" id="path140"/>
    <path d="M935 3653 c-4 -12 -17 -24 -30 -27 -23 -6 -61 -53 -51 -63 3 -4 14 1 24 10 10 10 22 14 25 11 4 -4 10 2 13 12 4 10 14 27 22 36 8 9 12 23 9 30 -4 9 -8 6 -12 -9z" id="path141"/>
    <path d="M1261 3642 c-7 -13 -11 -28 -8 -35 2 -7 9 -2 16 11 7 13 11 28 8 35 -2 7 -9 2 -16 -11z" id="path142"/>
    <path d="M3541 3608 c10 -29 27 -82 38 -118 13 -42 20 -56 20 -38 1 14 -11 59 -25 100 -14 40 -28 81 -31 91 -3 9 -9 17 -13 17 -4 0 1 -24 11 -52z" id="path143"/>
    <path d="M479 3628 c-1 -2 -3 -12 -4 -23 -2 -11 -6 -29 -10 -40 -7 -20 -6 -20 9 -1 15 18 23 66 11 66 -3 0 -6 -1 -6 -2z" id="path144"/>
    <path d="M950 3607 c0 -8 7 -21 16 -28 14 -11 15 -10 12 11 -3 26 -28 41 -28 17z" id="path145"/>
    <path d="M422 3548 c-6 -28 -10 -53 -8 -56 7 -7 24 31 31 71 11 57 -9 44 -23 -15z" id="path146"/>
    <path d="M1272 3576 c-7 -16 -8 -26 -1 -26 12 0 22 25 17 41 -2 6 -9 0 -16 -15z" id="path147"/>
    <path d="M1210 3579 c0 -6 25 -19 36 -19 2 0 4 6 4 13 0 7 -9 13 -20 13 -11 0 -20 -3 -20 -7z" id="path148"/>
    <path d="M1312 3573 c-18 -32 -16 -51 4 -31 9 8 14 24 12 34 -4 18 -5 17 -16 -3z" id="path149"/>
    <path d="M322 3560 c-5 -14 -15 -68 -22 -120 -6 -52 -16 -111 -20 -130 -15 -67 -11 68 5 160 18 100 18 100 6 100 -28 0 -55 -284 -49 -514 4 -144 11 -207 32 -309 69 -325 202 -611 401 -857 86 -106 145 -161 145 -134 0 3 -27 38 -61 77 -33 40 -91 118 -130 175 -64 96 -77 131 -43 118 17 -6 19 10 3 20 -6 3 -14 1 -18 -5 -5 -8 -12 -6 -22 6 -28 34 -65 98 -83 143 -10 25 -23 59 -31 75 -50 118 -66 159 -84 226 -11 42 -23 92 -26 110 -3 19 -10 48 -15 64 -8 25 -13 60 -21 140 -1 6 2 18 6 28 4 9 3 17 -3 17 -18 0 -2 295 24 458 25 148 27 204 6 152z" id="path150"/>
    <path d="M1115 3571 c-6 -11 9 -23 19 -14 9 9 7 23 -3 23 -6 0 -12 -4 -16 -9z" id="path151"/>
    <path d="M756 3482 c-25 -112 -48 -321 -44 -420 l3 -93 85 6 c47 3 99 7 115 10 17 2 73 7 125 10 52 3 104 7 115 10 11 2 27 4 36 4 13 1 16 18 17 111 1 98 12 199 28 253 3 10 0 17 -9 17 -20 0 -37 -120 -37 -261 0 -84 -3 -110 -12 -106 -21 7 -15 257 8 323 12 36 11 54 -4 54 -15 0 -32 -135 -32 -259 l0 -129 -32 3 -33 3 0 116 c0 75 -3 115 -10 113 -6 -2 -10 -49 -10 -118 0 -97 -2 -114 -16 -117 -21 -4 -29 35 -29 144 0 73 2 84 18 84 16 1 16 1 0 11 -10 5 -21 10 -25 9 -4 0 -6 -59 -6 -131 1 -101 -1 -129 -10 -120 -18 18 -12 237 8 349 10 51 15 96 12 99 -3 3 -9 -8 -12 -23 -3 -16 -11 -45 -16 -64 -6 -19 -13 -110 -16 -202 -4 -104 -9 -168 -16 -168 -6 0 -8 51 -5 150 3 83 2 150 -2 150 -11 0 -24 -202 -16 -256 5 -36 3 -44 -10 -44 -14 0 -15 19 -11 163 3 104 10 183 21 220 9 32 16 69 16 82 0 13 5 27 10 30 6 3 10 11 10 18 0 6 -7 2 -15 -9 -13 -17 -14 -17 -15 -1 0 9 -4 17 -9 17 -4 0 -9 -21 -9 -47 -1 -27 -7 -73 -13 -103 -16 -74 -17 -94 -18 -242 -1 -107 -3 -128 -16 -128 -30 0 -15 334 21 458 4 13 2 22 -4 22 -24 0 -55 -232 -50 -375 2 -79 0 -105 -9 -105 -28 0 -3 372 33 498 7 26 -12 31 -20 5 -19 -60 -37 -239 -39 -365 -1 -116 -4 -148 -15 -148 -24 0 -7 325 26 503 5 26 6 49 2 52 -23 14 -66 -353 -56 -482 5 -72 -2 -94 -22 -70 -19 23 0 314 29 452 22 103 22 105 10 105 -5 0 -16 -31 -25 -68z" id="path152"/>
    <path d="M994 3538 c-4 -7 -9 -21 -10 -32 -1 -12 -7 -43 -13 -71 -6 -27 -14 -62 -17 -77 -4 -16 -2 -28 2 -28 11 0 62 210 53 216 -4 2 -11 -1 -15 -8z" id="path153"/>
    <path d="M1150 3528 c0 -19 2 -20 10 -8 13 19 13 30 0 30 -5 0 -10 -10 -10 -22z" id="path154"/>
    <path d="M517 3453 c-9 -49 -20 -108 -23 -133 -10 -63 -11 -371 -2 -368 5 2 10 83 13 181 2 98 7 182 9 186 3 5 10 49 16 99 5 50 13 98 16 106 3 9 2 16 -3 16 -5 0 -17 -39 -26 -87z" id="path155"/>
    <path d="M1216 3532 c-2 -4 -7 -25 -11 -47 -6 -33 -5 -38 6 -27 7 7 14 28 16 47 2 34 -1 42 -11 27z" id="path156"/>
    <path d="M449 3526 c-1 -3 -2 -9 -3 -13 -1 -5 -7 -24 -13 -43 -18 -52 -33 -217 -35 -380 -2 -136 -1 -145 17 -149 17 -3 18 -1 6 13 -25 30 5 451 38 540 7 16 7 27 1 31 -6 4 -11 4 -11 1z" id="path157"/>
    <path d="M485 3518 c-5 -13 -21 -103 -35 -198 -9 -53 -12 -150 -11 -297 1 -51 5 -73 14 -73 9 0 11 22 6 92 -7 98 4 273 20 335 14 53 25 153 17 153 -4 0 -9 -6 -11 -12z" id="path158"/>
    <path d="M1027 3523 c-12 -11 -8 -23 8 -23 17 0 20 -32 6 -58 -16 -29 -25 -112 -12 -112 6 0 11 17 11 39 0 22 4 42 9 45 13 9 21 89 9 103 -12 14 -21 16 -31 6z" id="path159"/>
    <path d="M1259 3515 c-3 -22 -6 -31 -17 -59 -8 -18 -9 -33 -4 -38 6 -6 12 5 16 26 5 27 12 36 26 36 11 0 20 7 20 16 0 8 -5 12 -11 8 -6 -3 -15 0 -20 7 -5 8 -9 10 -10 4z" id="path160"/>
    <path d="M345 3473 c-4 -21 -9 -45 -11 -55 -3 -9 -1 -19 4 -22 5 -3 12 14 15 37 3 24 9 51 13 60 3 9 1 17 -4 17 -6 0 -14 -17 -17 -37z" id="path161"/>
    <path d="M1320 3481 c0 -20 17 -37 27 -28 7 8 -7 47 -18 47 -5 0 -9 -9 -9 -19z" id="path162"/>
    <path d="M1472 3479 c-7 -12 -11 -23 -8 -26 7 -7 36 23 36 36 0 18 -14 13 -28 -10z" id="path163"/>
    <path d="M3180 3462 c0 -14 32 -103 36 -100 4 5 -26 108 -32 108 -2 0 -4 -4 -4 -8z" id="path164"/>
    <path d="M1081 3450 c-1 -8 -4 -26 -7 -40 -5 -22 -4 -23 6 -7 6 10 9 28 7 40 -2 12 -5 15 -6 7z" id="path165"/>
    <path d="M376 3393 c-15 -82 -29 -234 -22 -240 11 -11 14 0 20 87 6 81 15 135 31 173 5 12 3 17 -8 17 -9 0 -17 -14 -21 -37z" id="path166"/>
    <path d="M1317 3424 c-4 -4 -7 -14 -7 -23 0 -11 3 -12 11 -4 6 6 10 16 7 23 -2 6 -7 8 -11 4z" id="path167"/>
    <path d="M541 3318 c-6 -57 -12 -162 -14 -234 l-2 -132 39 2 38 2 -1 140 c-1 76 3 177 9 223 9 80 8 102 -6 89 -13 -13 -34 -287 -28 -360 6 -67 4 -78 -9 -78 -12 0 -16 16 -19 78 -3 81 6 270 17 334 4 22 3 38 -3 38 -5 0 -14 -46 -21 -102z" id="path168"/>
    <path d="M1121 3343 c-19 -95 -27 -281 -12 -296 8 -8 11 11 11 73 0 47 7 128 15 180 17 112 17 110 7 110 -4 0 -14 -30 -21 -67z" id="path169"/>
    <path d="M1088 3345 c-9 -27 -13 -54 -10 -60 7 -11 33 85 28 100 -2 6 -10 -12 -18 -40z" id="path170"/>
    <path d="M1259 3387 c-11 -30 -28 -274 -23 -320 9 -65 20 -67 16 -4 -3 49 19 247 33 293 5 14 2 23 -9 27 -9 4 -16 5 -17 4z" id="path171"/>
    <path d="M1436 3379 c-17 -55 -31 -332 -19 -366 14 -38 20 -2 16 87 -4 60 -1 136 7 190 7 50 10 93 7 97 -4 3 -9 0 -11 -8z" id="path172"/>
    <path d="M1490 3372 c0 -7 -6 -12 -14 -12 -11 0 -16 -24 -21 -102 -8 -123 -3 -318 8 -311 4 2 7 -3 7 -12 0 -9 7 -30 16 -47 13 -25 14 -32 2 -39 -10 -7 -9 -9 4 -9 9 0 20 -10 24 -22 3 -13 13 -31 22 -40 21 -24 -2 -82 -30 -75 -11 3 -18 0 -18 -9 0 -8 4 -14 8 -14 4 0 16 -14 26 -31 20 -33 104 -132 118 -137 20 -9 5 27 -23 54 -41 38 -89 103 -89 121 0 23 19 14 35 -17 18 -35 123 -145 132 -137 3 3 -24 41 -61 83 -55 64 -79 104 -63 104 2 0 29 -31 61 -70 31 -38 64 -70 73 -70 10 0 0 17 -29 51 -99 116 -157 223 -185 341 -20 87 -23 291 -4 357 7 23 10 46 7 49 -3 3 -6 0 -6 -6z" id="path173"/>
    <path d="M4136 3372 c-3 -6 -1 -14 5 -17 15 -10 25 3 12 16 -7 7 -13 7 -17 1z" id="path174"/>
    <path d="M1292 3292 c-13 -86 -15 -246 -3 -277 5 -11 10 60 13 165 3 102 5 186 4 187 -2 2 -8 -32 -14 -75z" id="path175"/>
    <path d="M3894 3363 c-20 -4 -21 -9 -18 -136 1 -73 -2 -170 -7 -216 -10 -86 -7 -103 13 -83 9 9 13 74 15 215 1 178 4 202 18 205 15 3 16 -12 12 -160 -3 -89 -10 -185 -17 -212 -7 -34 -8 -52 -1 -59 6 -6 12 -9 15 -6 8 9 26 239 26 338 0 65 4 100 10 96 23 -14 4 -412 -25 -545 -3 -14 -2 -18 1 -10 4 8 10 17 14 20 16 12 34 191 35 363 l2 187 -23 0 c-12 0 -28 2 -36 4 -7 2 -22 1 -34 -1z" id="path176"/>
    <path d="M4010 3198 c-1 -95 -5 -202 -9 -238 -5 -36 -12 -89 -16 -117 -12 -84 10 -63 25 25 16 96 25 502 10 502 -6 0 -10 -63 -10 -172z" id="path177"/>
    <path d="M4054 3192 c-1 -97 -7 -213 -14 -257 -21 -141 -23 -171 -12 -160 14 14 40 180 48 312 6 112 -2 283 -14 283 -4 0 -8 -80 -8 -178z" id="path178"/>
    <path d="M4096 3348 c4 -13 6 -94 5 -182 -1 -133 1 -157 12 -147 22 18 26 3 20 -68 -4 -45 -2 -63 5 -56 5 6 13 64 17 130 3 66 3 116 -2 112 -4 -5 -8 -25 -8 -44 0 -20 -5 -38 -12 -40 -9 -3 -12 30 -13 129 -2 192 -1 188 -17 188 -10 0 -12 -6 -7 -22z" id="path179"/>
    <path d="M329 3358 c-12 -23 -21 -303 -11 -328 8 -20 10 -7 10 59 0 47 4 127 7 178 4 51 5 93 1 93 -3 0 -7 -1 -7 -2z" id="path180"/>
    <path d="M3784 3348 c-5 -7 -7 -65 -4 -128 3 -63 2 -140 -2 -170 -3 -30 -9 -82 -12 -115 -8 -99 -23 -177 -45 -249 -12 -37 -21 -75 -21 -84 0 -14 2 -14 14 -2 16 16 61 185 70 260 17 142 22 381 10 448 -6 30 -4 33 12 30 18 -3 19 -16 19 -206 0 -111 3 -202 6 -202 11 0 20 129 18 275 -1 138 -2 143 -22 149 -31 8 -33 8 -43 -6z" id="path181"/>
    <path d="M3590 3341 c-8 -5 -17 -8 -21 -5 -16 9 -19 -19 -22 -192 -2 -137 -6 -185 -17 -204 -15 -25 -15 -24 -21 30 -3 30 -6 49 -7 41 -1 -7 -8 -11 -17 -7 -8 3 -15 2 -15 -2 0 -10 -29 -181 -36 -212 -3 -16 -2 -21 4 -15 6 6 18 54 27 108 10 53 21 99 25 102 11 7 3 -98 -11 -158 -17 -73 -4 -66 16 9 12 44 21 62 28 55 7 -7 4 -25 -8 -57 -15 -39 -15 -48 -4 -55 22 -14 27 -11 21 16 -2 14 3 43 12 65 19 47 20 53 6 45 -19 -12 -10 41 10 58 11 9 20 28 20 41 0 13 3 38 7 56 4 24 3 31 -5 26 -9 -5 -12 19 -11 91 1 67 4 88 9 68 7 -28 8 -28 9 12 1 34 -2 41 -14 37 -8 -4 -15 -2 -15 4 0 9 40 25 47 18 10 -10 11 -150 2 -261 -11 -141 -31 -247 -48 -253 -21 -7 -11 -19 12 -15 22 4 25 13 41 134 11 78 18 186 17 270 -1 128 8 172 23 117 9 -35 -1 -316 -14 -383 -7 -33 -14 -72 -17 -86 -4 -19 -1 -26 12 -26 9 0 14 6 11 13 -3 7 2 46 11 86 11 50 16 129 17 250 1 153 3 177 16 173 8 -2 21 -1 27 3 7 4 -15 9 -50 10 -34 1 -69 -2 -77 -7z" id="path182"/>
    <path d="M3741 3340 c0 -3 -3 -90 -5 -195 -2 -104 -9 -216 -15 -248 -7 -33 -9 -72 -5 -90 l8 -32 7 40 c18 94 33 400 22 465 -6 36 -11 63 -12 60z" id="path183"/>
    <path d="M3380 3319 c-25 -9 -25 -10 -23 -111 1 -57 -4 -150 -12 -207 -12 -91 -12 -106 1 -119 8 -8 18 -11 22 -8 3 4 1 10 -5 14 -8 5 -9 21 -1 57 6 28 11 121 12 207 1 101 5 157 11 155 12 -4 13 -285 2 -362 -4 -28 -3 -45 1 -40 23 25 41 401 21 419 -2 2 -15 -1 -29 -5z" id="path184"/>
    <path d="M3506 3203 c0 -103 0 -108 -3 -28 -5 141 -18 138 -18 -5 0 -90 3 -120 12 -120 7 0 13 -5 13 -12 0 -9 3 -9 11 -1 7 7 10 58 7 149 -4 179 -23 193 -22 17z" id="path185"/>
    <path d="M4221 3183 c-1 -148 -14 -292 -31 -348 -15 -51 -22 -125 -12 -125 11 0 39 144 52 265 15 136 16 355 1 355 -5 0 -9 -66 -10 -147z" id="path186"/>
    <path d="M3175 3295 c7 -31 7 -176 -1 -234 -2 -18 -1 -38 3 -44 13 -22 22 31 22 143 0 86 -4 121 -15 140 l-15 25 6 -30z" id="path187"/>
    <path d="M3258 3314 c-4 -3 -2 -19 4 -36 11 -30 5 -231 -8 -308 -6 -33 -5 -34 11 -18 15 14 18 39 19 189 1 161 -4 195 -26 173z" id="path188"/>
    <path d="M3438 3190 c3 -108 6 -130 18 -130 10 0 13 6 10 18 -3 9 -6 64 -7 122 -2 93 -1 105 14 104 9 -1 17 2 17 7 0 5 -12 9 -27 9 l-28 0 3 -130z" id="path189"/>
    <path d="M1382 3293 c-4 -10 -9 -72 -11 -139 -2 -94 0 -122 11 -126 10 -4 13 23 13 138 0 79 -1 144 -2 144 -1 0 -6 -8 -11 -17z" id="path190"/>
    <path d="M3223 3137 c-1 -124 1 -165 8 -147 13 32 16 297 3 310 -5 5 -10 -56 -11 -163z" id="path191"/>
    <path d="M3310 3257 c6 -54 -2 -194 -15 -279 -4 -30 -4 -48 2 -48 13 0 32 124 34 225 3 128 0 155 -14 155 -10 0 -12 -13 -7 -53z" id="path192"/>
    <path d="M3700 3305 c-1 -5 -1 -66 0 -135 0 -69 -6 -170 -15 -224 -18 -117 -17 -113 -6 -100 26 25 51 356 33 429 -6 22 -11 36 -12 30z" id="path193"/>
    <path d="M3132 3189 c-1 -61 -9 -142 -18 -180 -18 -81 -14 -126 6 -59 7 25 17 50 22 56 13 17 15 271 3 283 -7 7 -11 -27 -13 -100z" id="path194"/>
    <path d="M4147 3287 c-3 -8 -1 -20 4 -28 6 -10 9 -7 9 14 0 29 -5 35 -13 14z" id="path195"/>
    <path d="M4189 3268 c-1 -2 -3 -41 -4 -88 -3 -123 -17 -265 -35 -359 -13 -68 -13 -78 0 -65 5 5 17 55 26 109 23 143 32 435 13 403z" id="path196"/>
    <path d="M353 3054 c7 -115 17 -119 17 -6 0 60 -4 92 -11 92 -7 0 -9 -27 -6 -86z" id="path197"/>
    <path d="M319 2998 c-6 -12 -4 -48 2 -48 5 0 9 11 9 25 0 21 -6 33 -11 23z" id="path198"/>
    <path d="M3425 2948 c-3 -24 -8 -59 -11 -78 -3 -30 -2 -29 9 10 21 71 27 110 18 110 -5 0 -12 -19 -16 -42z" id="path199"/>
    <path d="M1351 2950 c0 -37 47 -169 48 -134 1 11 -2 24 -6 28 -5 4 -15 38 -25 74 -13 53 -16 60 -17 32z" id="path200"/>
    <path d="M3210 2944 c0 -9 -14 -57 -30 -106 -17 -50 -28 -93 -26 -96 3 -3 10 6 15 19 5 13 16 41 25 62 17 41 33 137 22 137 -3 0 -6 -7 -6 -16z" id="path201"/>
    <path d="M2996 2888 c-10 -29 -28 -66 -39 -82 -20 -28 -20 -29 -2 -42 25 -18 45 -18 45 1 0 8 -7 15 -15 15 -19 0 -20 -5 15 80 33 81 33 80 22 80 -4 0 -16 -24 -26 -52z" id="path202"/>
    <path d="M3030 2893 c-11 -27 -24 -55 -28 -63 -5 -8 -7 -21 -4 -29 5 -14 44 64 56 112 10 43 -3 32 -24 -20z" id="path203"/>
    <path d="M995 2862 c6 -56 41 -161 81 -248 13 -28 24 -56 24 -62 0 -7 5 -12 10 -12 6 0 10 -7 10 -15 0 -8 4 -15 9 -15 5 0 -10 44 -34 98 -23 53 -50 122 -59 152 -9 30 -23 78 -31 105 l-15 50 5 -53z" id="path204"/>
    <path d="M4077 2904 c-4 -4 -7 -23 -6 -43 l1 -36 9 33 c11 36 9 58 -4 46z" id="path205"/>
    <path d="M3081 2890 c-1 -21 16 -46 26 -37 4 5 3 11 -3 15 -6 4 -14 14 -17 22 -5 13 -5 13 -6 0z" id="path206"/>
    <path d="M3153 2892 c-7 -5 -10 -18 -6 -32 7 -25 7 -25 14 5 9 33 8 37 -8 27z" id="path207"/>
    <path d="M3901 2863 c-17 -69 -20 -102 -12 -108 13 -7 22 23 15 51 -3 13 -2 30 3 37 16 20 23 46 13 52 -5 3 -13 -11 -19 -32z" id="path208"/>
    <path d="M3270 2875 c0 -8 -9 -15 -20 -15 -11 0 -20 -4 -20 -10 0 -5 7 -7 15 -4 8 4 15 1 15 -5 0 -6 5 -11 11 -11 6 0 9 7 6 15 -4 8 -2 17 3 20 13 8 13 25 0 25 -5 0 -10 -7 -10 -15z" id="path209"/>
    <path d="M3301 2859 c-6 -18 -11 -40 -11 -50 0 -9 -6 -19 -12 -22 -7 -2 -9 -8 -5 -13 13 -13 35 22 42 68 9 50 1 59 -14 17z" id="path210"/>
    <path d="M1056 2818 c8 -28 17 -54 20 -57 4 -3 4 3 1 14 -3 11 -8 35 -12 52 -4 18 -10 35 -14 38 -4 2 -2 -19 5 -47z" id="path211"/>
    <path d="M3856 2848 c-30 -149 -82 -321 -116 -388 -11 -21 -16 -40 -13 -44 4 -3 -3 -15 -14 -25 -11 -11 -42 -59 -68 -108 -49 -91 -65 -110 -76 -91 -4 6 20 53 53 106 40 64 56 98 49 105 -7 7 -13 4 -17 -9 -13 -35 -105 -184 -115 -184 -12 0 -12 27 1 35 6 3 28 39 51 78 22 40 44 79 48 87 31 54 62 135 59 153 -4 30 -22 24 -25 -8 -2 -33 -106 -239 -146 -289 -29 -38 -30 -39 -11 -53 10 -8 18 -21 16 -28 -2 -10 3 -13 13 -9 11 5 18 0 22 -14 3 -12 10 -18 19 -15 8 3 17 -2 20 -11 3 -9 12 -16 19 -16 7 0 15 -9 18 -20 3 -13 10 -18 21 -14 9 3 16 1 16 -5 0 -51 104 96 165 232 29 64 45 83 45 52 0 -21 -34 -93 -92 -194 -26 -46 -48 -88 -48 -93 0 -5 -7 -11 -15 -14 -22 -9 -18 -31 6 -37 12 -3 18 -10 15 -15 -3 -6 2 -8 14 -5 14 4 20 0 20 -11 0 -24 13 -19 27 10 10 21 10 24 -2 14 -8 -7 -19 -9 -25 -5 -15 9 -12 35 5 35 8 0 15 4 15 10 0 13 53 89 63 90 12 0 8 -25 -8 -46 -17 -23 -19 -34 -5 -34 5 0 21 23 34 50 13 28 20 50 16 50 -5 0 -12 -5 -16 -12 -5 -8 -11 -5 -20 7 -8 10 -15 17 -17 14 -2 -2 -21 -32 -42 -67 -41 -68 -50 -76 -65 -67 -5 3 6 26 25 51 19 25 35 52 35 59 0 7 4 15 9 17 11 3 101 186 101 203 0 7 -11 17 -25 23 -33 15 -35 15 -35 -2 0 -17 -97 -207 -135 -264 -27 -41 -45 -53 -45 -31 0 6 14 30 30 55 17 24 53 90 81 146 27 57 58 120 69 142 18 36 19 56 2 56 -4 0 -18 -30 -31 -66 -35 -98 -153 -314 -172 -314 -20 0 -16 20 10 56 36 48 114 195 107 201 -9 9 -26 -8 -26 -25 -1 -30 -108 -201 -126 -202 -26 0 -21 29 10 54 37 32 88 126 111 209 9 31 21 57 26 57 5 0 9 7 9 15 0 9 13 56 30 106 16 49 36 124 45 167 9 42 18 85 21 95 3 9 1 17 -5 17 -6 0 -13 -10 -15 -22z" id="path212"/>
    <path d="M3344 2829 c-3 -6 0 -18 8 -26 12 -12 16 -12 20 -1 7 17 -18 42 -28 27z" id="path213"/>
    <path d="M966 2800 c7 -43 37 -136 60 -187 43 -98 57 -124 60 -120 3 2 -2 17 -11 33 -8 16 -15 32 -15 36 0 4 -11 31 -24 60 -13 29 -30 76 -39 103 -9 28 -21 64 -27 80 -10 30 -10 30 -4 -5z" id="path214"/>
    <path d="M4055 2781 c-4 -25 -12 -41 -21 -41 -16 0 -18 -12 -4 -26 7 -7 4 -19 -9 -36 -19 -24 -19 -38 1 -38 4 0 8 6 8 13 0 7 11 37 25 65 27 56 29 70 16 91 -6 10 -11 1 -16 -28z" id="path215"/>
    <path d="M3676 2794 c-9 -24 -7 -56 3 -50 11 7 20 66 10 66 -4 0 -10 -7 -13 -16z" id="path216"/>
    <path d="M4099 2758 c-4 -79 -3 -98 4 -98 4 0 7 8 8 18 1 9 3 34 4 54 2 21 0 40 -6 43 -5 4 -10 -4 -10 -17z" id="path217"/>
    <path d="M3344 2754 c-3 -10 -12 -31 -20 -46 -16 -30 -17 -38 -6 -38 10 0 46 90 38 97 -3 3 -8 -3 -12 -13z" id="path218"/>
    <path d="M3002 2716 c-20 -43 -38 -63 -49 -52 -3 3 2 17 11 30 10 15 12 27 6 31 -6 3 -13 -1 -16 -9 -10 -26 -27 -18 -20 9 8 30 -10 34 -19 4 -11 -35 -143 -166 -215 -214 -72 -48 -192 -100 -280 -121 -30 -7 -97 -13 -147 -14 -55 0 -93 -4 -93 -10 0 -5 -12 -10 -27 -10 -26 0 -26 1 -7 15 18 14 18 14 -9 15 -17 0 -26 -4 -22 -10 23 -37 -267 67 -326 117 -16 14 -32 23 -34 21 -9 -9 41 -47 105 -80 118 -62 218 -94 319 -100 26 -2 46 -9 49 -17 6 -18 -109 -6 -182 18 -76 27 -78 27 -83 15 -5 -14 129 -51 215 -59 51 -4 62 -3 62 10 0 14 22 20 63 16 9 -1 17 3 17 8 0 6 -6 11 -12 12 -7 1 -2 4 12 9 17 5 29 3 37 -7 9 -12 22 -12 71 -3 107 19 298 109 288 135 -3 8 2 11 15 8 14 -4 43 18 111 86 60 61 95 88 101 82 7 -7 5 -16 -4 -28 -12 -14 -9 -14 13 2 15 11 28 25 28 32 0 6 4 13 8 15 12 5 52 65 52 77 0 25 -20 8 -38 -33z m-362 -280 c0 -12 -204 -86 -237 -85 -33 0 -30 2 32 19 39 10 97 30 130 44 59 25 75 30 75 22z" id="path219"/>
    <path d="M3050 2735 c-5 -13 -22 -43 -37 -67 -71 -110 -80 -129 -42 -84 36 40 109 154 109 168 0 18 -21 6 -30 -17z" id="path220"/>
    <path d="M3092 2728 c-8 -11 -57 -102 -70 -130 -2 -5 3 -8 12 -8 9 0 16 7 16 15 0 8 11 22 25 31 19 13 23 20 15 30 -9 9 -5 17 14 29 28 18 35 45 12 45 -7 0 -18 -6 -24 -12z" id="path221"/>
    <path d="M3877 2733 c-2 -5 -9 -35 -16 -68 -7 -33 -17 -69 -22 -80 -17 -40 -41 -126 -37 -130 2 -3 22 29 42 71 27 53 35 79 28 86 -8 8 -5 25 9 60 10 27 19 53 19 58 0 12 -17 13 -23 3z" id="path222"/>
    <path d="M3920 2731 c0 -5 -3 -16 -6 -25 -3 -9 -2 -16 4 -16 13 0 23 38 11 46 -5 3 -9 1 -9 -5z" id="path223"/>
    <path d="M4000 2716 c0 -8 5 -18 10 -21 6 -3 10 1 10 9 0 8 -4 18 -10 21 -5 3 -10 -1 -10 -9z" id="path224"/>
    <path d="M3480 2714 c0 -10 28 -34 39 -34 6 0 11 7 11 15 0 9 -6 12 -15 9 -8 -4 -15 -1 -15 5 0 6 -4 11 -10 11 -5 0 -10 -3 -10 -6z" id="path225"/>
    <path d="M3571 2696 c-16 -19 -5 -39 17 -32 20 7 50 -10 39 -21 -5 -4 -11 -2 -15 4 -5 7 -13 3 -24 -12 -17 -23 -17 -24 2 -30 26 -8 22 -23 -38 -135 -53 -101 -99 -170 -112 -170 -15 0 -12 8 14 43 33 45 106 181 106 198 -1 21 -25 -13 -71 -101 -47 -90 -72 -124 -88 -119 -6 2 3 23 24 53 45 63 126 221 118 230 -10 10 -23 7 -23 -5 0 -19 -89 -191 -115 -224 -18 -22 -27 -27 -35 -19 -9 9 -5 18 12 35 23 24 99 163 113 207 12 40 -12 23 -29 -20 -21 -55 -110 -201 -125 -206 -15 -5 -14 18 3 37 38 43 118 203 112 224 -3 13 0 17 11 13 22 -9 36 3 22 20 -18 22 -36 17 -44 -13 -14 -58 -119 -253 -136 -253 -14 0 -11 18 9 48 41 60 82 134 82 148 0 25 -16 7 -45 -48 -15 -29 -41 -73 -57 -97 l-29 -43 26 -24 c14 -13 28 -24 30 -24 3 0 8 0 11 0 3 0 -4 -17 -16 -37 l-22 -38 30 29 30 28 18 -26 c9 -15 23 -25 30 -22 8 3 14 1 14 -4 0 -5 8 -19 17 -30 21 -25 63 -27 63 -3 0 9 7 24 16 34 27 30 122 209 129 243 6 26 2 23 -20 -19 -98 -183 -144 -257 -156 -249 -15 9 -11 19 34 87 87 134 110 181 112 224 0 23 7 48 13 56 13 16 7 67 -8 67 -5 0 -15 2 -23 5 -7 3 -19 -1 -26 -9z" id="path226"/>
    <path d="M3190 2685 c0 -23 -71 -125 -86 -125 -19 0 -18 7 6 37 24 31 25 43 5 43 -8 0 -15 -5 -15 -10 0 -6 -12 -23 -26 -37 -22 -22 -24 -27 -11 -35 9 -5 23 -15 31 -23 17 -17 26 -19 26 -5 0 14 92 141 98 135 6 -6 -68 -128 -80 -133 -12 -5 -10 -42 2 -42 6 0 10 5 10 12 0 7 12 30 27 52 14 23 38 58 51 79 14 20 23 38 21 40 -55 31 -59 32 -59 12z" id="path227"/>
    <path d="M3959 2684 c-12 -14 -11 -16 5 -13 11 2 21 10 24 17 5 17 -13 15 -29 -4z" id="path228"/>
    <path d="M4136 2675 c-4 -16 -12 -43 -18 -58 -8 -20 -8 -31 1 -40 8 -8 11 -4 11 17 0 15 5 36 11 47 5 11 9 30 6 42 -3 19 -4 18 -11 -8z" id="path229"/>
    <path d="M1450 2680 c0 -5 -18 -19 -40 -31 -37 -21 -52 -39 -31 -39 4 0 25 -26 45 -57 41 -66 114 -149 122 -140 5 5 -20 38 -117 160 -28 34 -31 57 -9 57 5 0 19 -17 31 -37 13 -21 25 -40 28 -43 4 -3 23 -26 44 -52 36 -46 57 -59 57 -39 0 6 -16 27 -35 48 -45 48 -109 142 -103 149 11 10 37 -9 47 -35 14 -34 118 -147 127 -138 4 4 -19 37 -50 74 -83 98 -86 102 -86 112 0 5 -7 11 -15 15 -8 3 -15 1 -15 -4z" id="path230"/>
    <path d="M4206 2675 c-3 -9 -6 -29 -5 -43 1 -26 1 -26 15 7 9 21 12 37 6 43 -6 6 -12 3 -16 -7z" id="path231"/>
    <path d="M3261 2652 c-12 -17 -21 -33 -21 -36 0 -10 -63 -111 -74 -118 -6 -4 -7 -10 -3 -14 16 -16 -106 -146 -226 -240 -88 -70 -99 -80 -67 -64 28 15 90 58 105 75 6 6 24 21 40 34 24 18 105 106 156 169 13 17 29 15 29 -3 0 -8 9 -15 19 -15 11 0 23 -4 26 -10 10 -15 25 -12 25 6 0 8 14 35 30 60 18 24 24 41 16 38 -8 -3 -26 -23 -40 -45 -28 -41 -43 -48 -52 -24 -4 8 -12 15 -20 15 -20 0 -17 17 10 53 25 34 77 139 72 145 -2 2 -13 -10 -25 -26z" id="path232"/>
    <path d="M3412 2660 c-7 -11 -12 -25 -12 -32 0 -7 7 0 15 16 18 33 15 45 -3 16z" id="path233"/>
    <path d="M3914 2655 c22 -17 36 -19 36 -6 0 10 -24 21 -43 21 -7 0 -3 -7 7 -15z" id="path234"/>
    <path d="M4052 2658 c-16 -16 -15 -38 2 -38 20 0 29 17 19 35 -7 12 -12 12 -21 3z" id="path235"/>
    <path d="M1121 2648 c-1 -12 31 -89 35 -85 3 2 -4 24 -15 48 -11 24 -20 41 -20 37z" id="path236"/>
    <path d="M3353 2603 c-23 -35 -30 -59 -14 -49 10 7 44 76 39 81 -1 1 -13 -13 -25 -32z" id="path237"/>
    <path d="M3274 2613 c-3 -10 -15 -38 -27 -63 -12 -25 -22 -48 -24 -53 -1 -4 1 -3 4 3 2 5 9 10 14 10 6 0 7 -4 4 -10 -3 -5 -2 -10 4 -10 11 0 26 38 23 57 -2 7 4 26 13 42 18 35 18 41 5 41 -6 0 -13 -8 -16 -17z" id="path238"/>
    <path d="M3900 2603 c1 -27 1 -27 15 -9 14 19 12 36 -6 36 -5 0 -9 -12 -9 -27z" id="path239"/>
    <path d="M3943 2604 c-8 -20 8 -48 30 -52 11 -2 19 6 23 23 6 26 -5 51 -13 28 -3 -7 -9 -13 -14 -13 -6 0 -8 4 -4 9 3 5 1 12 -5 16 -6 3 -13 -1 -17 -11z" id="path240"/>
    <path d="M1330 2601 c0 -5 4 -11 8 -13 4 -1 20 -23 34 -48 14 -25 45 -66 67 -90 23 -25 41 -48 41 -51 0 -4 7 -9 15 -13 26 -10 17 10 -32 71 -57 69 -87 112 -96 136 -7 17 -37 24 -37 8z" id="path241"/>
    <path d="M1293 2587 c1 -7 -7 -12 -19 -11 -25 0 -26 -22 -4 -47 8 -9 26 -35 39 -58 32 -52 140 -170 141 -153 0 8 -24 42 -54 75 -64 73 -106 135 -106 153 0 25 19 15 36 -18 22 -42 132 -178 145 -178 15 0 10 18 -10 37 -30 28 -105 127 -126 167 -19 35 -47 57 -42 33z" id="path242"/>
    <path d="M2859 2539 c-31 -31 -83 -74 -117 -95 -103 -66 -100 -64 -77 -57 51 17 272 193 255 205 -3 1 -30 -22 -61 -53z" id="path243"/>
    <path d="M1195 2526 c-16 -14 -38 -32 -48 -41 -10 -9 -25 -14 -32 -11 -7 2 -21 -4 -31 -15 -9 -10 -21 -19 -27 -19 -5 0 -26 -13 -46 -28 -20 -16 -51 -34 -68 -41 -18 -8 -33 -17 -33 -22 0 -11 39 -80 56 -100 8 -8 14 -19 14 -23 0 -23 196 -253 207 -243 7 8 -17 40 -83 110 -55 58 -104 120 -104 131 0 3 -16 31 -34 62 -33 54 -37 74 -16 74 4 0 23 -29 40 -65 17 -36 36 -65 41 -65 18 0 8 31 -26 80 -39 55 -41 60 -22 60 6 0 30 -28 52 -61 62 -96 66 -101 134 -177 35 -40 70 -72 78 -72 9 0 -10 27 -42 63 -68 75 -195 242 -195 256 0 25 21 19 36 -11 30 -59 180 -245 206 -256 24 -11 0 28 -50 83 -52 55 -152 193 -152 209 0 3 7 6 15 6 8 0 15 -4 15 -9 0 -31 180 -251 206 -251 8 0 14 -4 14 -9 0 -12 29 -41 41 -41 5 0 9 7 9 15 0 8 -5 15 -10 15 -34 0 -260 265 -260 305 0 16 32 1 39 -18 23 -60 191 -252 199 -227 2 5 -21 34 -50 65 -60 65 -138 172 -138 192 0 25 15 12 44 -36 36 -61 221 -258 229 -244 3 5 -8 20 -26 33 -18 13 -37 31 -43 39 -7 9 -38 48 -71 86 -70 84 -108 143 -98 153 4 4 12 -1 19 -12 42 -70 163 -212 173 -202 3 3 -23 38 -57 77 -65 76 -116 147 -109 153 2 2 13 6 25 10 17 5 26 -3 51 -41 41 -63 139 -170 148 -161 4 3 -11 24 -32 45 -89 92 -123 138 -139 191 -5 18 -15 15 -49 -12z" id="path244"/>
    <path d="M3945 2522 c-11 -11 -4 -22 13 -22 29 0 32 -10 12 -39 -11 -14 -22 -48 -25 -76 l-5 -50 14 40 c8 22 21 54 30 70 9 17 16 37 16 45 0 16 -45 42 -55 32z" id="path245"/>
    <path d="M1840 2494 c13 -21 174 -91 230 -99 19 -3 -1 7 -45 23 -44 15 -106 43 -139 62 -44 25 -55 29 -46 14z" id="path246"/>
    <path d="M2819 2447 c-46 -35 -119 -81 -161 -103 -43 -21 -74 -40 -69 -42 22 -7 192 93 262 156 14 12 34 29 45 37 10 8 16 15 13 15 -3 0 -43 -28 -90 -63z" id="path247"/>
    <path d="M4020 2494 c0 -11 5 -14 16 -10 14 6 16 0 12 -41 -5 -47 -5 -47 8 -18 18 41 17 72 -2 79 -25 10 -34 7 -34 -10z" id="path248"/>
    <path d="M1241 2448 c54 -77 143 -178 157 -178 10 0 -3 19 -34 49 -27 26 -67 74 -89 104 -22 31 -44 57 -48 57 -5 0 2 -15 14 -32z" id="path249"/>
    <path d="M4011 2445 c-6 -16 -16 -39 -21 -50 -5 -11 -21 -54 -36 -95 -14 -41 -31 -81 -37 -88 -5 -7 -8 -15 -5 -18 9 -9 34 38 77 145 23 57 40 111 38 120 -3 11 -7 7 -16 -14z" id="path250"/>
    <path d="M4132 2434 c-12 -14 -20 -29 -18 -33 3 -4 -4 -26 -15 -50 -11 -24 -17 -46 -15 -48 10 -11 26 10 37 50 7 23 19 50 27 59 7 9 12 23 10 32 -2 12 -8 9 -26 -10z" id="path251"/>
    <path d="M827 2422 c3 -12 9 -25 14 -28 14 -8 11 10 -6 32 -13 18 -14 18 -8 -4z" id="path252"/>
    <path d="M3775 2429 c-4 -6 -5 -13 -2 -16 7 -7 27 6 27 18 0 12 -17 12 -25 -2z" id="path253"/>
    <path d="M2836 2399 c-21 -16 -32 -29 -24 -29 8 0 27 14 43 30 36 37 31 37 -19 -1z" id="path254"/>
    <path d="M3124 2356 c-70 -75 -129 -125 -232 -197 -59 -41 -62 -50 -9 -23 55 28 160 110 217 171 81 85 104 112 99 118 -3 3 -37 -29 -75 -69z" id="path255"/>
    <path d="M4062 2387 c-14 -40 -15 -55 -3 -41 9 9 26 74 19 74 -2 0 -9 -15 -16 -33z" id="path256"/>
    <path d="M2876 2374 c-15 -14 -26 -27 -23 -30 2 -3 18 6 33 20 16 13 27 27 24 29 -3 3 -18 -6 -34 -19z" id="path257"/>
    <path d="M1901 2374 c6 -8 18 -14 26 -14 20 0 8 16 -17 23 -17 4 -19 3 -9 -9z" id="path258"/>
    <path d="M2586 2355 c-25 -19 -9 -19 24 0 14 8 19 14 10 14 -8 0 -24 -6 -34 -14z" id="path259"/>
    <path d="M3124 2287 c-39 -41 -96 -93 -127 -116 -75 -55 -73 -64 3 -10 74 52 220 199 197 199 -1 0 -34 -33 -73 -73z" id="path260"/>
    <path d="M871 2326 c-9 -11 -9 -16 1 -23 8 -4 34 -41 58 -80 25 -40 48 -73 53 -73 4 0 12 -11 17 -25 10 -26 24 -32 36 -14 3 6 -10 27 -29 47 -42 45 -107 145 -107 167 0 19 -14 19 -29 1z" id="path261"/>
    <path d="M3912 2293 c-26 -51 -35 -83 -25 -83 11 0 57 109 50 116 -3 3 -14 -11 -25 -33z" id="path262"/>
    <path d="M830 2313 c0 -5 -20 -21 -45 -38 -24 -16 -45 -34 -45 -38 0 -5 4 -6 9 -3 4 3 36 -36 69 -87 72 -109 180 -239 193 -231 5 3 -26 46 -68 96 -75 91 -163 219 -163 238 0 26 27 5 50 -36 13 -26 29 -52 35 -58 5 -6 27 -36 48 -66 60 -87 124 -156 136 -145 6 7 -12 33 -54 78 -50 54 -167 213 -183 249 -2 5 6 8 17 8 12 0 21 -4 21 -9 0 -20 122 -191 136 -191 21 0 18 8 -23 55 -21 23 -56 74 -78 113 -36 64 -55 86 -55 65z" id="path263"/>
    <path d="M1863 2300 c-1 -12 4 -20 13 -20 8 0 12 5 9 10 -3 6 -1 10 4 10 6 0 11 5 11 10 0 20 -36 10 -37 -10z" id="path264"/>
    <path d="M1950 2312 c0 -16 119 -53 195 -59 39 -3 75 -8 80 -12 6 -3 42 -3 80 0 78 6 77 12 -1 9 -29 -1 -55 3 -58 8 -3 6 -30 10 -58 11 -45 1 -130 19 -215 46 -14 4 -23 3 -23 -3z" id="path265"/>
    <path d="M4007 2313 c-3 -5 -24 -51 -47 -103 -23 -52 -57 -118 -76 -147 -19 -28 -34 -56 -34 -62 0 -5 -7 -14 -16 -19 -13 -7 -14 -13 -4 -31 14 -27 6 -41 -64 -116 -98 -105 -132 -139 -168 -165 -21 -15 -34 -30 -31 -34 3 -3 2 -6 -4 -6 -5 0 -23 -12 -39 -28 -44 -41 -204 -156 -210 -149 -3 3 -16 -5 -29 -17 -29 -27 -197 -111 -306 -154 -109 -43 -194 -67 -354 -98 -128 -26 -159 -28 -370 -28 -182 -1 -251 3 -330 18 -98 18 -334 84 -372 104 -25 14 -56 -3 -33 -18 23 -15 256 -87 335 -104 308 -65 634 -53 950 35 498 138 923 465 1193 916 76 126 85 143 74 143 -5 0 -17 -16 -28 -35 -10 -19 -22 -35 -26 -35 -11 0 -11 1 12 48 21 43 27 87 10 77 -5 -3 -10 -13 -10 -21 0 -19 -82 -199 -123 -270 -17 -30 -37 -54 -44 -54 -18 0 -17 3 20 62 53 83 143 285 133 296 -2 2 -6 0 -9 -5z" id="path266"/>
    <path d="M2914 2279 c-49 -38 -49 -39 -38 -39 10 1 92 70 83 70 -3 0 -24 -14 -45 -31z" id="path267"/>
    <path d="M2638 2282 c-16 -9 -28 -20 -28 -25 0 -7 37 10 70 32 27 19 -12 13 -42 -7z" id="path268"/>
    <path d="M1810 2281 c0 -5 19 -15 43 -24 l42 -17 -25 20 c-28 21 -60 32 -60 21z" id="path269"/>
    <path d="M1906 2281 c-6 -8 46 -27 169 -61 17 -5 56 -11 88 -15 53 -6 73 -18 45 -27 -17 -6 -154 21 -220 43 -64 21 -78 23 -78 10 0 -15 117 -50 209 -62 47 -7 92 -17 100 -23 12 -9 13 -8 8 6 -6 18 7 33 38 41 15 4 13 5 -7 6 -16 0 -28 5 -28 9 0 4 -37 13 -82 19 -70 9 -145 29 -219 58 -10 3 -20 2 -23 -4z" id="path270"/>
    <path d="M3161 2205 c-41 -41 -70 -75 -65 -75 9 0 106 96 133 133 25 33 6 16 -68 -58z" id="path271"/>
    <path d="M3197 2179 c-54 -54 -93 -99 -87 -99 16 0 190 173 190 189 0 6 -1 11 -2 10 -2 0 -47 -45 -101 -100z" id="path272"/>
    <path d="M1386 2235 c6 -15 35 -35 50 -35 10 0 -17 30 -37 41 -15 7 -17 6 -13 -6z" id="path273"/>
    <path d="M1834 2236 c11 -9 27 -16 35 -16 21 0 2 16 -29 24 -24 7 -24 6 -6 -8z" id="path274"/>
    <path d="M2520 2235 c-19 -7 -28 -13 -20 -13 8 0 31 6 50 13 19 7 28 13 20 13 -8 0 -31 -6 -50 -13z" id="path275"/>
    <path d="M710 2230 c0 -5 -7 -10 -15 -10 -8 0 -15 -5 -15 -11 0 -6 -9 -9 -20 -6 -15 4 -20 0 -20 -14 0 -10 3 -19 8 -19 4 0 25 -34 46 -75 21 -41 45 -75 52 -75 20 0 17 14 -6 35 -11 10 -20 23 -20 29 0 6 -11 24 -25 40 -26 30 -32 60 -15 71 6 3 15 -6 20 -21 12 -31 112 -175 135 -194 25 -20 17 -1 -18 49 -89 123 -107 152 -107 171 0 11 5 20 10 20 6 0 10 5 10 10 0 6 -4 10 -10 10 -5 0 -10 -4 -10 -10z" id="path276"/>
    <path d="M742 2194 c3 -11 35 -66 72 -121 69 -104 220 -261 232 -241 4 6 -1 15 -11 20 -35 20 -166 174 -239 283 -55 81 -61 87 -54 59z" id="path277"/>
    <path d="M2320 2200 l-25 -8 25 0 c14 -1 43 3 65 7 l40 9 -40 0 c-22 0 -51 -4 -65 -8z" id="path278"/>
    <path d="M1870 2195 c0 -20 178 -73 272 -81 61 -6 89 -17 75 -30 -6 -6 -134 8 -209 23 -16 3 -28 1 -28 -5 0 -13 70 -30 158 -38 70 -7 71 -7 70 -35 -1 -20 -6 -29 -17 -29 -35 0 -149 22 -194 36 -27 9 -51 13 -54 10 -11 -11 6 -18 84 -37 78 -19 159 -24 201 -13 23 7 31 24 10 24 -9 0 -13 17 -13 52 l0 52 -98 17 c-54 10 -129 27 -167 38 -69 21 -90 25 -90 16z" id="path279"/>
    <path d="M2735 2170 c-33 -16 -53 -30 -45 -30 16 0 88 35 105 51 15 15 3 11 -60 -21z" id="path280"/>
    <path d="M605 2171 c-3 -5 -1 -12 5 -16 6 -4 22 -29 35 -56 14 -27 30 -49 35 -49 6 0 10 -5 10 -10 0 -26 195 -258 207 -246 7 7 -72 106 -84 106 -6 0 -32 30 -57 68 -25 37 -64 92 -85 122 -22 30 -40 63 -41 73 0 18 -15 23 -25 8z" id="path281"/>
    <path d="M3440 2148 l-23 -33 31 29 c34 31 37 36 24 36 -5 0 -19 -15 -32 -32z" id="path282"/>
    <path d="M1730 2162 c0 -8 44 -30 133 -67 70 -29 37 1 -42 38 -83 39 -91 42 -91 29z" id="path283"/>
    <path d="M1810 2160 c0 -5 5 -10 11 -10 6 0 34 -11 62 -25 33 -17 54 -22 60 -16 10 10 1 15 -87 47 -46 17 -46 17 -46 4z" id="path284"/>
    <path d="M2722 2118 c-45 -22 -81 -43 -78 -45 5 -5 128 50 158 71 38 27 7 17 -80 -26z" id="path285"/>
    <path d="M2634 2125 c-10 -8 -14 -15 -8 -15 5 0 19 7 30 15 10 8 14 15 8 15 -5 0 -19 -7 -30 -15z" id="path286"/>
    <path d="M3466 2101 l-30 -36 34 32 c19 18 32 34 29 36 -2 2 -17 -12 -33 -32z" id="path287"/>
    <path d="M2725 2074 c-49 -24 -84 -44 -78 -44 19 0 147 52 151 62 2 4 10 8 18 8 8 0 14 5 14 10 0 15 -6 13 -105 -36z" id="path288"/>
    <path d="M600 2104 c0 -39 240 -344 270 -344 7 0 -7 21 -29 48 -64 73 -167 202 -206 257 -19 27 -35 45 -35 39z" id="path289"/>
    <path d="M1790 2099 c0 -11 76 -48 100 -49 22 0 0 17 -52 39 -27 11 -48 16 -48 10z" id="path290"/>
    <path d="M3375 2076 c-16 -17 -52 -51 -78 -74 -27 -24 -46 -46 -44 -48 3 -3 40 29 83 70 43 41 76 77 74 79 -3 3 -18 -10 -35 -27z" id="path291"/>
    <path d="M3502 2075 c-25 -29 -29 -43 -6 -25 15 13 38 50 31 50 -2 0 -13 -11 -25 -25z" id="path292"/>
    <path d="M2480 2080 l-25 -8 25 0 c14 0 34 3 45 8 20 9 20 9 0 8 -11 0 -31 -4 -45 -8z" id="path293"/>
    <path d="M1692 2069 c2 -7 10 -15 17 -17 8 -3 12 1 9 9 -2 7 -10 15 -17 17 -8 3 -12 -1 -9 -9z" id="path294"/>
    <path d="M1950 2071 c0 -6 8 -11 18 -11 9 0 35 -6 57 -14 51 -17 155 -28 155 -15 0 5 -17 9 -37 9 -34 0 -105 15 -170 35 -15 5 -23 3 -23 -4z" id="path295"/>
    <path d="M2365 2060 l-50 -7 45 0 c25 -1 56 3 70 7 31 10 8 10 -65 0z" id="path296"/>
    <path d="M2777 2042 c-32 -16 -55 -31 -51 -34 6 -6 88 34 109 53 14 14 5 11 -58 -19z" id="path297"/>
    <path d="M2988 2054 c-38 -20 -36 -28 2 -9 17 9 30 18 30 20 0 7 -1 6 -32 -11z" id="path298"/>
    <path d="M1805 2041 c10 -17 65 -40 71 -30 3 5 -10 16 -30 24 -41 17 -49 19 -41 6z" id="path299"/>
    <path d="M2460 2035 c-30 -7 -88 -14 -127 -14 -48 -1 -73 -5 -73 -12 0 -20 236 7 280 32 21 12 -11 9 -80 -6z" id="path300"/>
    <path d="M3402 2029 c-19 -30 -11 -32 11 -3 10 13 14 24 10 24 -5 0 -14 -9 -21 -21z" id="path301"/>
    <path d="M1673 2033 c-7 -2 -13 -11 -13 -20 0 -10 6 -12 21 -8 14 5 25 2 30 -6 6 -11 11 -11 21 -1 19 19 -28 48 -59 35z" id="path302"/>
    <path d="M1785 2009 c-9 -13 -8 -13 33 -27 40 -14 42 2 3 23 -20 10 -32 12 -36 4z" id="path303"/>
    <path d="M2559 2016 c-13 -14 -177 -39 -256 -40 -51 0 -93 -4 -93 -8 0 -18 -216 8 -260 32 -25 13 -43 13 -38 -2 8 -24 288 -69 311 -49 7 5 49 11 94 12 84 2 239 30 271 48 15 9 15 10 -4 11 -11 0 -23 -2 -25 -4z" id="path304"/>
    <path d="M770 1999 c1 -13 54 -79 65 -79 2 0 9 10 16 21 8 16 8 20 -1 14 -7 -4 -26 6 -46 26 -21 20 -34 27 -34 18z" id="path305"/>
    <path d="M1590 2000 c0 -6 25 -21 56 -35 64 -28 64 -28 64 -15 0 10 -91 60 -110 60 -5 0 -10 -5 -10 -10z" id="path306"/>
    <path d="M3410 1975 c-13 -14 -21 -27 -18 -30 2 -3 17 9 33 25 16 17 24 30 19 30 -6 0 -21 -11 -34 -25z" id="path307"/>
    <path d="M1745 1980 c-3 -5 -5 -10 -3 -10 2 0 41 -14 88 -31 114 -41 200 -64 293 -79 42 -7 77 -17 77 -21 0 -31 -315 38 -423 93 -38 19 -55 19 -43 -1 20 -31 376 -128 439 -119 14 2 23 -3 25 -14 3 -14 -3 -16 -35 -12 -114 16 -254 48 -326 75 -45 17 -98 37 -117 44 -19 8 -57 25 -84 40 -27 14 -51 23 -55 19 -3 -4 -1 -8 4 -11 6 -2 26 -12 45 -23 136 -78 401 -159 523 -160 35 0 47 -4 47 -15 0 -18 -2 -18 -124 0 -98 15 -214 47 -313 86 -73 29 -90 17 -20 -14 91 -41 263 -86 361 -94 63 -6 91 -12 94 -22 12 -37 -275 15 -436 80 -79 31 -92 34 -92 20 0 -10 167 -73 253 -95 81 -21 205 -38 251 -34 35 3 39 6 42 33 2 17 6 45 9 63 4 19 1 39 -5 47 -8 10 -7 16 7 24 10 6 12 11 6 11 -8 0 -13 13 -13 33 l0 32 -75 2 c-40 1 -109 11 -151 23 -70 19 -98 20 -81 4 11 -11 108 -34 200 -46 58 -8 87 -17 87 -25 0 -7 -1 -13 -3 -13 -35 0 -248 48 -296 66 -158 61 -147 58 -156 44z" id="path308"/>
    <path d="M1105 1950 c10 -11 20 -18 23 -15 7 6 -18 35 -31 35 -5 0 -2 -9 8 -20z" id="path309"/>
    <path d="M3309 1943 c-14 -9 -32 -25 -38 -36 -12 -19 -12 -19 16 1 28 20 60 52 52 52 -2 0 -16 -8 -30 -17z" id="path310"/>
    <path d="M3216 1934 c-11 -7 -18 -16 -15 -18 2 -2 13 2 23 10 11 7 18 16 15 18 -2 2 -13 -2 -23 -10z" id="path311"/>
    <path d="M2930 1915 c-14 -8 -19 -14 -10 -14 8 0 24 6 34 14 25 19 9 19 -24 0z" id="path312"/>
    <path d="M1571 1916 c15 -13 102 -56 106 -52 6 6 -80 56 -97 56 -7 0 -11 -2 -9 -4z" id="path313"/>
    <path d="M2575 1905 l-30 -14 30 6 c17 3 37 9 45 14 27 15 -11 10 -45 -6z" id="path314"/>
    <path d="M842 1899 c2 -6 6 -9 10 -7 3 2 15 -6 27 -16 17 -15 21 -16 21 -4 0 8 -11 20 -25 26 -32 15 -38 15 -33 1z" id="path315"/>
    <path d="M923 1887 c4 -10 7 -23 7 -28 0 -5 7 -9 15 -9 21 0 19 14 -7 36 -20 18 -21 18 -15 1z" id="path316"/>
    <path d="M2490 1890 c-12 -8 -9 -10 13 -10 15 0 27 5 27 10 0 13 -20 13 -40 0z" id="path317"/>
    <path d="M2608 1870 c-36 -9 -104 -23 -150 -29 -170 -25 -190 -30 -88 -25 101 5 203 24 285 55 63 23 40 23 -47 -1z" id="path318"/>
    <path d="M1595 1855 c29 -24 62 -34 50 -16 -5 10 -63 41 -74 41 -3 0 8 -11 24 -25z" id="path319"/>
    <path d="M2413 1873 c9 -2 25 -2 35 0 9 3 1 5 -18 5 -19 0 -27 -2 -17 -5z" id="path320"/>
    <path d="M2990 1842 c-19 -9 -37 -19 -40 -22 -3 -3 -26 -16 -53 -29 -26 -13 -45 -26 -42 -29 3 -3 11 0 17 6 7 7 19 12 28 12 8 1 44 19 80 40 67 41 72 52 10 22z" id="path321"/>
    <path d="M1540 1832 c0 -10 45 -32 63 -32 17 1 -32 40 -49 40 -8 0 -14 -4 -14 -8z" id="path322"/>
    <path d="M3234 1825 c-10 -8 -14 -15 -8 -15 5 0 19 7 30 15 10 8 14 15 8 15 -5 0 -19 -7 -30 -15z" id="path323"/>
    <path d="M1650 1777 c0 -18 160 -79 279 -106 51 -12 131 -25 178 -28 64 -5 83 -9 81 -20 -4 -17 -4 -17 -98 -9 -66 5 -236 42 -280 60 -11 5 -19 -3 -27 -24 -9 -24 -9 -32 0 -35 54 -19 226 -56 287 -61 41 -3 86 -9 100 -13 15 -5 35 -2 50 6 15 7 19 13 10 13 -160 6 -418 58 -427 86 -2 7 41 0 107 -17 62 -16 154 -32 205 -37 l93 -8 4 33 4 32 -56 6 c-158 16 -377 72 -468 119 -38 19 -42 20 -42 3z" id="path324"/>
    <path d="M2965 1722 c-85 -44 -79 -41 -74 -47 5 -4 154 66 166 79 17 16 -29 0 -92 -32z" id="path325"/>
    <path d="M1450 1736 c0 -14 199 -112 250 -123 l25 -6 -26 21 c-14 12 -49 30 -78 41 -28 12 -74 32 -101 46 -46 23 -70 31 -70 21z" id="path326"/>
    <path d="M852 1719 c5 -16 48 -44 48 -31 0 5 -12 17 -26 27 -17 11 -25 13 -22 4z" id="path327"/>
    <path d="M1450 1691 c0 -6 15 -18 33 -27 17 -9 41 -24 52 -34 11 -10 31 -21 45 -24 l25 -7 -27 23 c-40 33 -128 81 -128 69z" id="path328"/>
    <path d="M2776 1685 c-11 -8 -15 -15 -10 -15 6 0 19 7 30 15 10 8 15 14 9 14 -5 0 -19 -6 -29 -14z" id="path329"/>
    <path d="M3007 1684 c-16 -9 -27 -17 -25 -20 5 -5 68 25 68 32 0 7 -15 3 -43 -12z" id="path330"/>
    <path d="M1441 1642 c30 -23 88 -47 95 -39 5 5 -98 57 -113 57 -3 0 5 -8 18 -18z" id="path331"/>
    <path d="M2915 1644 c-45 -16 -71 -36 -35 -27 28 7 99 42 85 42 -5 0 -28 -7 -50 -15z" id="path332"/>
    <path d="M3369 1630 c-13 -10 -19 -19 -13 -20 6 0 19 9 29 20 23 26 14 26 -16 0z" id="path333"/>
    <path d="M1370 1601 c0 -9 24 -21 43 -21 6 0 2 7 -9 15 -22 17 -34 19 -34 6z" id="path334"/>
    <path d="M1478 1580 c29 -17 58 -30 64 -28 14 5 -55 46 -90 54 -19 4 -11 -4 26 -26z" id="path335"/>
    <path d="M3320 1603 c0 -5 -27 -23 -60 -42 -33 -19 -58 -37 -55 -39 6 -6 125 69 125 79 0 5 -2 9 -5 9 -3 0 -5 -3 -5 -7z" id="path336"/>
    <path d="M1610 1595 c0 -5 56 -35 66 -35 4 0 -1 9 -11 20 -16 17 -55 28 -55 15z" id="path337"/>
    <path d="M1742 1589 c2 -7 18 -17 34 -20 16 -4 54 -15 84 -24 82 -23 208 -45 267 -45 28 0 54 -4 58 -10 6 -10 35 -3 35 9 0 4 -60 15 -133 24 -74 9 -174 29 -223 43 -49 14 -97 29 -108 32 -13 3 -17 1 -14 -9z" id="path338"/>
    <path d="M1590 1556 c0 -7 -7 -19 -15 -26 -27 -22 -27 -22 102 -75 120 -48 306 -88 473 -101 71 -5 54 12 -20 20 -132 15 -159 19 -235 37 -90 20 -163 45 -247 83 -64 29 -78 52 -25 42 l32 -6 -25 20 c-30 23 -40 25 -40 6z" id="path339"/>
    <path d="M2485 1560 c-8 -13 15 -13 35 0 12 8 11 10 -7 10 -12 0 -25 -4 -28 -10z" id="path340"/>
    <path d="M1386 1553 c-8 -9 14 -33 30 -33 8 0 14 4 14 10 0 12 -35 31 -44 23z" id="path341"/>
    <path d="M1710 1551 c0 -5 39 -21 88 -36 111 -34 97 -30 212 -54 67 -14 201 -21 195 -10 -4 5 -19 9 -35 9 -56 0 -257 40 -349 70 -102 33 -111 34 -111 21z" id="path342"/>
    <path d="M2624 1541 c5 -8 56 -3 56 5 0 2 -14 4 -31 4 -16 0 -28 -4 -25 -9z" id="path343"/>
    <path d="M1320 1530 c0 -5 9 -10 19 -10 11 0 21 -4 23 -8 5 -12 118 -73 118 -65 0 5 6 0 13 -9 17 -22 72 -37 65 -17 -3 8 -29 23 -59 34 -30 11 -79 35 -109 52 -59 35 -70 39 -70 23z" id="path344"/>
    <path d="M2907 1529 c8 -8 16 -8 30 0 16 9 14 10 -11 11 -22 0 -27 -3 -19 -11z" id="path345"/>
    <path d="M1445 1513 c19 -18 198 -95 289 -124 159 -51 456 -98 456 -72 0 5 -18 8 -41 7 -22 -1 -59 3 -82 8 -23 5 -80 16 -127 24 -125 21 -381 109 -413 141 -4 3 -17 7 -30 8 -12 1 -31 6 -42 10 -13 5 -16 5 -10 -2z" id="path346"/>
    <path d="M1690 1510 c0 -17 53 -35 209 -71 139 -33 309 -50 297 -30 -4 6 -33 11 -64 11 -75 1 -350 62 -402 90 -24 13 -40 13 -40 0z" id="path347"/>
    <path d="M2996 1475 c-11 -8 -15 -15 -10 -15 6 0 19 7 30 15 10 8 15 14 9 14 -5 0 -19 -6 -29 -14z" id="path348"/>
    <path d="M1358 1460 c18 -11 38 -20 45 -20 20 1 -37 40 -58 40 -16 0 -13 -4 13 -20z" id="path349"/>
    <path d="M3010 1433 c-14 -7 -18 -13 -10 -13 17 0 47 17 40 23 -3 2 -16 -2 -30 -10z" id="path350"/>
    <path d="M1361 1426 c89 -84 264 -158 494 -212 83 -19 225 -33 225 -22 0 4 -11 9 -25 10 -14 1 -37 2 -53 3 -15 1 -52 8 -82 15 -216 50 -375 108 -486 174 -49 30 -90 48 -73 32z" id="path351"/>
    <path d="M1480 1402 c0 -13 116 -65 131 -59 8 2 -17 19 -54 36 -76 34 -77 35 -77 23z" id="path352"/>
    <path d="M1656 1381 c-8 -13 14 -28 54 -36 19 -4 59 -16 90 -26 30 -9 75 -20 100 -24 25 -3 72 -10 105 -15 33 -6 83 -9 110 -9 l50 2 -65 9 c-110 15 -175 29 -345 72 -27 7 -60 18 -72 24 -12 7 -24 8 -27 3z" id="path353"/>
    <path d="M2815 1355 c-40 -18 -16 -19 26 0 19 8 27 14 19 14 -8 0 -28 -6 -45 -14z" id="path354"/>
    <path d="M1632 1338 c11 -34 324 -111 393 -98 22 4 8 8 -49 13 -43 4 -84 11 -90 16 -6 5 -38 14 -70 21 -33 7 -88 23 -123 36 -44 17 -63 20 -61 12z" id="path355"/>
    <path d="M1410 1331 c0 -6 0 -14 -1 -18 0 -5 13 -11 28 -14 15 -4 36 -10 46 -14 12 -5 17 -3 17 8 0 8 -12 20 -27 25 -16 5 -36 13 -45 17 -11 4 -18 3 -18 -4z" id="path356"/>
    <path d="M2083 1226 c11 -8 25 -12 33 -9 18 7 16 9 -21 17 -28 6 -29 5 -12 -8z" id="path357"/>
    <path d="M2100 1190 c0 -5 10 -10 23 -10 18 0 19 2 7 10 -19 13 -30 13 -30 0z" id="path358"/>
  </g>
</svg>