<svg viewBox="0 732.16 717.4377224199288 550.4" xmlns="http://www.w3.org/2000/svg" style="max-height: 500px" width="717.4377224199288" height="550.4">

<path data-darkreader-inline-fill="" style="--darkreader-inline-fill: #090a0b;" fill-rule="evenodd" d="M0 640.001v640.002l360.25-.252 360.25-.251.251-639.75L721.002 0H0v640.001m.497.499c0 352 .114 495.851.253 319.668s.139-464.183 0-640S.497 288.5.497 640.5M382.722 60.927c-1.61 4.264-4.33 5.132-11.973 3.823-10.075-1.726-14.289.753-15.699 9.235-.522 3.142-.967 3.549-4.508 4.124-4.782.778-8.53 4.962-8.537 9.533-.004 2.469-.512 3.269-2.377 3.736-3.903.98-9.628 8.089-9.628 11.956 0 2.485-.605 3.652-2.39 4.607-3.007 1.61-4.61 5.069-4.61 9.952 0 2.09-.728 5.258-1.617 7.04-.992 1.99-1.41 4.513-1.082 6.536.294 1.812.157 3.686-.305 4.163-.462.477-1.236 2.426-1.721 4.33l-.883 3.462-13.689 3.628c-32.117 8.509-48.049 19.202-57.617 38.67-2.94 5.982-6.086 17.044-6.086 21.401 0 3.375-1.458 4.983-8.5 9.376-17.991 11.222-42.043 34.806-53.057 52.023-3.253 5.085-3.874 7.006-4.476 13.848-.693 7.892-.728 7.97-5.352 12.037-5.412 4.761-6.839 8.267-11.632 28.593-3.464 14.692-3.492 17.173-.4 35.667l1.532 9.166-3.111 8.814c-11.155 31.605-15.529 90.409-8.805 118.353 1.39 5.775 3.057 13.875 3.704 18 3.639 23.186 8.26 35.787 14.935 40.722 4.364 3.227 18.094 9.883 24.006 11.639 2.93.87 6.893 2.55 8.806 3.732 3.011 1.861 5.787 2.572 11.1 2.843.784.04 1.272 1.649 1.31 4.314.084 6.002 1.388 12.318 3.932 19.05l2.192 5.8-2.592 2.402c-4.031 3.736-3.439 7.184 2.509 14.621 5.085 6.357 5.099 6.394 4.433 11.877-1.652 13.587-1.617 19.449.142 24 .956 2.475 1.622 5.257 1.48 6.182-.406 2.638 5.711 14.885 9.717 19.456 1.995 2.277 4.527 5.596 5.627 7.378 3.377 5.468 17.466 12.325 25.009 12.171 5.854-.12 6.123-.007 10.412 4.345 2.422 2.457 4.824 4.468 5.338 4.468.514 0 2.889 1.721 5.278 3.824 4.029 3.546 9.923 6.176 13.843 6.176.906 0 2.429.426 3.384.947 4.562 2.487 14.975 5.13 19.623 4.98 2.812-.091 10.179.88 16.37 2.159 10.362 2.139 11.715 2.213 17 .937 5.414-1.308 10.62-1.551 20.493-.958 4.082.245 7.416-1.037 19.25-7.405 1.65-.888 5.554-2.302 8.676-3.143 6.674-1.799 19.831-10.258 22.493-14.463 1.018-1.608 3.77-4.314 6.115-6.012 2.345-1.699 5.609-5.276 7.255-7.95 1.702-2.767 4.227-5.374 5.858-6.05 5.499-2.277 13.103-13.426 13.103-19.211 0-1.757 1.576-3.527 6.026-6.768 14.274-10.394 19.492-18.378 18.634-28.512-.538-6.349-.236-8.109 3.027-17.689l3.625-10.637 9.594-.699c12.709-.925 21.295-.725 22.546.526.691.691-.377 4.945-3.322 13.233-4.273 12.025-15.36 49.878-16.612 56.715-.938 5.122.076 9.241 21.164 86 2.493 9.075 9.435 31.47 15.426 49.767C543.098 822.064 548 837.482 548 838.03c0 .547-3.937-2.782-8.75-7.4-49.498-47.493-109.967-72.618-174.75-72.61-132.905.016-241.211 103.417-248.515 237.258-5.242 96.073 41.018 181.33 125.015 230.401 56.259 32.867 124.675 41.891 187.757 24.764 164.306-44.61 236.659-239.317 141.757-381.475-8.375-12.544-9.748-15.242-12.045-23.673-1.425-5.234-6.35-20.829-10.943-34.656-12.303-37.036-16.994-52.304-21.547-70.139-5.326-20.862-8.235-31.648-13.586-50.367-4.567-15.974-5.114-20.267-3.334-26.14.582-1.921 2.572-8.893 4.422-15.493 4.397-15.684 13.138-42.541 15.023-46.155.816-1.565 1.486-3.371 1.49-4.014.021-3.926 3.722-7.228 12.15-10.838 13.685-5.861 14.765-7.694 31.526-53.493 9.667-26.417 15.3-84.214 10.972-112.58-1.474-9.654-1.454-10.35.472-16.5 4.288-13.697 6.998-26.317 7.03-32.739.079-15.65-4.987-41.181-8.171-41.181-2.52 0-4.856-6.624-3.801-10.779.779-3.071.752-5.495-.103-8.965-2.179-8.843-21.796-38.516-34.304-51.889-2.44-2.608-3.09-4.426-3.89-10.87-1.216-9.79-3.803-17.39-10.213-29.997-5.824-11.455-22.008-28.887-32.958-35.5-16.589-10.019-17.349-10.918-14.265-16.883 1.827-3.532 2.046-10.959.428-14.509-.884-1.94-.806-3.324.356-6.297 1.723-4.414.979-8.403-2.2-11.786-1.17-1.246-1.819-2.892-1.485-3.765.934-2.432-1.418-9.668-3.582-11.019-1.449-.906-1.956-2.337-1.956-5.527 0-3.259-.608-4.913-2.5-6.805-1.68-1.68-2.5-3.608-2.5-5.878 0-3.898-4.141-9.531-7.007-9.531-3.18 0-5.022-1.155-6.548-4.107-.815-1.575-2.598-3.144-3.963-3.487-1.539-.386-2.482-1.335-2.482-2.499 0-3.962-5.242-8.186-10.066-8.11-5.437.085-10.62-2.408-11.391-5.48-1.214-4.837-11.578-7.583-18.192-4.819-2.613 1.091-4.047 1.2-5.509.417-1.088-.582-3.658-.937-5.712-.789-2.755.199-4.31-.306-5.932-1.928-3.515-3.515-10.031-3.101-11.476.729M162.077 81.589c-4.99 4.199-4.148 12.182 1.607 15.248 4.166 2.218 8.9 1.446 11.727-1.914 7.846-9.324-4.01-21.18-13.334-13.334m422.238 40.38c-5.928 2.491-6.006 12.588-.121 15.631 8.395 4.342 16.76-5.996 10.556-13.045-2.503-2.845-7.105-3.985-10.435-2.586M433 170.882c0 .55.45 1.278 1 1.618.55.34 1 .168 1-.382s-.45-1.278-1-1.618c-.55-.34-1-.168-1 .382m-371.923 6.707c-5.76 4.846-3.115 14.563 4.345 15.962 4.351.817 8.917-1.542 10.531-5.438 3.916-9.455-6.983-17.166-14.876-10.524m273.84 14.793c-.229.211-3.567.651-7.417.979-31.793 2.706-71.991 18.675-100.237 39.819-13.42 10.046-35.459 33.237-41.327 43.487-2.301 4.02-2.327 4.29-.736 7.626.926 1.942 1.271 3.841.787 4.333-2.758 2.798-3.892 6.723-2.283 7.9 2.035 1.488.736 3.748-1.708 2.973-1.277-.406-2.032.038-2.483 1.459-.356 1.123-1.089 2.042-1.628 2.042-1.107 0-5.885 4.895-5.885 6.029 0 .406.9.973 2 1.261 2.238.585 2.594-.296.833-2.057-.89-.89-.752-1.327.577-1.837 1.075-.412 2.388.006 3.418 1.087 1.238 1.301 1.347 1.877.422 2.22-2.086.774-1.44 1.817 2.872 4.641 4.877 3.192 6.569 2.443 7.49-3.316.326-2.042 1.785-5.519 3.241-7.727 1.456-2.208 3.868-5.844 5.359-8.079 1.492-2.235 3.599-4.345 4.681-4.688 1.083-.344 6.837-5.679 12.788-11.856 9.573-9.937 16.723-16.301 29.2-25.988 3.891-3.021 5.96-1.471 2.848 2.134-2.238 2.592-2.834 6.176-1.028 6.176.984 0 1.296-.566.891-1.621-.627-1.633 3.796-6.375 5.948-6.378.572 0 3.029-1.801 5.46-4.001s4.987-4 5.679-4c2.106 0 8.866-3.887 11.34-6.52 1.281-1.364 2.871-2.48 3.533-2.48.662 0 1.763-.675 2.448-1.5s2.485-1.5 4-1.5c1.515 0 3.343-.708 4.061-1.573 2.137-2.575 8.612-5.427 12.322-5.427 2.284 0 4.532-.899 6.598-2.638 2.559-2.153 4.456-2.731 10.327-3.147 4.058-.288 8.25-1.2 9.62-2.094 1.574-1.027 5.033-1.648 9.834-1.766 4.074-.1 8.654-.699 10.177-1.33 1.889-.782 4.807-.878 9.166-.301 3.84.509 7.462.467 9.067-.104 1.993-.71 4.225-.442 8.789 1.055 3.696 1.212 6.354 1.624 6.714 1.042.884-1.431 9.267-.109 13.623 2.148 2.855 1.48 4.53 1.758 6.75 1.121 3.589-1.029 8.508.248 11.392 2.957 1.166 1.096 3.681 2.062 5.59 2.148 5.41.244 9.467 1.745 11.997 4.438 1.692 1.8 3.369 2.471 6.182 2.471 4.05 0 6.619 1.287 13.394 6.714 2.592 2.076 5.21 3.286 7.109 3.286 2.28 0 3.825.97 6.397 4.019 2.083 2.468 4.88 4.47 7.251 5.191 2.453.745 5.161 2.729 7.428 5.441 1.979 2.367 4.792 4.537 6.317 4.872 3.051.67 7.895 5.013 7.895 7.078 0 .731 1.012 1.85 2.25 2.487 2.759 1.419 10.75 9.85 10.75 11.341 0 .595 1.62 2.43 3.599 4.077 1.98 1.647 4.242 4.232 5.026 5.744 1.924 3.709 4.169 3.533 4.562-.357l.313-3.107 4.821 4.255c2.652 2.34 8.21 9.475 12.352 15.857 4.141 6.381 9.236 13.061 11.32 14.845 4.157 3.556 8.184 10.488 9.989 17.191.639 2.373 1.573 5.396 2.076 6.718l.913 2.403 3.765-1.905c2.07-1.048 5.339-2.239 7.264-2.646 1.925-.406 3.811-.921 4.191-1.144 1.049-.615-2.452-6.194-4.178-6.657-.832-.224-2.793-3.887-4.357-8.14l-2.845-7.733 2.095-2.229c3.078-3.277 2.675-5.035-3.568-15.557-17.278-29.123-38.95-52.135-66.611-70.728-5.577-3.749-11.059-7.308-12.183-7.909-15.227-8.142-24.108-12.414-34.544-16.615-6.875-2.767-12.914-5.277-13.42-5.576-.506-.299-.638.19-.294 1.088.345.898.196 1.898-.33 2.223-.526.325-.956.114-.956-.468 0-.582-1.125-1.059-2.5-1.059s-2.5-.436-2.5-.969c0-.532-.67-.711-1.488-.397-1.358.521-9.885-.972-13.512-2.366-.825-.317-3.276-.731-5.447-.92-6.416-.557-2.921 1.266 7.928 4.137 5.489 1.452 11.339 3.24 13 3.974 1.66.733 8.194 3.466 14.519 6.072 29.749 12.26 50.312 25.422 68.513 43.854 13.292 13.46 18.695 20.244 18.187 22.836l-.446 2.279-.746-2.26c-.411-1.242-2.264-2.979-4.118-3.859-1.855-.88-3.125-2.001-2.822-2.491.302-.489.073-.89-.509-.89s-1.899-.788-2.925-1.75c-11.763-11.033-27.528-22.525-45.81-33.392-66.482-39.521-146.227-43.013-214.191-9.38-6.021 2.98-12.451 6.132-14.29 7.006-5.323 2.529-9.302 4.767-9.843 5.536-1.187 1.687-5 2.114-5 .559 0-1.017.779-1.473 2.25-1.317 1.507.159 2.184-.257 2.049-1.262-.249-1.855 5.916-6.761 17.422-13.864 29.391-18.143 70.556-28.818 112.779-29.246l11-.111-5.5-1.368c-3.025-.752-9.55-1.604-14.5-1.893-4.95-.29-11.195-.8-13.878-1.134-3.453-.429-4.677-.282-4.191.505.396.64.001 1.111-.931 1.111-.89 0-1.34-.45-1-1 .575-.931-1.66-1.465-2.583-.618M649.5 203.423c-6.8 3.048-10.13 9.295-9.227 17.31 2.174 19.285 31.727 17.362 31.727-2.064 0-12.33-11.548-20.155-22.5-15.246m-294.522 6.612c-1.007.636.569.939 4.939.95 3.529.008 6.229-.147 6-.344-1.108-.955-9.64-1.427-10.939-.606M375 211c0 .55.9 1 2 1s2-.45 2-1-.9-1-2-1-2 .45-2 1m12.762 1.707c1.244.239 3.044.23 4-.02s-.062-.446-2.262-.435c-2.2.011-2.982.216-1.738.455m7.051.976c.721.289 1.584.253 1.916-.079.332-.332-.258-.568-1.312-.525-1.165.048-1.402.285-.604.604m15.687 3.382c7.071 2.218 13.15 3.457 10 2.039-3.382-1.524-12.637-4.109-14.365-4.013-.899.05 1.065.938 4.365 1.974M227.5 246c-.34.55-.141 1 .441 1s1.059-.45 1.059-1-.198-1-.441-1-.719.45-1.059 1m-19.343 56.218c-4.009 4.669-6.544 8.643-7.18 11.25-.54 2.218-1.689 6.429-2.554 9.358-2.6 8.802-.235 16.268 3.663 11.57.733-.882 2.363-1.996 3.623-2.475 1.826-.695 2.293-1.638 2.303-4.646.006-2.076.716-6.25 1.576-9.275.86-3.025 2.204-8.425 2.986-12 .783-3.575 1.864-7.512 2.403-8.75 1.758-4.035-.507-2.385-6.82 4.968m313.059-1.243c.719 1.151 1.605 1.604 2.122 1.087 1.15-1.15-.04-3.062-1.905-3.062-1.194 0-1.232.349-.217 1.975M565 331.5c0 .825.45 1.5 1 1.5s1-.675 1-1.5-.45-1.5-1-1.5-1 .675-1 1.5m-22.571 14.835-.071 11.334 3.071 1.891c1.689 1.04 3.476 2.075 3.972 2.299.525.238.59-2.253.155-5.975-.41-3.511-.816-7.988-.901-9.949-.133-3.069-4.19-10.909-5.655-10.928-.275-.003-.532 5.094-.571 11.328M562 337.5c0 .825.45 1.5 1 1.5s1-.675 1-1.5-.45-1.5-1-1.5-1 .675-1 1.5m-355.027 8.219c-5.416 3.766-7.712 9.163-9.903 23.281-5.458 35.155-5.998 136.442-.949 177.783.952 7.794 1.475 9.462 3.257 10.4 1.167.614 2.442 1.612 2.833 2.217s4.441 1.325 9 1.6l8.289.5-.288 2.75c-.158 1.513.067 2.75.501 2.75.433 0 .885 3.21 1.004 7.134.144 4.755.727 7.699 1.749 8.829.844.932 1.534 2.672 1.534 3.866s.45 2.171 1 2.171 1-.927 1-2.059c0-1.132.45-1.781 1-1.441.55.34 1 2.461 1 4.714 0 4.033.031 4.068 2 2.286 2.221-2.01 2.606-4.131.856-4.715-.851-.283-.833-1.324.071-4.064 1.555-4.711.861-5.723-3.445-5.024-4.126.669-4.641-.892-1.066-3.234 2.78-1.822 4.306-4.677 2.033-3.805-1.138.437-1.449-.447-1.449-4.118 0-4.22-.195-4.613-2-4.04-1.416.449-2 .18-2-.924 0-.858.9-2.121 2-2.808 2.058-1.286 2.686-4.226 1.11-5.2-1.667-1.03-2.669-9.504-2.254-19.068.354-8.167-.974-18.782-2.198-17.558-1.638 1.638-2.658 1.258-2.658-.99 0-1.126 1.174-3.135 2.608-4.465 2.281-2.114 2.606-3.204 2.595-8.702-.007-3.457.592-9.21 1.332-12.785.739-3.575 2.154-11.393 3.145-17.373 1.047-6.329 2.325-11.075 3.056-11.356.69-.265 6.155 1.13 12.143 3.1 14.728 4.847 26.626 6.617 44.621 6.64 10.729.014 14.573.317 13.5 1.065-2.789 1.943 5.236-.19 10.284-2.733 5.467-2.755 9.165-7.89 16.934-23.516 6.058-12.183 8.978-14.827 16.373-14.827 7.831 0 11.355 3.501 15.905 15.8 7.142 19.308 14.593 28.845 25.817 33.044 6.078 2.274 10.507 2.96 7.716 1.195-2.927-1.851.023-2.254 6.676-.911 10.067 2.032 36.417 1.8 48.795-.43 18.888-3.402 21.009-3.913 24.658-5.935 4.091-2.268 6.959-7.537 6.674-12.263-.099-1.65 1.023-9.564 2.494-17.586 1.471-8.022 2.674-15.784 2.674-17.25 0-3.403 3.397-3.678 5.111-.414.649 1.238 1.79 2.61 2.535 3.05 2.001 1.182 1.661 2.686-1.21 5.347-1.786 1.655-2.372 2.978-1.933 4.364.481 1.515.021 2.22-1.936 2.963-2.117.805-2.575 1.639-2.611 4.751-.024 2.076-.692 5.575-1.485 7.775-1.974 5.478-1.844 6.516.779 6.238 2.23-.236 2.25-.123 2.25 12.762 0 7.15-.373 18.333-.829 24.852-.793 11.343-.737 11.949 1.324 14.142 2.158 2.298 3.886 10.506 2.211 10.506-1.146 0-3.206-4.529-3.206-7.047 0-1.074-.45-1.953-1-1.953s-1 2.277-1 5.059c0 3.118.384 4.822 1 4.441.55-.34 1 .335 1 1.5 0 1.207-.446 1.842-1.036 1.478-.699-.432-.824 1.433-.384 5.722.531 5.188.353 6.611-.964 7.704-1.413 1.172-1.616 1.035-1.616-1.09 0-1.338-.701-3.305-1.558-4.373-1.447-1.802-1.512-1.587-.908 3.016.358 2.727 1.341 5.462 2.185 6.079 1.254.918 1.316 1.531.337 3.36-.659 1.23-1.055 3.889-.882 5.908.377 4.374-1.769 5.406-4.64 2.233-1.014-1.12-2.224-2.037-2.689-2.037-1.332 0-.985 3.787.389 4.245 1.448.482 1.252 22.847-.224 25.602-.487.909-2.105 5.028-3.595 9.153-3.498 9.683-11.275 26.473-11.95 25.799-.286-.287-.01-1.822.614-3.41 3.485-8.866 5.921-16.078 5.921-17.528 0-.906.59-1.873 1.31-2.15.721-.276 2.079-3.137 3.02-6.357 2.58-8.837 5.029-34.644 2.738-28.854-.435 1.1-.578 2.568-.318 3.263.261.694-.007 1.842-.594 2.549-.588.708-1.386 3.29-1.774 5.738-.498 3.139-1.704 5.452-4.093 7.85-1.868 1.873-3.149 4.022-2.855 4.787.293.764-.081 1.624-.831 1.912-.812.311-1.295 1.812-1.195 3.712.181 3.437-1.292 8.618-3.076 10.823-.608.751-1.423 3.287-1.81 5.636-.388 2.348-1.334 4.899-2.103 5.668-2.332 2.332 1.121 15.923 4.59 18.068.563.348.744 1.085.402 1.638-1.33 2.152-5.449-3.751-8.033-11.512l-2.693-8.085-1.385 3.977c-.762 2.187-1.197 4.714-.965 5.615.927 3.617-1.163 4.492-3.851 1.611-3.143-3.37-4.98-3.599-4.02-.5 1.799 5.803 1.824 6.798.155 6.157-1.256-.482-1.626.02-1.651 2.236-.031 2.783-1.952 6.357-3.418 6.357-.402 0-.629-1.913-.506-4.25.369-6.98.131-7.531-2.044-4.75-1.076 1.375-1.966 1.938-1.978 1.25-.041-2.319-1.695-1.272-3.612 2.287-2.358 4.378-5.735 4.484-6.228.196-.175-1.522-.715-2.522-1.2-2.222-2.557 1.58-4.642-11.747-2.297-14.68 2.541-3.179 3.877-28.115 2.12-39.581-2.432-15.865-6.7-28.959-5.297-16.25l.607 5.5-6.534-7c-3.593-3.85-6.544-6.684-6.557-6.297-.043 1.269 2.282 5.797 2.976 5.797 1.27 0 2.944 7.473 3.361 15 .228 4.125.759 8.573 1.179 9.884.582 1.816.43 2.275-.638 1.925-.771-.252-2.154-2.774-3.074-5.603-.919-2.83-2.382-6.159-3.25-7.398-1.773-2.531-2.099-5.808-.578-5.808.55 0 1 .62 1 1.378 0 .757.675 1.937 1.5 2.622 2.2 1.825 2.023-3.548-.252-7.664-.961-1.74-2.74-4.945-3.953-7.122-1.212-2.176-3.123-4.197-4.245-4.491-1.122-.293-2.354-1.363-2.739-2.378C390.997 544.877 387 542.36 387 545c0 .55.45 1 1 1 1.608 0 1.151 2.169-.75 3.559-1.924 1.406-2.475 18.522-.811 25.191.542 2.17.45 3.25-.275 3.25-1.184 0-3.548-6.989-3.721-11-.289-6.695-.513-8-1.37-8-1.599 0-6.328 11.312-6.48 15.5-.095 2.6-.58 3.91-1.388 3.744-.683-.141-1.756.871-2.384 2.25-1.563 3.43-3.124 3.164-2.342-.399.37-1.685.187-3.183-.437-3.569-1.536-.95-.266-2.549 1.49-1.875 1.025.393 1.468-.123 1.468-1.711 0-1.25-.317-1.956-.705-1.569-.387.388-1.525-.775-2.529-2.583l-1.825-3.288.633 4.343c.551 3.782.407 4.299-1.113 4-2.055-.404-2.82-1.771-4.391-7.843-3.546-13.705-5.33-19.466-6.65-21.482-1.095-1.67-1.221-2.911-.492-4.83.817-2.148.669-2.681-.883-3.174-1.027-.326-2.592-1.699-3.479-3.053-1.252-1.912-2.474-2.461-5.474-2.461-2.124 0-6.212-.759-9.083-1.686-4.911-1.586-5.278-1.585-6.176.02-.893 1.596-1.137 1.599-3.767.046-2.466-1.457-3.195-1.491-5.938-.276-3.526 1.56-4.181 3.896-1.093 3.896 2.43 0 1.7 1.839-2.545 6.418-1.821 1.964-2.752 4.12-2.848 6.596l-.142 3.678 2.75-2.034c1.512-1.119 2.75-2.399 2.75-2.846 0-1.44 3.949-4.812 5.636-4.812 1.263 0 1.034.603-1 2.636-1.45 1.45-2.636 3.162-2.636 3.804 0 1.193-6.085 7.56-7.224 7.56-.346 0-.817-.788-1.045-1.75-.329-1.382-.654-1.172-1.549 1-1.426 3.463-4.182 3.667-4.182.309 0-1.343.444-2.715.987-3.051.543-.335 1.7-3.062 2.571-6.059.871-2.997 2.002-5.449 2.513-5.449.511 0 .929-.759.929-1.687 0-1.32-.65-1.064-2.99 1.177-1.644 1.575-3.252 2.601-3.573 2.28-1.028-1.027 2.663-6.983 4.649-7.503 2.582-.675 2.436-2.267-.208-2.267-3.721 0-.25-2.764 4.43-3.528 3.878-.632 10.692-3.93 10.692-5.174 0-.296-1.238-2.559-2.75-5.029-8.6-14.044-16.015-16.177-16.693-4.803-.333 5.593-.247 5.825 2.549 6.88 3.796 1.433 3.666 3.121-.356 4.635-8.397 3.16-14.646 6.627-14.696 8.154-.06 1.82-4.14 4.865-6.519 4.865-1.975 0-1.942-.893.12-3.171 1.54-1.702 1.54-1.829-.007-1.829-.914 0-2.645 1.131-3.846 2.513-2.628 3.022-9.698 5.273-10.827 3.447-1.303-2.109-15.682 16.455-14.786 19.089.171.502 3.011-.851 6.311-3.006 7.402-4.835 11.375-6.038 11.153-3.377-.099 1.183.468 1.785 1.597 1.695 1.996-.158 2.204.921.715 3.705-.57 1.064-.639 1.934-.155 1.934 1.338 0 3.721-3.03 6.094-7.75 1.175-2.337 2.488-4.25 2.917-4.25.429 0 1.829-2.138 3.11-4.75 1.944-3.966 2.444-4.431 3.026-2.816.478 1.324.929 1.56 1.43.75.402-.651.487-1.579.188-2.063-1.116-1.806 2.441-6.891 5.192-7.419 3.666-.705 3.731-.447.774 3.067-1.398 1.661-2.541 3.867-2.541 4.903 0 1.036-.673 2.844-1.496 4.019-.823 1.174-1.484 3.187-1.469 4.472.086 7.315-.687 17.845-1.31 17.841-.399-.002-1.175-.004-1.725-.004s-1.052-2.812-1.116-6.25c-.064-3.437-.343-5.351-.621-4.253-.278 1.099-1.576 2.99-2.884 4.203-1.388 1.286-2.392 3.37-2.409 5.002-.027 2.464-.158 2.579-1.096.966-1.039-1.787-.916-3.087.682-7.168.74-1.889.676-1.908-1.136-.35-1.685 1.449-8.809 4.85-10.159 4.85-.272 0-.248-.941.053-2.091.48-1.836.22-2.013-2.134-1.455l-2.68.635 3-2.455c5.265-4.308 1.982-3.905-6.78.832-8.581 4.64-13.72 8.568-13.72 10.486 0 1.74 1.519 1.189 4-1.452 1.292-1.375 2.7-2.5 3.13-2.5.43 0 2.439-1.125 4.465-2.5s4.141-2.5 4.7-2.5c1.647 0-2.208 3.72-5.117 4.938-2.386.999-12.878 15.51-14.76 20.414-.737 1.922.648 2.182 2.382.448.828-.828 1.2-.855 1.2-.088 0 .612 1.012.948 2.25.749 1.238-.2 3.133-.498 4.212-.662 1.221-.186 2.098.361 2.323 1.451.2.965-.232 1.753-.962 1.756-2.176.011-5.089 5.968-3.723 7.614 1.459 1.759-.485 4.38-3.248 4.38-1.805 0-1.821-.159-.305-3.09 1.583-3.062 1.576-3.084-.725-2.382-1.277.39-3.109 1.4-4.072 2.245-1.602 1.407-1.75 1.35-1.75-.677 0-1.37.424-1.952 1.112-1.527 1.401.866 2.853-1.353 2.873-4.39.014-2.111-.128-2.179-1.556-.75-.865.864-1.935 1.571-2.379 1.571-.444 0-1.355 1.462-2.025 3.25-.67 1.788-2.299 5.584-3.621 8.437-1.322 2.853-2.434 6.003-2.472 7-.052 1.39-.331 1.23-1.196-.687-.621-1.375-1.256-2.678-1.412-2.896-.156-.218-2.132.827-4.393 2.323-3.961 2.621-4.046 2.788-2.365 4.646.959 1.06 2.799 1.927 4.089 1.927 2.491 0 2.902 1.077 1.456 3.816-.489.926-1.145 6.184-1.457 11.684-.313 5.5-1.085 11.47-1.715 13.268-1.448 4.126-.555 7.838 2.05 8.519 1.966.514 2.548 3.124 2.071 9.3-.098 1.276 1.609 3.882 4.39 6.703 2.502 2.539 4.55 5.51 4.55 6.604 0 1.093.45 2.266 1 2.606.55.34 1 1.454 1 2.476 0 2.933 11.486 8.063 19.096 8.53 6.16.378 6.19.366 10.62-4.064 2.443-2.443 3.983-4.442 3.422-4.442-.561 0-1.336.511-1.722 1.136-.471.761-1.233.433-2.31-.996-1.801-2.387-4.064-1.624-11.193 3.777-1.939 1.469-3.015 1.861-2.743 1 .246-.779 3.06-3.172 6.253-5.317 3.824-2.57 6.298-5.081 7.249-7.359 1.713-4.097.883-5.565-1.49-2.637-1.745 2.151-7.49 6.396-8.658 6.396-.366 0 .995-1.567 3.026-3.482 2.626-2.477 3.54-4.065 3.165-5.499-.29-1.11-.148-2.251.316-2.538 1.205-.745 4.07-6.713 3.498-7.286-.265-.264-1.177.098-2.029.805-2.292 1.902-3.109.33-1.024-1.973 2.33-2.575-.219-3.921-4.087-2.158-1.366.622-2.912 1.131-3.436 1.131-1.755 0-.977-1.858 1.047-2.5 1.1-.349 2-1.076 2-1.615 0-.54 1.235-2.043 2.743-3.341l2.744-2.359-5.494.996c-3.021.548-6.055 1.461-6.743 2.03-.903.747-1.25.621-1.25-.453 0-.84 1.955-2.233 4.5-3.205 4.286-1.637 6.002-3.553 3.182-3.553-2.196 0-11.649 3.02-15.533 4.962-8.363 4.182-9.015 2.739-.764-1.692 4.995-2.681 8.169-4.912 7.25-5.093-2.033-.402-2.168-2.177-.166-2.177 1.167 0 8.727-3.363 10.4-4.626.203-.153-.375-1.023-1.284-1.932-1.23-1.23-1.373-1.992-.559-2.973.827-.997.342-2.359-1.986-5.573-2.319-3.201-2.767-4.452-1.81-5.059.698-.444.842-.813.32-.822-.523-.008-.434-.531.196-1.161s.9-2.375.599-3.879c-.301-1.505-.052-3.038.554-3.413.606-.374 1.101-2.819 1.101-5.434 0-3.977.49-5.224 3-7.628 1.65-1.581 3-3.579 3-4.44 0-1.939 9.421-12.067 11.202-12.042.714.01 3.278 1.36 5.698 3 3.622 2.454 5.42 2.982 10.154 2.982 4.889 0 7.037.677 14.285 4.5 9.571 5.049 10.116 5.218 8.789 2.739-.518-.968-.698-3.035-.401-4.593.584-3.051 4.449-3.214 12.935-.544 5.104 1.606 5.465 7.147.546 8.382-3.174.797-1.243 2.476 2.875 2.501 3.265.019 4.087-.798 2.947-2.93-1.533-2.863 1.081-6.593 4.447-6.344 3.56.263 4.897 2.218 2.972 4.345-2.217 2.45-1.817 4.251.801 3.611 8.686-2.123 23.513-2.841 26.523-1.284 3.639 1.881 8.61 2.077 13.09.515 1.739-.606 3.944-.75 4.9-.319.955.431 2.829.815 4.163.852 1.981.056 2.734.958 4.11 4.919.926 2.668 3.057 6.043 4.734 7.5 2.709 2.355 6.23 8.766 6.23 11.345 0 2.345-3.529.024-3.992-2.625-.28-1.598-1.09-3.099-1.802-3.335-2.251-.749-.263 5.031 2.643 7.686 1.458 1.332 2.506 3.074 2.33 3.871-.177.797.211 2.736.863 4.31.652 1.574.904 3.596.56 4.493-.987 2.572-3.332-.038-4.096-4.56-.358-2.118-1.323-4.68-2.144-5.693-1.4-1.727-1.467-1.673-1.072.878.256 1.651.028 2.476-.579 2.101-.635-.392-.753.443-.325 2.28 1.189 5.093 1.145 5.85-.345 5.875-.976.016-1.855 1.999-2.655 5.992-.657 3.283-1.688 6.133-2.291 6.334-1.773.591-1.284 2.171 1.923 6.221 4.255 5.372 10.164 18.977 8.243 18.977-.481 0-2.406-3.166-4.278-7.035-3.784-7.822-7.01-11.708-6.948-8.37.02 1.048.679 3.03 1.465 4.405 2.176 3.807 1.776 4.608-1 2l-2.5-2.349v2.166c0 1.191-.814 2.674-1.809 3.296-1.268.791-1.683 1.991-1.387 4.008.486 3.311-.324 3.604-3.132 1.129-1.927-1.698-1.966-1.676-1.305.75.375 1.375.927 3.85 1.227 5.5l.546 3-2.427-2.837-2.426-2.836-.573 4.272c-.584 4.35.782 8.413 4.101 12.194 1.439 1.64 1.429 1.738-.11 1.147-.926-.355-2.976-2.403-4.555-4.551l-2.872-3.905.489 9.354c.514 9.831-.579 15.437-3.479 17.832-1.704 1.407-1.65.232.278-6.033.675-2.196.568-2.279-1.505-1.169-3.008 1.609-3.572.742-1.537-2.364 1.669-2.547 1.454-5.258-1.179-14.854-.744-2.714-2.127-2.062-1.59.75.263 1.375.04 2.5-.495 2.5s-.965 1.237-.956 2.75c.009 1.513-.692 4.906-1.558 7.54-1.521 4.629-1.51 4.77.34 4.183 1.33-.422 1.914-.129 1.914.96 0 .862-.438 1.567-.974 1.567-1.054 0-4.437 5.923-3.766 6.594.225.224 2.241.479 4.481.567 3.097.121 3.941.505 3.52 1.6-.458 1.195-.024 1.168 2.544-.16 1.702-.881 3.656-1.601 4.341-1.601.684 0 2.394-1.051 3.799-2.336 1.405-1.285 6.504-3.592 11.331-5.127 4.827-1.534 9.777-3.571 11-4.526 1.223-.955 3.235-2.053 4.472-2.44 1.34-.42 2.481-1.787 2.827-3.388 1.073-4.959 2.667-7.183 5.15-7.183 3.158 0 8.275-5.632 8.275-9.106 0-1.623.683-2.911 1.75-3.302 4.101-1.504 7.531-3.949 7.987-5.696.37-1.413 1.081-1.729 2.877-1.278 2.174.546 2.386.288 2.386-2.903 0-2.189.562-3.717 1.5-4.077.825-.316 1.5-1.266 1.5-2.11 0-4.335 8.148-14.189 15.252-18.445 2.063-1.237 4.017-3.306 4.341-4.599.325-1.293 1.113-2.15 1.751-1.906.638.245 1.726-.46 2.417-1.566.691-1.107.85-2.012.354-2.012-1.414 0-2.226-2.977-2.659-9.75-.327-5.106-.122-6.25 1.123-6.25.838 0 2.218-1.687 3.067-3.75.85-2.062 2.173-5.1 2.942-6.75.858-1.842 1.25-5.105 1.014-8.452-.415-5.883.083-8.361 1.503-7.483.492.304.895-.824.895-2.506s.45-3.059 1-3.059 1 .647 1 1.439c0 2.632 19.219 4.197 23.605 1.922 1.577-.818 4.448-1.364 6.381-1.215 4.971.385 10.014-1.022 10.014-2.793 0-1.062-.608-1.295-2.125-.813-5.895 1.871-9.927 1.524-9.394-.808 5.867-25.696 30.791-174.857 33.084-197.991.837-8.449-.415-11.726-5.593-14.637l-3.91-2.197-.463 2.296c-.255 1.263-1.239 6.347-2.188 11.297-.949 4.95-2.29 10.125-2.98 11.5-2.537 5.056-4.373 13.683-4.364 20.5.005 3.85-.01 8.799-.034 10.999-.023 2.199.41 4.149.963 4.333 1.46.487 1.229 5.863-.408 9.517-2.081 4.643-4.712 13.268-4.378 14.349.353 1.143-8.967 9.802-10.552 9.802-.715 0-1.57-4.583-2.331-12.5-.66-6.875-1.884-14.3-2.72-16.5-.836-2.2-1.539-4.788-1.563-5.75-.024-.962-.418-1.75-.876-1.75-.457 0-2.341-2.363-4.187-5.25-5.41-8.464-8.626-12.029-14.219-15.767-2.894-1.934-5.673-4.445-6.175-5.578-.502-1.134-2.105-2.589-3.562-3.234-1.457-.645-3.531-1.994-4.609-2.998-3.776-3.518-12.657-9.173-14.406-9.173-.971 0-2.277-.616-2.902-1.37-1.241-1.495-12.098-6.981-16.108-8.14-1.375-.397-3.965-1.82-5.756-3.161-1.791-1.342-3.703-2.163-4.25-1.825-.547.338-.994.195-.994-.317s-1.913-1.232-4.25-1.598c-2.504-.393-4.894-1.507-5.816-2.71-1.544-2.014-7.658-3.331-14.229-3.065-1.616.065-3.033-.505-3.357-1.351-.309-.805-1.549-1.463-2.755-1.463s-2.682-.489-3.28-1.087c-.783-.783-1.275-.783-1.759 0-.934 1.512-4.533 1.347-7.8-.358-3.812-1.988-19.411-4.789-22.678-4.072-1.661.365-4.359-.155-7.047-1.359-3.324-1.488-4.963-1.72-6.914-.978-1.406.535-5.72.904-9.586.819-10.347-.225-30.949 1.127-31.543 2.071-.282.449-3.432.942-7 1.096-4.445.191-8.482 1.158-12.829 3.073-3.489 1.537-7.314 2.809-8.5 2.826-1.186.017-3.957 1.14-6.157 2.495-2.2 1.355-5.137 2.466-6.527 2.469-2.177.004-6.366 2.093-7.973 3.975-.275.322-2.459 1.449-4.853 2.506-7.231 3.191-25.147 17.59-25.147 20.211 0 .506-1.575 2.447-3.5 4.313-1.925 1.866-3.5 3.963-3.5 4.661 0 .698-.96 1.783-2.134 2.411-1.989 1.064-2.099 1.713-1.611 9.535.289 4.625.124 8.393-.366 8.393-.489 0-.889-.675-.889-1.5s-.45-1.5-1-1.5-1 1.173-1 2.607c0 1.825.42 2.446 1.401 2.069 2.391-.917 2.657 3.192.347 5.344-2.06 1.92-2.065 2.025-.357 9.101 2.574 10.663-1.422 12.255-4.382 1.745-.563-1.998-1.695-4.191-2.516-4.872S202 430.515 202 429c0-1.515-.695-3.332-1.546-4.038-.85-.705-1.292-1.942-.982-2.749.309-.807.073-2.057-.526-2.778-.626-.754-1.066-5.372-1.036-10.873.03-5.618-.353-9.562-.929-9.562-.54 0-.981-.675-.981-1.5s.473-1.5 1.051-1.5c1.368 0 4.311-6.878 4.129-9.65-.078-1.183.466-2.384 1.208-2.669 6.603-2.533 15.108-39.684 9.085-39.682-1.116.001-3.141.775-4.5 1.72M50.66 348.316c-13.869 4.275-15.438 23.797-2.389 29.72 5.521 2.507 8.347 2.448 13.759-.286 17.45-8.815 7.266-35.178-11.37-29.434m266.221 7.137c-.235.235-4.017.648-8.404.918-8.148.503-16.064 1.883-17.177 2.996-.342.341.239 1.589 1.289 2.773 1.374 1.547 1.559 2.275.661 2.589-.687.241-1.25 1.075-1.25 1.854 0 .78-.425 1.417-.945 1.417s-1.538 1.234-2.261 2.743c-1.218 2.542-1.974 2.825-10.304 3.851-12.802 1.577-22.355 6.846-26.812 14.787-4.443 7.917-4.849 8.782-4.354 9.277.279.278 5.157.908 10.841 1.399 23.566 2.037 56.783 9.251 67.07 14.566 2.142 1.107 3.143 1.158 4.621.235 1.536-.96 2.42-.802 4.765.851 1.583 1.116 3.838 2.326 5.01 2.689 1.172.364 3.154 1.548 4.403 2.632 2.636 2.285 9.449 2.674 11.887.677 5.185-4.247 38.111-8.746 59.079-8.073 23.26.746 34.07 1.291 34.82 1.755.455.281 4.169.96 8.254 1.509 4.084.549 8.438 1.299 9.676 1.667 7.86 2.335-9.709-21.501-20.353-27.613-4.753-2.73-25.133-9.952-28.081-9.952-.724 0-3.116-1.8-5.316-4-2.2-2.2-4.45-4-5-4-1.548 0-1.18-2.605.574-4.061 1.394-1.158 1.252-1.479-1.25-2.832-1.553-.839-3.209-1.416-3.679-1.281-.471.134-1.371-.17-2-.675-1.513-1.216-6.094-2.093-11.645-2.23-2.475-.061-9.078-.776-14.674-1.589-9.502-1.38-10.352-1.361-12.871.29-2.502 1.639-2.785 1.647-3.908.112-2.654-3.63-9.226-4.672-13.945-2.21-2.564 1.337-3.16 1.34-5.158.031-1.243-.814-5.339-1.74-9.102-2.057-3.763-.316-8.46-.777-10.438-1.024-1.978-.247-3.788-.256-4.023-.021m342.882 4.112c-3.138 1.703-5.763 6.184-5.763 9.838 0 10.374 13.318 15.401 20.25 7.643 8.631-9.659-3.011-23.707-14.487-17.481M159.158 406c0 1.375.227 1.938.504 1.25.278-.687.278-1.812 0-2.5-.277-.687-.504-.125-.504 1.25m88.342-.351c-20.014 4.168-22.905 6.953-22.677 21.848.351 22.918 6.77 33.455 21.36 35.06 2.924.322 7.342 1.193 9.817 1.936 23.155 6.953 58.531.989 65.59-11.057 5.91-10.084 8.86-21.825 7.164-28.508-2.018-7.949-15.716-14.3-39.754-18.432-7.825-1.345-36.316-1.927-41.5-.847m-90.434 11.101c-2.744 16.46-2.408 75.975.434 76.916.656.218 1-14.281 1-42.167 0-23.375-.032-42.499-.071-42.499-.039 0-.652 3.488-1.363 7.75m79.876-6.802c-7.255 2.201-9.303 5.28-10.489 15.769-1.116 9.859 5.643 27.283 10.583 27.283 1.888 0 4.847-16.899 5.646-32.25.675-12.945.765-12.776-5.74-10.802M257.5 416c-.853 1.65-1.399 3-1.214 3 .186 0 1.336-1.35 2.556-3s1.766-3 1.214-3c-.553 0-1.703 1.35-2.556 3m134.286.464c-16.97 2.431-26.209 8.049-27.389 16.657-1.123 8.192 5.167 28.205 10.426 33.173 15.086 14.252 65.868 19.452 82.276 8.425 8.589-5.772 16.825-29.858 13.911-40.68-3.387-12.582-46.817-22.216-79.224-17.575m-125.767 4.126c-3.565 1.371-7.603 2.361-8.972 2.201-4.147-.485-5.817 8.985-2.459 13.934 1.327 1.955 2.412 3.979 2.412 4.498 0 .519.563.754 1.25.523.711-.239 1.108-1.596.92-3.145-.232-1.921.431-3.429 2.25-5.115 1.419-1.315 2.58-3.035 2.58-3.822 0-2.841 7.747-8.664 11.526-8.664h3.52l-1.652 2.521c-4.681 7.144-.419 16.547 7.424 16.379l4.682-.101-3.922-.919c-2.157-.506-4.519-1.416-5.25-2.022-1.869-1.552-1.736-6.858.172-6.858.825 0 1.5.845 1.5 1.878 0 4.701 5.903 4.983 10.129.485 2.434-2.591 1.471-4.511-2.129-4.244-4.034.299-7-.231-7-1.252 0-1.188 3.793-4.867 5.018-4.867 1.552 0 6.114 4.351 7.694 7.338l1.672 3.162.793-4.465c.947-5.338.862-5.441-6.611-8.012-8.191-2.818-17.267-2.617-25.547.567m306.656 6.287c-.317 1.583-1.287 9.57-2.156 17.75-2.27 21.362-10.858 76.618-13.152 84.623-.357 1.243.067 1.75 1.465 1.75 2.156 0 6.168-6.57 6.168-10.102 0-1.123.675-2.716 1.5-3.541 1.824-1.824 1.952-5.499.25-7.224-1.002-1.016-.883-1.539.599-2.633 1.493-1.102 1.72-2.131 1.18-5.33-.37-2.186-.25-4.224.266-4.544.515-.318.72-1.714.454-3.102-.957-5.011.808-15.499 2.944-17.489 1.853-1.726 1.895-2.071.502-4.06-1.072-1.53-1.276-2.957-.69-4.824 1.317-4.198 1.845-10.776.976-12.182-.437-.706-.32-2.325.259-3.597.791-1.736.715-2.721-.305-3.951-1.151-1.386-1.135-1.813.103-2.779 1.589-1.241 2.26-11.642.751-11.642-.472 0-.559-2.25-.195-5 .71-5.35.037-6.904-.919-2.123m-162.763 2.174c-6.779 1.607-21.912 7.92-21.912 9.141 0 1.313 2.214.924 4.014-.705.919-.832 4.438-2.596 7.818-3.921 6.645-2.604 7.881-2.191 7.283 2.433-.321 2.48-.307 2.485 1.781.595 2.086-1.888 2.104-1.882 2.104.616 0 6.226 5.704 9.176 12.25 6.335 1.182-.512 1.745-.318 1.735.598-.028 2.472-1.685 4.047-5.106 4.855l-3.379.797 3.736.103c5.48.15 9.305-5.678 8.453-12.878-.738-6.229.058-6.71 5.08-3.072 4.582 3.319 7.231 6.704 7.231 9.239 0 .959.859 2.203 1.91 2.765 1.194.639 1.727 1.72 1.422 2.886-.46 1.759 1.903 5.162 3.584 5.162 4.196 0 5.214-10.988 1.408-15.194-6.901-7.626-27.197-12.649-39.412-9.755m4.077 3.97c-1.55 2.895-.433 3.979 4.101 3.979 4.635 0 6.406-2.433 3.381-4.645-2.701-1.975-6.237-1.661-7.482.666M411 446.81c0 .537.713 1.249 1.584 1.584.973.373 1.431.15 1.187-.581-.498-1.495-2.771-2.318-2.771-1.003m-36.562 17.089c.305.495 2.245 1.859 4.309 3.031l3.753 2.132-3.5-3.004c-3.387-2.907-5.702-4.002-4.562-2.159m119.635 15.313c-.098 2.296 3.797 12.59 5.058 13.369 1.843 1.139 2.21-.546.525-2.408-.915-1.012-2.53-4.277-3.587-7.256-1.058-2.98-1.956-4.646-1.996-3.705M397.5 484c.34.55 1.041 1 1.559 1s.941-.45.941-1-.702-1-1.559-1-1.281.45-.941 1m-180.893 9.582c-.897 2.338-.737 8.418.222 8.418.457 0 .881-2.25.944-5 .119-5.241-.156-6.049-1.166-3.418m275.87 3.168c.413 2.613 1.067 6.881 1.455 9.486.726 4.869 1.581 6.585 2.717 5.449.686-.686-3.588-19.685-4.429-19.685-.271 0-.155 2.137.257 4.75M216.27 507.226c-1.902 2.387-6.159 12.145-5.654 12.961 1.157 1.873 2.237.426 4.74-6.353 2.613-7.078 2.892-9.091.914-6.608m273.273 1.705c-.317.512-.118 1.213.441 1.559.559.345 1.016-.074 1.016-.931 0-1.757-.6-2.015-1.457-.628M364 511.708c-5.511 2.023-9.86 4.519-12.128 6.962-6.426 6.922-5.907 11.532.706 6.256 3.548-2.831 4.394-3.075 8.874-2.551 6.281.734 14.442-2.624 14.507-5.97.083-4.224-6.356-6.753-11.959-4.697m-285.5 3.656c-7.916 3.597-9.843 13.259-3.734 18.718 10.797 9.647 25.834-5.028 15.984-15.599-3.743-4.018-7.928-5.083-12.25-3.119m236.96 1.145c-1.874 1.469-1.829 1.524 1.04 1.264 1.65-.15 2.921-.712 2.825-1.248-.292-1.629-1.8-1.635-3.865-.016m-98.556 8.106c-1.16 1.398-1.086 1.566.545 1.25 1.037-.201 2.073-.927 2.301-1.615.594-1.784-1.26-1.546-2.846.365m-3.238 6.737c-.437 2.119-.552 4.096-.254 4.393.906.906 1.758-2.403 1.393-5.411-.32-2.64-.398-2.57-1.139 1.018m76.775-1.884c-1.067.808-1.434 1.483-.813 1.5.62.018 1.687-.643 2.372-1.468 1.581-1.905.935-1.918-1.559-.032m75.559-.634c0 .576.468 1.337 1.041 1.691.572.354.797 1.41.499 2.348-.297.937.196 4.387 1.097 7.666 1.037 3.774 1.581 9.262 1.483 14.961-.085 4.95.243 10.35.729 12l.882 3 .744-3.741c.409-2.058 1.126-3.506 1.592-3.218 1.104.683 3.148-3.544 5.35-11.066 2.321-7.931-.793-17.572-5.979-18.502-2.246-.403-2.919-1.051-2.859-2.75.044-1.223-.257-2.223-.668-2.223-.411 0-1.459-.273-2.329-.607-.87-.334-1.582-.135-1.582.441m4.394 9.385c.686 3.43 2.175 5.546 3.189 4.531.904-.904-1.557-7.75-2.786-7.75-.646 0-.8 1.233-.403 3.219m-10.92 1.731c.839 1.623 1.526 4.272 1.526 5.886 0 1.614.672 4.224 1.494 5.8 1.943 3.726 2.032 6.64.125 4.13-.724-.954-1.606-1.446-1.959-1.092-.354.353-.18 1.199.385 1.88.565.682 1.936 2.973 3.046 5.092l2.018 3.854-.53-3.25c-.291-1.788-.132-3.25.352-3.25 1.424 0 2.221-9.199 1.12-12.925-1.112-3.764-5.655-9.075-7.764-9.075-1.076 0-1.039.579.187 2.95m-141.439-.016c-.569 1.064-1.035 2.694-1.035 3.623 0 2.538 2.658.014 3.251-3.088.562-2.94-.758-3.259-2.216-.535M336 538.574c0 .439.921 1.777 2.046 2.975 1.342 1.429 2.33 4.372 2.873 8.564l.827 6.387.127-5.007c.07-2.753.569-6.548 1.11-8.433.54-1.885.878-3.53.75-3.655-.759-.739-7.733-1.489-7.733-.831m152.649.898c-1.034 2.695-.753 13.528.351 13.528 1.114 0 1.195-.394 1.553-7.5.278-5.544-.791-8.929-1.904-6.028M304 543.559c0 .857.45 1.281 1 .941.55-.34 1-1.041 1-1.559s-.45-.941-1-.941-1 .702-1 1.559m-19.5.441c-.34.55-.141 1 .441 1s1.059-.45 1.059-1-.198-1-.441-1-.719.45-1.059 1m6.619 1.315c-1.676 4.216-1.272 6.719.445 2.76.818-1.883 1.304-3.908 1.08-4.5-.223-.591-.909.192-1.525 1.74m6.522-.543c-.296.478-.516 5.675-.489 11.549.044 9.744.212 10.679 1.917 10.679 1.718 0 1.819-.635 1.262-7.87-.479-6.205-.26-8.566 1.035-11.162.904-1.811 1.354-3.557 1.001-3.88-.352-.324-.848-.007-1.101.704-.338.948-.809 1.002-1.774.201-.723-.599-1.556-.699-1.851-.221m32.359.287c0 .582.45.781 1 .441s1-.816 1-1.059-.45-.441-1-.441-1 .477-1 1.059m-5.827 3.547c-1.635 1.984-3.519 5.696-4.188 8.25-.668 2.554-1.699 6.095-2.292 7.869-1.087 3.254-.606 4.957 1.101 3.902.51-.315 1.709-3.397 2.665-6.85.956-3.452 3.043-8.421 4.639-11.042 4.301-7.062 3.171-8.311-1.925-2.129m8.596-1.65c-.691 2.461-.278 3.886.812 2.797.319-.32.423-1.632.229-2.917l-.351-2.336-.69 2.456m62.869-.456c.317.825 1.033 1.5 1.591 1.5.586 0 .489-.635-.229-1.5-.685-.825-1.401-1.5-1.591-1.5-.19 0-.087.675.229 1.5m83.544 4c.626 1.375 1.454 2.5 1.84 2.5.385 0 .486-1.125.223-2.5s-1.091-2.5-1.84-2.5c-1.09 0-1.135.499-.223 2.5m-124.987 2c.02 1.65.244 2.204.498 1.231.254-.973.237-2.323-.037-3-.274-.677-.481.119-.461 1.769m26.993 2.563c.24.721 1.028 1.509 1.75 1.75.75.25 1.125-.125.875-.875-.241-.722-1.029-1.51-1.75-1.75-.75-.25-1.125.125-.875.875m13.155.486c-.409 1.065-.029 2.047 1.018 2.633.918.514 2.615 1.921 3.77 3.126l2.1 2.192-1.745-3.451c-2.59-5.121-4.323-6.637-5.143-4.5m-81.085.712c-2.657 3.401-4.371 13.739-2.277 13.739.539 0 1.221-1.237 1.514-2.75.294-1.513 1.149-4.669 1.901-7.014 1.352-4.218.735-6.372-1.138-3.975M637.4 558.4c-2.878 2.878-3.4 4.104-3.4 7.984 0 13.294 18.872 16.623 23.018 4.06 3.925-11.891-10.757-20.905-19.618-12.044m-330.21-.408c-1.875 1.563-2.251 2.732-2 6.216.384 5.313 2.074 5.246 3-.118.379-2.198 1.183-4.918 1.785-6.043 1.365-2.552.237-2.574-2.785-.055m17.06 5.885c-3.619 7.418-3.795 8.13-2 8.106 1.596-.022 6.021-10.153 5.582-12.781-.232-1.387-1.313.024-3.582 4.675m-54.583-3.21c-.367.366-.667 1.131-.667 1.7 0 .626.466.567 1.183-.15.651-.651.951-1.416.667-1.7-.284-.285-.817-.217-1.183.15m85.376.781c-1.193 1.438-1.091 1.949.762 3.801 2.809 2.809 3.93 1.536 2.082-2.365-1.331-2.81-1.593-2.943-2.844-1.436m-9.353 5.986c-4.033 1.452-5.416 1.494-7.447.224-.744-.464-1.419-.249-1.654.529-1.458 4.822-1.962 5.373-2.346 2.563-.44-3.219-.935-3.327-4.098-.894-2.458 1.89-2.63 5.887-.23 5.359.712-.157 1.892.21 2.622.816.922.765 2.414.8 4.891.117 2.958-.817 3.723-.701 4.501.684 1.016 1.81 1.566 1.01 2.285-3.332.24-1.444 1.159-2.032 3.309-2.115 5.374-.208 5.624-.332 5.297-2.625-.395-2.764-2.2-3.1-7.13-1.326m48.647.13c-.542 1.413-.123 2.559 3.142 8.589.538.995 1.511 2.013 2.161 2.262 1.333.512.646-2.387-2.054-8.665-1.777-4.131-2.354-4.519-3.249-2.186m-125.67 1.103c-.367.366-.667 1.131-.667 1.7 0 .626.466.567 1.183-.15.651-.651.951-1.416.667-1.7-.284-.285-.817-.217-1.183.15M248.5 570c-.34.55-.141 1 .441 1s1.059-.45 1.059-1-.198-1-.441-1-.719.45-1.059 1m107.962 3.75c.69 3.781 2.976 7.145 4.095 6.026.333-.333.119-1.514-.476-2.625S359 573.977 359 572.566c0-1.693-.548-2.566-1.611-2.566-1.317 0-1.487.685-.927 3.75m123.756 2.273c-1.172 1.876-1.117 1.931.759.759 1.113-.695 2.023-1.605 2.023-2.023 0-1.443-1.524-.752-2.782 1.264m-219.654.684c-.542 1.425-.428 1.54.56.56.684-.679.991-1.486.683-1.793-.308-.308-.867.247-1.243 1.233m151.512-.298c-1.959 2.36.454 8.204 2.531 6.127 1.741-1.741 1.77-3.638.09-5.935-1.184-1.619-1.422-1.637-2.621-.192m-158.409 4.258c-.367.366-.667 1.131-.667 1.7 0 .626.466.567 1.183-.15.651-.651.951-1.416.667-1.7-.284-.285-.817-.217-1.183.15m-20.208 4.4c-.363.586-.445 1.281-.183 1.543s.743-.218 1.069-1.067c.676-1.762.1-2.072-.886-.476m5.791 2.153c-1.238.597-2.25 1.406-2.25 1.797s-1.826 1.977-4.058 3.523c-3.804 2.637-4.019 3.044-3.435 6.504.496 2.932.272 3.827-1.085 4.347-.939.361-1.414.95-1.055 1.31 1.125 1.125 6.633-4.961 6.633-7.329 0-2.55 1.595-4.04 2.278-2.128.246.691.631 1.031.855.756.578-.71 4.89-10.014 4.604-9.932-.13.037-1.249.556-2.487 1.152M322.5 593c.34.55 1.293 1 2.118 1s1.222-.45.882-1c-.34-.55-1.293-1-2.118-1s-1.222.45-.882 1m-97 1c.34.55.816 1 1.059 1s.441-.45.441-1-.477-1-1.059-1-.781.45-.441 1m181.5 2c0 1.1.45 2 1 2s1-.9 1-2-.45-2-1-2-1 .9-1 2m-164.541 9.067c-.363.586-.419 1.306-.126 1.6.717.716 2.667-.546 2.667-1.726 0-1.278-1.726-1.193-2.541.126m50.143 21.091c-2.367 3.38-1.947 4.55.512 1.424 1.163-1.478 1.884-2.918 1.602-3.199-.282-.282-1.233.517-2.114 1.775m46.501 5.932c.436 2.759.564 5.614.283 6.345-.632 1.649 4.144 6.973 5.503 6.134.651-.403.629-1.654-.064-3.642-1.517-4.352-.424-4.607 2.017-.47 2.315 3.924 4.158 4.611 4.158 1.551 0-3.217-4.071-7.207-6.684-6.551-1.923.482-2.383.008-3.302-3.406-1.565-5.809-2.831-5.783-1.911.039M332 629.044c0 .575.758 4.062 1.685 7.75 1.672 6.65 1.693 6.678 2.558 3.344.68-2.62.417-4.329-1.191-7.75-2.02-4.298-3.052-5.428-3.052-3.344M318 633c-1.175 1.65-2.865 3-3.756 3-1.889 0-8.012 3.982-8.648 5.624-1.081 2.786 10.894-2.213 12.904-5.388 1.1-1.737 2.843-3.176 3.872-3.197 1.55-.032 1.659-.297.628-1.539-1.773-2.136-2.584-1.893-5 1.5m-5-1c-.793.49-1.11 1.223-.704 1.629.405.406 1.262.213 1.904-.429 1.511-1.511.668-2.354-1.2-1.2m69 .882c0 .55.45 1.278 1 1.618.55.34 1 .168 1-.382s-.45-1.278-1-1.618c-.55-.34-1-.168-1 .382m58.478 2.217c-.403 1.838-.232 3.547.421 4.2.801.801 1.101-.042 1.101-3.099 0-4.973-.579-5.393-1.522-1.101m-86.909.157c.974 3.119 2.41 5.023 6.181 8.191 3.091 2.597 3.25 2.629 3.25.642 0-1.149-.569-2.089-1.264-2.089-.695 0-2.37-1.79-3.723-3.978-2.861-4.63-5.547-6.301-4.444-2.766m-57.819-.55c1.238.238 3.262.238 4.5 0 1.238-.239.225-.434-2.25-.434s-3.488.195-2.25.434M410 636.441c0 .793.45 1.719 1 2.059.55.34 1-.309 1-1.441 0-1.132-.45-2.059-1-2.059s-1 .648-1 1.441m8.094-.441c-.09 2.119 1.646 4.593 2.573 3.667.426-.427.293-1.089-.296-1.471-.589-.383-1.328-1.371-1.642-2.196-.508-1.333-.578-1.333-.635 0M299 640c-2.692 3.781-1.594 3.772 3.428-.028 3.789-2.867 3.836-2.972 1.318-2.972-1.758 0-3.307.979-4.746 3m21.276-.743c-1.502 1.651-1.407 1.719 1.562 1.125 2.298-.459 3.162-.264 3.162.716 0 .741.741.288 1.648-1.005l1.647-2.353 1.83 2.38c1.392 1.81 1.836 1.99 1.853.752.053-3.91-8.535-5.095-11.702-1.615M418 645c0 .55.45 1 1 1s1-.45 1-1-.45-1-1-1-1 .45-1 1m-94.921 1.583c.048 1.165.285 1.402.604.605.289-.722.253-1.585-.079-1.917-.332-.332-.568.258-.525 1.312M444 647.882c0 .55.45 1.278 1 1.618.55.34 1 .168 1-.382s-.45-1.278-1-1.618c-.55-.34-1-.168-1 .382m-33 1.996c0 2.621 3.405 8.159 7.427 12.08 5.176 5.047 6.15 4.602 1.506-.687-1.687-1.921-4.026-5.468-5.199-7.882-1.95-4.012-3.734-5.69-3.734-3.511m9 .653c0 1.612 2.662 3.141 3.686 2.117.712-.713-1.548-3.648-2.808-3.648-.483 0-.878.689-.878 1.531M246.5 657c-1.319.567-1.489.878-.5.914.825.031 2.175-.381 3-.914 1.828-1.181.249-1.181-2.5 0m-6 2c-1.319.567-1.489.878-.5.914.825.031 2.175-.381 3-.914 1.828-1.181.249-1.181-2.5 0m45.606 16.05c-1.836 1.678-3.084 3.305-2.772 3.617.801.801 6.544-3.905 6.611-5.417.076-1.718-.054-1.657-3.839 1.8m-10.106.572c0 1.329.271 1.398 1.5.378.825-.685 1.5-1.415 1.5-1.622 0-.208-.675-.378-1.5-.378s-1.5.73-1.5 1.622m127.75 1.253c-.413 1.856-.709 5.906-.66 9 .085 5.291.147 5.428 1.048 2.301.527-1.828.823-5.878.66-9-.271-5.16-.366-5.369-1.048-2.301M374.618 680c1.784 6.457 2.336 9.894 2.358 14.691.013 2.855.474 5.469 1.024 5.809 2.28 1.409.071-15.791-2.632-20.494l-1.441-2.506.691 2.5m-90.33 1.777c-5.895 4.998-7.239 12.883-2.362 13.858 1.833.367 2.742 1.067 2.432 1.874-.68 1.771 1.675 3.056 2.665 1.454.439-.711.551-3.693.248-6.628-.377-3.648-.19-5.335.589-5.335.627 0 1.14-.436 1.14-.969 0-.532-.675-.709-1.5-.393-1.891.726-1.886.009.026-3.688 1.89-3.655.929-3.706-3.238-.173M422 681.059c0 .582.45.781 1 .441s1-.816 1-1.059-.45-.441-1-.441-1 .477-1 1.059m-60 1.472c0 .808.45 1.469 1 1.469 1.294 0 1.297 3.303.003 4.597-1.325 1.325-2.301 24.403-1.032 24.403 3.185 0 5.805-19.857 3.713-28.14-.731-2.893-3.684-4.76-3.684-2.329M276.5 686c-.375 1.183-.458 2.376-.183 2.651.275.275.808-.468 1.183-1.651s.458-2.376.183-2.651c-.275-.275-.808.468-1.183 1.651m15.959 1.067c-.363.586-.445 1.281-.183 1.543s.743-.218 1.069-1.067c.676-1.762.1-2.072-.886-.476m25.981 4.242c-.517 1.755-1.34 3.048-1.829 2.874-.489-.175-1.467.95-2.172 2.5-4.197 9.218-5.397 12.759-4.597 13.559 2.149 2.149 9.277-9.378 10.188-16.474.724-5.645-.221-7.106-1.59-2.459m259.483-.386c-6.308 6.308-2.306 16.096 6.567 16.062 4.534-.018 5.433-.473 7.818-3.958 4.273-6.244-.29-15.027-7.808-15.027-2.705 0-4.413.759-6.577 2.923m-284.22.853c-5.027 5.554-2.021 14.938 4.479 13.984 1.483-.218 2.611.034 2.507.559-.104.525 1.038 1.301 2.537 1.725 2.377.672 2.985.351 4.751-2.507 1.983-3.208 4.147-14.386 2.276-11.753-.502.706-1.619 1.013-2.482.682-.863-.331-1.869-.117-2.236.477-.42.68-1.453.196-2.792-1.307l-2.125-2.386-1.647 2.034c-1.94 2.396-4.01 1.58-3.26-1.285.645-2.468.08-2.531-2.008-.223m34.551 4.474c-.631 1.788-1.448 6.004-1.815 9.37l-.668 6.119 2.865.481c1.575.265 3.539.661 4.364.881 2.119.564 1.398-10.006-1.076-15.779-2.219-5.177-2.22-5.177-3.67-1.072m16.08 1.572c-1.148 2.573-2.896 6.928-3.883 9.678-.987 2.75-2.223 5.563-2.746 6.25-.71.935-.175 1.25 2.124 1.25 2.853 0 10.171-5.79 10.171-8.046 0-.407.645-.987 1.432-1.29 2.166-.831-2.021 5.836-5.269 8.39-2.502 1.968-2.527 2.065-.413 1.614 1.238-.264 2.25-.073 2.25.426 0 3.337 2.875-.279 4.75-5.973 2.594-7.878 2.904-11.586.906-10.819-.962.369-1.213-.168-.883-1.893.334-1.751.013-2.409-1.175-2.409-1.229 0-1.486.599-1.032 2.407.714 2.845-1.035 6.593-3.076 6.593-1.133 0-1.232-.548-.465-2.565 2.678-7.044.279-10.267-2.691-3.613m-10.667-3.155c-.956.955-.822 2.333.226 2.333.491 0 1.152-.675 1.469-1.5.585-1.524-.481-2.048-1.695-.833m-263.012 3.746c-7.752 2.856-11.274 8.798-10.428 17.596 1.889 19.665 31.771 18.018 31.924-1.759.092-11.876-10.687-19.818-21.496-15.837m266.586.573c-.683 1.093-1.227 3.905-1.211 6.25.039 5.446 1.514 3.127 2.219-3.486.582-5.469.618-5.369-1.008-2.764m-17.811 3.764c-1.519 2.612-3.43 5.788-4.248 7.057-1.453 2.254-1.42 2.292 1.415 1.612 1.597-.382 3.428-1.107 4.069-1.61.781-.612 1.322-.319 1.634.888.258.992.52-1.46.584-5.447.137-8.579.096-8.609-3.454-2.5M307.5 700c-.34.55-.141 1 .441 1s1.059-.45 1.059-1-.198-1-.441-1-.719.45-1.059 1m49.657 3c-.121 1.925-.881 4.374-1.689 5.441-1.914 2.531-1.88 5.559.063 5.559 2.155 0 2.631-1.853 2.212-8.612-.206-3.322-.461-4.363-.586-2.388M347 764.581c-1.925.225-7.775.895-13 1.488-60.513 6.869-118.814 39.237-157.657 87.53-7.404 9.205-20.343 28.032-20.343 29.599 0 1.279 1.789.927 2.28-.448.245-.687.815-.905 1.266-.483.452.421.288 1.299-.363 1.95-1.454 1.454-1.551 3.783-.158 3.783.564 0 1.295-1.35 1.625-3 .33-1.65 1.017-3 1.526-3 .509 0 1.605-1.462 2.435-3.25 3.451-7.433 7.489-13.05 8.589-11.95.537.537-.321 2.888-2.117 5.801-1.661 2.695-3.76 6.699-4.665 8.899l-1.645 4 2.114-1.905c1.162-1.048 2.113-2.337 2.113-2.866 0-1.417 7.017-10.729 8.085-10.729 1.469 0 1.052 3.01-.499 3.605-.777.299-2.967 3.547-4.867 7.219-4.804 9.288-7.75 14.511-8.813 15.626-.498.523-.906 1.866-.906 2.985 0 1.441.621.877 2.127-1.933 4.763-8.888 16.313-24.395 17.376-23.332.326.326.008 1.208-.705 1.961-.714.753-1.957 2.719-2.762 4.369-.805 1.65-2.303 4.244-3.328 5.765-1.026 1.52-1.677 3.32-1.448 4 .23.679 1.177-.227 2.104-2.015.928-1.788 2.013-3.251 2.412-3.252.398-.001 2.074-2.016 3.724-4.478 3.065-4.572 3.951-5.218 4.948-3.605.571.925-3.839 6.906-6.181 8.385-.697.44-1.267 1.452-1.267 2.25 0 .797-.415 1.45-.922 1.45-.508 0-1.468 1.688-2.134 3.75-.666 2.063-2.726 6.704-4.577 10.315-1.852 3.611-3.367 6.98-3.367 7.487 0 1.32 6.579-8.636 7.381-11.17.368-1.165 1.559-2.922 2.645-3.905 1.085-.983 1.974-2.22 1.974-2.75 0-.53 1.238-2.448 2.75-4.262 1.513-1.815 3.559-4.462 4.547-5.882.988-1.421 2.225-2.583 2.75-2.583 1.167 0 1.276 2.703.127 3.167-2.578 1.04-20.216 31.609-20.142 34.909.049 2.221 2.731-1.668 6.257-9.076 2.503-5.259 13.61-22.7 16.788-26.363.412-.474 1.239-.56 1.839-.189 1.339.827.799 1.891-7.382 14.552-6.338 9.809-9.143 15.149-10.569 20.122-1.383 4.821.38 3.155 3.144-2.971 3.535-7.837 17.774-29.341 18.948-28.616 1.621 1.002 1.075 2.496-3.416 9.331-5.715 8.697-9.978 16.134-9.249 16.134.5 0 2.278-2.535 7.088-10.106 3.884-6.115 8.933-12.894 9.603-12.894 1.66 0 2.059 2.191.693 3.813-1.493 1.773-9.643 14.996-11.751 19.064-.997 1.925-.974 2.541.122 3.235 1.874 1.188 3.853 1.099 3.853-.173 0-2.011 13.323-21.438 13.778-20.09.41 1.216-1.443 5.901-2.829 7.151-1.127 1.016-5.093 8-4.543 8 .313 0 1.657-1.687 2.988-3.75 1.33-2.062 3.732-5.291 5.339-7.173 4.621-5.418 4.768-1.524.212 5.641-4.131 6.498-12.945 22.599-12.945 23.648 0 2.365 2.456-.328 5.121-5.616 4.033-8.001 13.72-22.75 14.942-22.75 1.956 0 .758 2.98-4.663 11.597-6.757 10.742-10.743 18.403-9.574 18.403.473 0 1.904-2.031 3.181-4.514 1.277-2.483 2.923-5.013 3.657-5.622.735-.61 1.348-1.616 1.363-2.236.014-.621 2.019-3.767 4.454-6.991 2.435-3.225 4.612-6.375 4.837-7 .224-.626.77-.799 1.213-.385.887.827-.621 4.121-4.705 10.281-4.494 6.776-11.092 19.534-10.441 20.186.763.762.544 1.083 4.583-6.719 5.084-9.819 12.894-21 14.669-21 2.074 0 1.376 1.702-4.063 9.912-5.698 8.601-11.948 20.047-11.3 20.696.281.281 2-2.104 3.819-5.299 8.917-15.66 14.504-23.112 16.118-21.498.871.871.41 2.197-1.887 5.421-4.145 5.819-11.335 19.116-11.275 20.853.026.778 1.489-1.327 3.25-4.677 3.424-6.517 11.71-18.258 12.951-18.351 1.774-.134.431 3.151-4.111 10.054-4.393 6.677-10.139 17.578-10.139 19.235 0 2.324 2.258-.209 4.545-5.096 2.911-6.22 13.248-21.25 14.616-21.25 1.752 0 .696 2.702-3.311 8.475-4.518 6.508-9.864 17.134-9.823 19.525.014.825 1.709-1.65 3.766-5.5 6.968-13.041 14.777-23.005 14.282-18.225-.041.399-.075 1.4-.075 2.225 0 .825-.62 1.5-1.378 1.5-.757 0-1.995.759-2.75 1.687-1.203 1.48-1.154 1.606.401 1.023 1.522-.571 1.619-.377.685 1.368-2.425 4.532-.215 3.657 2.557-1.012 1.642-2.764 3.548-5.035 4.235-5.046 1.917-.031 1.518 1.556-1.69 6.71-3.001 4.821-3.181 7.784-.201 3.303 5.234-7.87 9.71-9.551 5.375-2.018-3.311 5.753-2.641 7.044 1.289 2.485 4.767-5.531 4.301-3.337-1.046 4.916-2.463 3.803-4.215 7.178-3.892 7.5.682.679 2.348-1.412 9.81-12.319.725-1.06 1.814-1.586 2.459-1.188.802.497.28 1.997-1.708 4.903-5.075 7.419-6.418 10.656-5.086 12.26 1.693 2.041 4.69 1.763 5.928-.55.582-1.088 2.061-3.063 3.285-4.39 1.225-1.326 2.976-3.474 3.89-4.772 2.583-3.663 4.654-1.079 2.231 2.783l-1.793 2.857 2.594-2.325c2.973-2.665 4.728-1.39 2.988 2.17-2.863 5.856-4.984 11.655-4.264 11.655.444 0 2.267-2.966 4.052-6.592 2.302-4.676 3.555-6.282 4.313-5.524.758.758.645 1.584-.389 2.842-1.622 1.972-5.895 9.7-5.895 10.66 0 .338.675.614 1.5.614s1.5-.515 1.5-1.145c0-1.514 5.288-9.851 6.25-9.853 1.514-.004.668 2.108-2.75 6.865-1.925 2.68-3.5 5.366-3.5 5.971 0 2.137 2.541.028 5.874-4.875 3.247-4.776 6.126-6.461 6.126-3.585 0 .757-.675 1.937-1.5 2.622-.825.685-1.5 1.81-1.5 2.5s-.675 1.815-1.5 2.5-1.5 1.969-1.5 2.855c0 .893 1.201-.162 2.699-2.373 5.693-8.398 19.374-22.645 26.907-28.021 18.671-13.323 35.749-18.126 61.362-17.255l14.532.494-7.75-1.523c-4.262-.838-7.75-1.904-7.75-2.369 0-.465 1.012-.641 2.25-.39 1.238.25 4.725.702 7.75 1.002 3.025.301 8.076 1.454 11.225 2.563 7 2.466 8.487 2.579 6.775.517-.685-.825-2.288-1.5-3.563-1.5-1.276 0-2.556-.383-2.845-.851-.289-.468-5.243-1.898-11.008-3.177-5.765-1.28-10.294-2.632-10.064-3.005.685-1.107 15.199 1.691 25.217 4.861 3.529 1.117 5.436-.136 2.541-1.67-1.835-.972-21.004-5.838-25.068-6.362-1.259-.163-2.252-.746-2.208-1.296.149-1.817 14.597.064 24.313 3.166 4.988 1.593 7.308 1.273 3.921-.54-2.929-1.567-16.956-5.163-23.169-5.939-7.325-.915-6.224-2.764 1.433-2.407 5.03.235 19.832 3.259 24.25 4.954.688.264 1.25.06 1.25-.454 0-1.218-21.661-7.275-26.088-7.295-3.695-.017-6.79-1.44-5.638-2.592 1.01-1.01 17.104 1.516 23.94 3.758 3.142 1.03 6.067 1.786 6.5 1.679.432-.107 2.561.326 4.73.961 5.119 1.499 5.854.79.873-.843-2.099-.688-4.717-1.814-5.817-2.501-1.1-.688-3.56-1.577-5.467-1.976-1.907-.399-4.157-1.07-5-1.492-1.489-.745-9.183-2.522-15.783-3.645-1.788-.304-3.25-.989-3.25-1.523 0-2.289 22.122 1.803 32.75 6.058 7.347 2.941 6.582 1.002-.936-2.372-6.387-2.866-24.882-7.497-29.944-7.497-1.815 0-2.87-.523-2.87-1.422 0-1.131 1.723-1.387 8.402-1.25 4.621.094 8.209.486 7.973.87-.236.384 2.337.685 5.717.669 10.262-.05 3.646-2.645-13.265-5.205-4.22-.639-8.045-1.562-8.5-2.051-1.246-1.341 14.4.119 20.082 1.874 5.46 1.685 9.531 2.011 8.041.643-1.356-1.245-14.881-4.368-21.87-5.05-3.787-.37-6.087-1.084-6.384-1.982-.604-1.822 15.681-.756 23.628 1.546 4.869 1.411 7.447 1.295 5.887-.264-1.263-1.264-14.422-4.42-20.993-5.036-3.729-.349-7.062-1.09-7.405-1.645-1.241-2.007 21.644 1.032 28.937 3.843.992.382 1.75.214 1.75-.39 0-1.555-14.381-5.794-22.5-6.631-7.402-.764-8.822-1.189-8.064-2.415 1.014-1.641 27.912 3.337 37.868 7.008 8.78 3.237 8.696 3.218 8.696 2.018 0-2.007-26.009-9.932-37.68-11.481-5.144-.683-8.826-1.656-9.072-2.399-1.041-3.139 24.339.998 41.174 6.711 11.127 3.777 12.402 3.267 1.896-.758-10.389-3.98-21.054-6.82-30.818-8.204-11.362-1.612-12.5-1.9-12.5-3.168 0-3.754 34.13 2.685 51.25 9.669.962.393 1.749.328 1.748-.143-.005-2.453-29.971-10.906-43.865-12.374-8.391-.887-10.056-1.393-8.78-2.669 2.016-2.017 24.542 1.503 40.522 6.332 6.257 1.89 11.568 3.244 11.803 3.009 1.51-1.51-30.567-10.697-42.678-12.223-7.999-1.008-9.653-2.365-2.926-2.402 7.84-.042 22.748 2.677 33.926 6.189 11.801 3.707 16.502 4.869 15.372 3.8-.479-.454-6.047-2.477-12.372-4.496-6.325-2.018-12.4-4.082-13.5-4.587-3.395-1.556-14.764-3.9-19.5-4.021-2.475-.063-5.625-.458-7-.877-4.626-1.411.328-2.247 6.639-1.12 3.223.576 8.064 1.305 10.758 1.619 6.176.722 23.776 4.942 31.062 7.449 9.705 3.339 5.947.558-4.433-3.281-9.388-3.472-28.989-7.993-40.41-9.321-5.071-.59-7.566-1.701-5.953-2.652 1.642-.967 24.699 2.416 36.504 5.358 8.788 2.19 8.833 2.195 8.833 1.068 0-1.699-17.574-5.706-36.25-8.263-6.567-.899-8.75-1.571-8.75-2.694 0-1.835 12.295-1.141 23.5 1.327 3.85.847 8.575 1.813 10.5 2.144 1.925.332 5.172 1.393 7.216 2.359 2.883 1.361 3.943 1.482 4.726.538 2.021-2.434-29.144-10.569-40.493-10.569-3.231 0-5.318-1.345-3.669-2.364 1.181-.73 21.039 1.871 33.107 4.336 16.511 3.373 17.877 2.107 2.113-1.958-4.675-1.205-9.61-2.637-10.967-3.18-1.357-.544-7.779-1.489-14.271-2.1-7.475-.703-11.666-1.499-11.428-2.172.465-1.313 7.246-.983 19.166.933 4.95.795 11.209 1.731 13.909 2.08 2.701.348 7.426 1.475 10.5 2.504 6.357 2.128 7.091 2.243 7.091 1.104 0-1.768-21.257-7.321-35-9.144-13.744-1.823-15-2.081-15-3.084 0-2.303 21.938.061 37 3.986 14.926 3.891 16.519 4.367 17.706 5.292 1.215.946 3.294.268 3.294-1.074 0-.397-2.137-1.336-4.75-2.086-2.613-.75-5.2-1.694-5.75-2.097-.55-.403-4.6-1.557-9-2.563-4.4-1.007-8.225-2.103-8.5-2.436-.275-.334-2.3-.723-4.5-.865-2.2-.142-8.05-1.074-13-2.072l-9-1.815 7-.104c4.155-.063 11.877.946 19 2.481 6.6 1.422 14.152 3.016 16.781 3.543 2.63.526 9.14 2.711 14.468 4.855 7.965 3.205 12.339 4.357 10.168 2.678-5.572-4.31-30.631-12.708-46.789-15.68-5.704-1.05-10.617-2.153-10.916-2.453-2.013-2.013 19.609 1.42 34.856 5.534 4.412 1.19 8.289 1.897 8.616 1.571 1.727-1.728-29.467-9.78-43.184-11.147-9.295-.927-12.5-1.528-12.5-2.346 0-1.45 17.103.244 38.5 3.815 2.75.459 6.267 1.328 7.815 1.931s3.776 1.097 4.95 1.097c6.888 0-11.542-6.036-22.765-7.455-9.686-1.226-11.5-1.645-11.5-2.661 0-1.179 10.612-.984 16 .293 6.77 1.606 28.523 7.517 30.5 8.288l2 .781-2-1.441c-2.271-1.636-7.256-3.464-19.5-7.151-8.429-2.539-11.53-3.219-19.773-4.339-2.35-.319-4.558-1.042-4.907-1.606-1.013-1.639 11.795-.184 24.68 2.804 6.325 1.467 12.361 2.84 13.414 3.051 3.986.8 12.266 3.803 16.935 6.142 2.668 1.335 5.041 2.237 5.275 2.004 2.468-2.468-26.27-12.018-51.874-17.239-8.126-1.656-12.764-4.215-5.5-3.033 1.788.291 5.615.756 8.507 1.035 11.565 1.113 41.492 9.502 50.479 14.149 1.848.955 3.35 1.192 3.925.617 1.05-1.05-8.363-5.505-20.161-9.542-22.996-7.87-44.226-11.464-71.5-12.104-9.9-.232-19.575-.238-21.5-.012m31.51 5.435c.346.559 1.047.758 1.559.441 1.387-.857 1.129-1.457-.628-1.457-.857 0-1.276.457-.931 1.016m-210.437 5.619C164.088 780.7 166.608 786 173 786c6.51 0 9.314-6.478 4.686-10.826-3.174-2.982-7.052-2.796-9.613.461m209.847-.541c1.602.64 2.767.619 3.45-.064.707-.707-.052-1.01-2.42-.967-3.242.06-3.304.122-1.03 1.031m284.369 16.156c-4.493 4.909-3.609 11.499 1.925 14.361 8.921 4.613 16.98-6.571 9.863-13.688-3.697-3.697-8.756-3.985-11.788-.673m-282.02-.557c.973.254 2.323.237 3-.037.677-.274-.119-.481-1.769-.461-1.65.02-2.204.244-1.231.498M430.5 794c.34.55 1.041 1 1.559 1s.941-.45.941-1-.702-1-1.559-1-1.281.45-.941 1m16.5 0c.825.533 1.95.969 2.5.969s.325-.436-.5-.969c-.825-.533-1.95-.969-2.5-.969s-.325.436.5.969m-7 8.716c.825.307 2.738 1.183 4.25 1.947s2.75 1.017 2.75.564c0-.843-5.889-3.291-7.571-3.148-.511.043-.254.33.571.637m102.101 43.914c2.829 3.646 8.003 10.958 11.497 16.25 3.494 5.291 6.701 10.083 7.127 10.65.426.566 1.606 2.51 2.622 4.319 2.042 3.635 1.303 5.822-.895 2.649-.761-1.099-1.849-2.542-2.418-3.206-.569-.664-1.034-1.607-1.034-2.095 0-.488-.948-1.744-2.106-2.792-1.159-1.048-2.928-3.48-3.933-5.405-1.004-1.925-2.924-4.657-4.268-6.071-1.343-1.414-3.562-4.345-4.931-6.515-1.37-2.169-3.237-4.563-4.15-5.321-2.776-2.304-3.134-.257-.467 2.667 3.451 3.784 12.855 16.804 12.855 17.798 0 .447.843 1.742 1.874 2.878 1.744 1.921 7.126 11.059 7.126 12.099 0 .256-.562.462-1.25.459-1.116-.006-2.632-2.066-6.25-8.494-1.846-3.279-6.704-8.204-5.86-5.941.84 2.254 3.699 7.502 5.994 11.005 1.987 3.033.079 3.314-2.394.352a591.415 591.415 0 0 0-3.59-4.25c-1.018-1.191-2.587-3.853-3.486-5.916-1.643-3.767-3.432-4.743-4.759-2.595-.415.67-.277.884.327.511.858-.53 1.777.993 2.633 4.363.074.292 2.155 3.667 4.624 7.5 5.55 8.619 5.485 8.471 3.752 8.471-.784 0-2.284-1.687-3.334-3.75-1.049-2.062-2.244-3.9-2.657-4.083-.413-.184-.75-.954-.75-1.712s-2.048-3.486-4.552-6.062c-2.503-2.575-5.865-6.53-7.471-8.788-1.605-2.258-4.783-5.905-7.062-8.105l-4.143-4 3.364 4.696c1.85 2.583 4.934 6.858 6.854 9.5C543.895 885.46 548.768 894 546 894c-.55 0-1-.643-1-1.429 0-.785-.562-2.023-1.25-2.75-.687-.726-2.599-3.346-4.247-5.821-1.649-2.475-3.224-4.725-3.5-5-.277-.275-2.733-3.425-5.459-7-5.585-7.326-13.544-15.243-13.544-13.472 0 .642 2.015 3.373 4.478 6.07 2.463 2.696 4.488 5.178 4.5 5.514.012.337 1.367 2.362 3.01 4.5a2516.82 2516.82 0 0 1 3.75 4.889c7.269 9.549 10.624 15.537 9.394 16.767-.632.632-2.318-1.219-4.803-5.271-3.943-6.432-15.961-21.997-16.984-21.997-.7 0 1.75 3.797 6.28 9.732 4.03 5.279 11.375 17.673 11.375 19.192 0 .592-.675 1.076-1.5 1.076s-1.5-.4-1.5-.888c0-2.15-16.821-24.624-17.742-23.704-.412.413 5.265 8.646 10.064 14.592 2.064 2.557 6.678 10.799 6.678 11.928 0 2.042-2.508 1.047-4.244-1.684-6.295-9.906-8.708-13.449-12.256-18-2.2-2.822-4.337-5.156-4.75-5.187-1.619-.123-.596 2.295 2.654 6.275 3.257 3.988 13.596 20.072 13.596 21.15 0 1.939-2.325-.56-6.884-7.4-5.436-8.157-9.116-12.288-9.116-10.237 0 .635.461 1.155 1.025 1.155.563 0 1.475 1.184 2.025 2.631.55 1.446 2.001 4.032 3.225 5.745 2.844 3.982 5.725 9.327 5.725 10.62 0 2.965-3.243-.163-9.396-9.063-8.915-12.895-9.762-12.148-1.143 1.008 5.909 9.018 7.085 12.059 4.666 12.059-.415 0-2.973-2.936-5.683-6.524-5.922-7.84-7.069-6.909-1.868 1.516 3.556 5.762 4.023 10.012.573 5.216-.907-1.26-2.999-4.014-4.649-6.12-1.65-2.105-3.675-4.852-4.5-6.105-1.925-2.921-17.076-20.983-17.602-20.983-1.295 0 .337 2.369 6.209 9.019 6.919 7.834 19.393 25.699 19.393 27.774 0 2.009-1.799 1.36-3.703-1.336-3.242-4.588-14.761-19.933-15.79-21.034-.554-.592-2.388-2.653-4.077-4.58-1.688-1.926-3.713-3.89-4.5-4.365-1.655-.997-1.217-.386 6.242 8.729 8.671 10.596 18.127 24.894 17.126 25.895-.606.606-3.473-2.434-7.851-8.324-9.163-12.328-15.649-19.75-17.273-19.765-.729-.007 1.354 3.025 4.629 6.737C492.57 903.422 502 916.793 502 918.716c0 2.681-2.002 1.061-6.755-5.466-4.839-6.644-18.245-21.826-18.245-20.662 0 .743 2.31 3.69 8.6 10.974 5.748 6.656 12.392 16.404 12.397 18.188.007 2.718-2.82 1.008-5.785-3.5-4.298-6.536-17.104-21.25-18.493-21.25-.624 0 .687 1.913 2.915 4.25 2.228 2.337 5.065 5.375 6.305 6.75 3.702 4.107 11.061 14.67 11.061 15.877 0 2.419-2.714.935-4.725-2.583-2.456-4.298-17.529-22.373-18.145-21.758-.228.228 3.413 5.488 8.091 11.689 9.647 12.789 10.4 14.296 8.229 16.468-.85.85-1.661 1.379-1.803 1.176-3.022-4.322-11.392-14.217-14.27-16.869l-3.797-3.5 3.726 4.5c12.002 14.493 15.974 25.318 4.973 13.551-5.711-6.108-5.897-5.102-.346 1.871 2.104 2.644 2.793 4.252 2.111 4.934-.556.556-1.164.816-1.351.577-.187-.238-2.435-3.133-4.997-6.433-7.331-9.446-13.494-16.036-14.27-15.259-.392.391 1.94 3.67 5.181 7.285 9.22 10.286 12.765 15.502 11.438 16.829-1.201 1.201-5.001-2.543-12.045-11.865-1.925-2.548-4.85-5.599-6.5-6.781l-3-2.148 2.604 3.469 8.231 10.97c5.339 7.117 6.726 10 4.81 10-.47 0-2.683-2.587-4.918-5.75-5.322-7.533-14.517-16.547-11.617-11.388 1.04 1.848 3.49 5.223 5.445 7.5 6.034 7.024 8.282 10.701 7.205 11.778-.649.649-2.712-1.176-6.025-5.327-5.774-7.236-10.235-11.643-10.235-10.11 0 .579.716 1.646 1.59 2.372 2.688 2.23 10.41 13.582 10.41 15.302 0 2.864-1.359 1.751-8.418-6.9-7.317-8.966-11.256-11.788-5.202-3.727 8.969 11.944 9.855 13.415 8.747 14.523-.602.602-1.253.899-1.448.66-.195-.238-1.795-2.565-3.556-5.17-4.758-7.041-10.112-12.635-10.118-10.572-.003.93.455 1.975 1.017 2.323 1.387.857 8.459 10.566 9.253 12.704 1.4 3.772-1.272 2.471-5.093-2.479-5.401-6.997-9.819-11.135-10.578-9.908-.338.548 1.569 3.397 4.238 6.332 2.67 2.936 5.372 6.32 6.006 7.521 2.06 3.905 1.186 4.888-1.614 1.816-3.767-4.134-7.692-7.069-4.639-3.47 13.596 16.031 22.044 45.847 19.438 68.598-1.27 11.081-1.301 14.057-.137 12.822 1.217-1.291 3.104-16.216 3.104-24.55 0-3.73.394-7.025.875-7.323 2.27-1.403 2.315 17.837.066 27.923-1.127 5.055-1.133 5.5-.073 5.5 1.944 0 4.166-12.062 4.396-23.862.13-6.673.573-12.134.986-12.135 1.378-.005 1.205 19.467-.253 28.45-1.467 9.038-1.226 12.057.571 7.152.785-2.142 1.82-4.392 2.3-5 1.008-1.279 2.152-10.671 2.676-21.976.201-4.329.61-8.117.91-8.417.624-.624.819 6.127.568 19.644-.107 5.753.195 9.128.784 8.764 1.094-.676 2.103-9.508 2.391-20.933.108-4.297.51-8.006.893-8.243 1.361-.841 2.046 5.113 1.898 16.505-.178 13.653-.01 15.568 1.012 11.551.42-1.65.817-8.737.882-15.75.11-11.86 1.055-15.848 2.488-10.5.924 3.449.704 22.461-.344 29.713-.514 3.554-.722 6.674-.463 6.933 2.272 2.272 3.954-9.847 3.906-28.146-.016-6.462.321-11.75.75-11.75 1.288 0 1.379 20.864.153 35.25-.318 3.735-.175 6.75.32 6.75 1.979 0 5.748-24.932 5.062-33.482-.288-3.585-.126-6.518.361-6.518 1.371 0 1.543 10.956.46 29.25-.412 6.969-.322 11.75.222 11.75 1.654 0 4.522-25.277 3.968-34.98-.282-4.961-.169-9.02.254-9.02 1.375 0 1.899 2.817 2.077 11.163.097 4.513.539 9.36.982 10.771.498 1.583.784-2.21.748-9.895-.035-7.339.345-12.596.924-12.789 1.52-.507 2.25 4.97 2.25 16.875 0 8.698.283 10.875 1.412 10.875 1.158 0 1.377-2.521 1.221-14-.105-7.7.096-14 .446-14 .929 0 1.921 10.945 1.921 21.206 0 6.284.328 8.709 1.112 8.225.611-.378 1.487-.08 1.945.662 1.822 2.948 2.443-.908 2.443-15.176 0-8.205.317-14.917.705-14.917 1.466 0 1.991 7.461 1.649 23.459-.23 10.74-.003 16.423.646 16.204 1.133-.383 1.098.147 1.329-20.413.156-13.956 1.291-19.607 2.51-12.5.259 1.513.401.275.316-2.75-.121-4.291.175-5.5 1.345-5.5 3.234 0 2.137 37.989-1.567 54.312-1.692 7.454-1.672 7.188-.542 7.188.489 0 1.145-1.463 1.456-3.25 3.041-17.474 3.892-26.273 4.015-41.5.097-12.105.476-17.25 1.271-17.25 3.3 0 3.135 32.547-.264 52-.401 2.292-.273 3.155.369 2.5 1.84-1.877 3.437-15.98 3.997-35.303.408-14.064.859-19.003 1.662-18.199 1.433 1.433 1.327 38.214-.134 46.502-.987 5.596-.925 7.495.208 6.362 1.313-1.312 4.669-34.998 4.141-41.563-.345-4.296-.182-7.447.405-7.809 1.672-1.034 1.639 26.426-.049 41.51-1.198 10.698-1.217 14.054-.069 12 1.647-2.947 3.342-20.807 3.724-39.25.214-10.312.724-18.862 1.133-19 2.682-.901 2.066 42.177-.796 55.696-.46 2.171-.564 4.385-.233 4.921 2.261 3.659 5.535-26.4 5.095-46.78-.238-11.038-.007-15.018.891-15.321 2.201-.741 2.788 4.979 2.743 26.734-.027 13.006.249 19.535.699 16.525 1.177-7.876 2.094-24.246 1.885-33.669-.107-4.844.244-8.914.799-9.256 1.677-1.037 2.454 13.496 1.696 31.726-.48 11.544-.384 16.846.294 16.174 1.765-1.75 3.384-20.513 3.022-35-.299-11.934-.13-14 1.149-14 1.791 0 2.338 23.405.923 39.494-.466 5.298-.453 9.876.03 10.359.758.758 1.383-2.957 2.501-14.853.155-1.65.668-7.05 1.141-12 .472-4.95.869-10.665.882-12.7.013-2.035.34-3.383.727-2.996.962.962 1.306 26.743.497 37.196-.458 5.915-.371 7.602.288 5.547 1.299-4.053 3.007-29.068 2.734-40.047-.129-5.233.196-9.209.777-9.5 1.447-.723 1.881 32.239.579 43.933a4602.93 4602.93 0 0 1-1.701 15.067c-.423 3.658-.302 5.165.362 4.5 2.044-2.049 4.35-22.049 4.932-42.771.328-11.676.761-21.416.962-21.646 2.9-3.3 1.667 42.799-1.599 59.803-1.269 6.603-1.276 7.114-.096 7.114.516 0 1.252-2.138 1.636-4.75.384-2.612 1.055-5.708 1.491-6.88.436-1.171 1.573-9.609 2.526-18.75 1.958-18.777 3.408-21.542 3.408-6.498 0 9.102.159 9.991 1.576 8.815 2.499-2.074 3.392.556 2.727 8.029-.32 3.594-.252 6.229.152 5.856.842-.778 1.121-3.185 2.095-18.072.486-7.433.372-10.75-.371-10.75-.591 0-1.21 2.256-1.377 5.013-.166 2.757-.752 4.895-1.302 4.75-.93-.245-.823-20.67.113-21.68.824-.887 1.351.717 1.73 5.26.383 4.596 1.503 7.427 1.809 4.574.084-.779.257-1.867.385-2.417.128-.55.323-2.35.434-4l.201-3 .953 3c.524 1.65.72 6.15.435 10-.284 3.85-.726 12.4-.981 19l-.464 12 1.377-6.5c1.235-5.83 2.229-17.976 2.434-29.75.123-7.064 1.882-4.766 2.297 3 .418 7.848-1.639 31.975-3.213 37.675-.543 1.966-.591 3.894-.109 4.376 1.081 1.081 3.638-12.778 5.459-29.59.761-7.034 1.724-13.109 2.138-13.5 1.453-1.372-.338 28.413-2.417 40.196-1.921 10.89-2.048 13.893-.521 12.366.308-.308 1.409-5.895 2.447-12.416 7.062-44.386 4.405-77.696-9.573-119.98-9.434-28.537-33.621-68.359-51.403-84.627-5.82-5.324-5.804-4.689.07 2.88m-202.288 1.053c.721.289 1.584.253 1.916-.079.332-.332-.258-.568-1.312-.525-1.165.048-1.402.285-.604.604M532 850.669c0 .539 1.792 2.746 3.983 4.905 4.059 4.001 5.22 7.426 2.517 7.426-1.793 0-1.98 1.585-.309 2.618.655.405 1.368.206 1.583-.441.63-1.888 3.034-1.357 3.726.823.622 1.961 2.5 2.824 2.5 1.149 0-1.132-9.159-13.139-11.865-15.554-1.174-1.048-2.135-1.464-2.135-.926m-4.956 1.819c2.815 3.844 5.956 6.981 5.956 5.948 0-.574-1.668-2.594-3.706-4.49-2.039-1.895-3.052-2.551-2.25-1.458m-12.059 11.997c1.858 1.917 3.559 3.305 3.779 3.084.61-.61-4.947-6.569-6.125-6.569-.567 0 .489 1.568 2.346 3.485M408 865.373c0 .322 1.8 1.505 4 2.627 2.2 1.122 3.996 1.694 3.992 1.27-.004-.423-1.242-1.367-2.75-2.097-4.415-2.137-5.242-2.421-5.242-1.8M425 869c0 .55.45 1 1 1s1-.45 1-1-.45-1-1-1-1 .45-1 1m-17 8.094c0 .498.9.906 2 .906s2-.173 2-.383c0-.211-.9-.619-2-.907-1.1-.287-2-.115-2 .384m-150.333 1.573c-.367.366-.667 1.131-.667 1.7 0 .626.466.567 1.183-.15.651-.651.951-1.416.667-1.7-.284-.285-.817-.217-1.183.15M554 886.441c0 .857.45 1.559 1 1.559s1-.423 1-.941-.45-1.219-1-1.559c-.55-.34-1 .084-1 .941m-404.967 9.493c-5.435 10.83-9.519 20.913-8.773 21.659.25.25 1.413-2.143 2.585-5.319 1.171-3.176 4.369-10.253 7.105-15.728 2.736-5.475 4.794-10.135 4.574-10.355-.22-.221-2.691 4.164-5.491 9.743M163 887.282c-.825.67-2.007 2.568-2.627 4.218-.62 1.65-1.457 3.793-1.861 4.761-.565 1.354-.362 1.619.877 1.143.886-.34 1.611-1.263 1.611-2.051 0-.788.909-3.215 2.02-5.393 2.203-4.318 2.202-4.483-.02-2.678m6.929 7.98c-2.938 3.916-6.94 13.287-6.901 16.158.016 1.144 1.213-.845 2.66-4.42 1.448-3.575 3.718-8.23 5.044-10.344 3.01-4.797 2.462-5.746-.803-1.394m-16.47.805c-.363.586-.445 1.281-.183 1.543s.743-.218 1.069-1.067c.676-1.762.1-2.072-.886-.476m2.067 5.883c-1.745 3.374-1.861 4.05-.694 4.05.458 0 1.316-1.575 1.907-3.5 1.312-4.275.827-4.495-1.213-.55m-4.902.589c-.965 2.514-.681 3.163.498 1.136.584-1.004.851-2.036.593-2.293-.257-.258-.749.263-1.091 1.157m9.376 1.52c0 .582.45.781 1 .441s1-.816 1-1.059-.45-.441-1-.441-1 .477-1 1.059m36.564 2.648c-.542 1.425-.428 1.54.56.56.684-.679.991-1.486.683-1.793-.308-.308-.867.247-1.243 1.233m280.976 8.022c1.628 2.325 3.328 4.238 3.778 4.25 1.034.027-2.642-5.188-4.981-7.068-.966-.776-.425.492 1.203 2.818m-279.384.374c-5.073 8.193-5.379 9.107-3.615 10.795 1.547 1.48 1.623 1.434 1.011-.61-.704-2.351.828-6.09 3.22-7.854.795-.586 1.284-1.839 1.087-2.784-.312-1.49-.537-1.43-1.703.453M348 921.522c-57.187 11.735-88.047 73.625-62.318 124.978 24.274 48.45 86.383 63.041 130.436 30.645 31.24-22.975 43.612-68.241 28.191-103.145-.85-1.925-2.137-4.85-2.859-6.5-1.835-4.195-10.452-16.212-15.08-21.029-19.757-20.569-51.097-30.546-78.37-24.949m135.02 1.002c.696.838 1.471 1.318 1.723 1.067.693-.694-.716-2.591-1.924-2.591-.664 0-.588.574.201 1.524m-246.405 6.941c-1.755 2.679-2.158 4.988-.713 4.096.88-.544 3.321-6.561 2.661-6.561-.183 0-1.06 1.109-1.948 2.465m120.885-.339c-60.583 4.74-92.271 74.853-55.869 123.618 23.443 31.405 68.518 40.346 102.369 20.306 35.085-20.772 48.022-66.083 29.266-102.505-14.537-28.226-43.314-43.958-75.766-41.419m292.723 2.431c-4.765 3.337-1.602 12.443 4.322 12.443 3.078 0 7.455-4.11 7.455-7 0-5.242-7.269-8.601-11.777-5.443m-391.552 7.317c-4.692 6.375-5.492 8.126-3.708 8.126 1.399 0 9.246-11.874 8.777-13.281-.219-.655-2.499 1.665-5.069 5.155m-195.216 3.581c-5.417 5.416-1.874 14.582 5.609 14.513 4.101-.038 6.488-1.659 7.897-5.365 3.22-8.471-7.156-15.499-13.506-9.148M214 945c0 .55.45 1 1 1s1-.45 1-1-.45-1-1-1-1 .45-1 1m-87.841 20.172c-4.44 23.207-5.329 65.249-1.784 84.328 7.296 39.265 17.891 64.913 40.848 98.89 7.243 10.718 23.033 28.613 24.233 27.461.372-.357-3.253-5.532-8.055-11.5s-9.57-12.745-10.595-15.06c-1.024-2.314-2.3-4.478-2.834-4.809-.535-.33-.972-1.038-.972-1.574 0-1.416 5.561 4.568 12.838 13.816 6.198 7.876 15.864 17.998 11.588 12.135-1.059-1.453-4.694-6.006-8.078-10.119-3.383-4.113-8.073-10.574-10.421-14.359-2.348-3.785-4.867-7.591-5.598-8.46-1.479-1.757-1.793-4.921-.488-4.921.463 0 2.066 2.25 3.562 5 1.497 2.75 3.144 5 3.659 5 .516 0 .938.46.938 1.021 0 1.042 9.826 13.979 10.617 13.979.437 0-.97-2.661-4.666-8.824-1.953-3.257-1.954-3.312-.056-2.709 2.433.772 3.779-1.201 1.899-2.784-1.788-1.505-8.794-13.123-8.794-14.584 0-2.514 2.157-.757 5.515 4.492 1.967 3.075 4.504 6.562 5.638 7.75 1.134 1.187 3.121 3.809 4.414 5.825 2.626 4.093 5.191 6.251 4.123 3.469-.357-.932-3.848-6.374-7.756-12.095-3.909-5.721-6.955-11.192-6.769-12.156.222-1.156 2.684 1.747 7.207 8.499 3.779 5.64 10.452 13.935 14.829 18.435 7.643 7.858 8.616 7.831 1.946-.055-3.754-4.438-12.147-17.148-12.147-18.395 0-.478-.45-.868-1-.868s-1-.454-1-1.009c0-.554-1.342-2.861-2.982-5.125-1.64-2.264-2.722-4.537-2.404-5.051.659-1.065 3.306 2.041 3.354 3.935.018.688.41 1.25.871 1.25.462 0 1.383 1.191 2.046 2.647 1.698 3.727 4.41 7.152 13.983 17.664 12.334 13.545 12.961 12.373.86-1.608-3.877-4.479-17.728-25.262-17.728-26.6 0-3.234 3.396.289 11.273 11.694 9.42 13.641 18.19 24.073 19.303 22.961.377-.378-2.571-4.415-6.552-8.972-8.729-9.993-20.024-26.532-20.024-29.321 0-2.402 3.716.878 7.689 6.785 8.753 13.017 10.793 15.674 12.061 15.712 1.881.057 1.508-1.423-.896-3.557-4.757-4.222-14.383-20.96-12.665-22.022.68-.42 1.641.022 2.249 1.037 3.312 5.521 10.874 16.471 13.044 18.888 4.236 4.717 4.912 1.95.766-3.135-3.513-4.31-6.133-8.119-10.681-15.53-1.086-1.769-1.398-3.212-.82-3.79.578-.578 2.613 1.744 5.343 6.098 4.12 6.568 5.91 8.406 5.91 6.068 0-.539-1.575-3.442-3.5-6.452-1.925-3.009-3.5-6.141-3.5-6.96 0-3.653 2.105-2.05 6.109 4.651 5.088 8.516 6.731 6.971 1.827-1.718-1.748-3.097-2.865-5.944-2.482-6.327s1.072-.025 1.531.795c.795 1.419 5.727 7.998 8.104 10.808 2.855 3.375 1.602-.227-2.037-5.857-6.611-10.228-4.852-12.972 1.922-2.998 6.424 9.461 21.947 27.415 21.998 25.444.015-.602-2.917-4.427-6.517-8.5-8.239-9.32-17.231-22.076-17.382-24.655-.162-2.774 3.623-1.111 5.254 2.309 2.365 4.961 9.058 13.883 15.52 20.691 7.834 8.254 8.531 7.101.906-1.5-10.829-12.216-18.312-23.036-17.189-24.854 1.058-1.712 2.118-.867 5.462 4.354 4.79 7.477 10.695 14.575 16.444 19.764 4.724 4.264 4.634 4.091-1.822-3.514-5.66-6.667-15.648-21.371-15.648-23.035 0-1.92 3.059.411 5.751 4.381 4.361 6.434 10.364 13.373 11.009 12.727.287-.287-1.293-2.896-3.512-5.798-4.369-5.712-8.238-11.826-8.244-13.025-.01-1.91 1.979-.371 4.522 3.5 1.536 2.338 5.057 6.5 7.825 9.25l5.033 5-5.006-6.5c-4.724-6.134-9.807-14.104-9.169-14.376.16-.068 1.28-.675 2.488-1.349 1.961-1.094 2.469-.88 4.739 2 2.646 3.357 3.609 2.69 1.032-.716-.807-1.068-1.468-2.755-1.468-3.75 0-2.5 2.716-2.28 3.53.286.644 2.028 10.24 14.383 15.776 20.312 5.045 5.403 3.835 1.873-1.557-4.541-6.719-7.992-11.377-14.703-12.227-17.616-1.125-3.856 1.042-2.477 4.718 3 4.273 6.368 14.792 18.051 15.56 17.283.305-.305-.581-1.787-1.97-3.293-5.023-5.454-7.31-10.24-4.893-10.24.515 0 2.536 1.688 4.491 3.75 5.226 5.514 4.35 2.927-2.434-7.187-5.581-8.322-7.07-11.597-5.244-11.539.413.013 2.746 2.952 5.185 6.531 4.748 6.966 6.757 9.086 7.71 8.134.328-.329-1.487-3.517-4.033-7.085-5.42-7.595-6.361-9.612-4.469-9.583.746.012 2.609 1.792 4.139 3.955 3.861 5.458 12.713 15.024 13.902 15.024.825 0-4.327-7.429-6.242-9-1.461-1.199-7.942-11.592-7.942-12.737 0-2.505 1.696-1.153 6.256 4.987 5.448 7.335 10.457 12.75 11.795 12.75 1.504 0 1.161-.689-2.301-4.629-7.532-8.571-11.619-14.824-10.539-16.125.814-.981 1.755-.294 4.09 2.99 3.609 5.075 11.782 13.764 12.948 13.764.453 0-1.486-2.775-4.308-6.167-5.627-6.762-8.739-12.383-7.511-13.57.434-.42 1.517.362 2.406 1.737 2.422 3.741 12.945 14.552 13.564 13.933.296-.296-1.432-2.79-3.839-5.542-5.819-6.652-9.082-12.391-7.044-12.391.816 0 1.483.373 1.483.83 0 1.253 11.018 13.17 12.177 13.17.555 0-.945-2.272-3.334-5.048-19.014-22.102-26.518-48.634-22.543-79.702.482-3.772.429-6.25-.134-6.25-1.69 0-2.284 4.308-2.76 20-.262 8.645-.898 15.647-1.438 15.833-1.125.388-1.185-23.245-.081-32.083.395-3.163.454-5.75.131-5.75-1.414 0-3.286 12.559-3.689 24.75-.269 8.144-.834 13.25-1.468 13.25-.672 0-.931-4.931-.745-14.183.209-10.364-.037-14.291-.915-14.583-.804-.268-1.201.949-1.201 3.683 0 2.246-.465 4.083-1.034 4.083-.662 0-.798 1.783-.379 4.947.821 6.184-.381 16.99-1.664 14.963-1.068-1.687-1.056-12.079.023-20.41.793-6.12.411-8.695-.96-6.477-.655 1.059-2.035 15.842-2.379 25.477-.059 1.65-.557 3.225-1.107 3.5-.636.318-1.182-5.326-1.5-15.5l-.5-16-1.25 7.791c-.687 4.285-1.25 10.671-1.25 14.191 0 3.52-.45 6.678-1 7.018-1.884 1.165-.604-26.26 1.644-35.217.404-1.612.135-2.283-.917-2.283-1.776 0-3.783 6.991-4.307 15-.746 11.404-1.577 16.364-2.497 14.91-1.302-2.056-1.089-10.082.553-20.869.791-5.203 1.226-9.673.965-9.933-2.233-2.234-5.441 16.564-5.441 31.885 0 6.005-.4 10.007-1 10.007-1.525 0-1.202-27.342.413-35 1.351-6.407.852-11.315-.559-5.495-.399 1.647-1.211 4.925-1.804 7.283-.592 2.359-1.233 10.888-1.424 18.954-.203 8.601-.761 14.803-1.349 14.999-2.043.681-2.475-13.865-.929-31.241.617-6.942.611-6.966-.76-2.887-1.675 4.985-3.659 23.095-3.242 29.587.166 2.585-.069 4.471-.522 4.191-.453-.28-.824-6.107-.824-12.95 0-6.843-.398-12.441-.884-12.441-1.18 0-2.22 10.967-1.778 18.755.253 4.47-.042 6.585-1.034 7.408-2.326 1.93-3.457-.427-3.742-7.799-.146-3.775-.392-10.014-.547-13.864l-.281-7-.912 8c-.502 4.4-.64 11.375-.307 15.5.498 6.181.374 7.27-.705 6.195-.967-.964-1.299-5.218-1.267-16.265.06-20.44-1.871-19.566-2.543 1.151-.639 19.698-1.896 18.237-1.671-1.941.094-8.419-.054-15.533-.329-15.81-1.071-1.077-2.712 18.617-2.212 26.556.436 6.928.283 8.304-.88 7.914-1.962-.659-2.35-35.623-.452-40.8 1.772-4.836 2.824-12.738 1.896-14.239-.726-1.176-2.118 5.609-4.356 21.239-.512 3.575-.945 12.436-.963 19.691-.032 12.763-.777 15.965-3.159 13.583-2.34-2.34-.256-44.71 2.645-53.795.532-1.666.466-1.723-.42-.36-2.15 3.309-5.099 26.653-5.099 40.364 0 8.345-.383 13.517-1 13.517-1.879 0-1.485-28.248.613-43.847.839-6.242 1.313-11.56 1.054-11.819-.812-.812-2.71 9.712-3.727 20.662-.536 5.777-1.169 12.304-1.407 14.504-.237 2.2-.454 7.938-.482 12.75-.028 4.813-.46 8.75-.96 8.75-1.527 0-1.22-33.519.402-44 1.557-10.054 1.874-14.7.941-13.767-1.845 1.845-4.61 25.735-4.776 41.267-.154 14.3-.419 17-1.67 17-3.185 0-1.979-32.994 1.954-53.47.962-5.006 1.382-9.33.933-9.607-.449-.278-1.081.751-1.403 2.286a710.383 710.383 0 0 1-1.48 6.791c-2.056 9.208-4.994 35.459-5.022 44.866-.021 6.968-.331 9.62-.992 8.489-1.93-3.307-1.274-34.217.972-45.741.578-2.963 1.004-6.113.948-7-.099-1.554-.524-.296-2.832 8.386-.985 3.703-2.927 34.542-2.676 42.485.078 2.482-.358 3.576-1.518 3.8-2.002.387-3.326-12.174-2.454-23.285 1.38-17.595 1.62-25.5.771-25.5-1.217 0-2.054 8.165-2.845 27.75-.374 9.259-1.07 16.25-1.617 16.25-.578 0-.709-2.485-.328-6.25.347-3.437.276-6.787-.158-7.443-.434-.657-.277-7.857.349-16 .626-8.144.974-14.994.774-15.224-.912-1.044-1.539 1.276-2.31 8.557-.458 4.323-1.128 8.576-1.489 9.45-.361.875-.748 8.487-.861 16.917-.141 10.613-.562 15.447-1.369 15.715-2.598.865-2.839-25.121-.422-45.62.396-3.356.441-6.102.101-6.102-1.229 0-3.341 20.831-3.65 35.992-.191 9.402-.718 15.626-1.34 15.833-.563.188-1.069-1.158-1.124-2.992-.055-1.833-.203-5.808-.328-8.833-.25-6.021.985-28.41 2.027-36.75.41-3.288.28-5.25-.35-5.25-1.153 0-3.181 11.974-3.895 23-.267 4.125-.86 8.673-1.318 10.106-.46 1.441-.437 3.23.051 4 1.17 1.848 1.171 16.894.001 16.894-2.014 0-2.811-31.619-1.045-41.5.491-2.75 1.359-8.364 1.929-12.475.57-4.111 1.289-8.273 1.599-9.25.31-.976.147-1.775-.361-1.775-1.538 0-5.499 20.929-6.673 35.253-.47 5.734-1.081 8.529-1.772 8.102-1.591-.984-.15-22.229 2.225-32.804 2.351-10.466 2.444-11.951.537-8.551-2.045 3.648-5.455 27.142-5.781 39.828-.103 4.03-.496 7.518-.873 7.751-.377.232-.432 1.393-.122 2.578.386 1.474.199 1.93-.591 1.442-.635-.393-1.438-2.488-1.785-4.656-.697-4.36-2.375-5.379-2.375-1.443 0 2.799-1.94 3.49-2.105.75-.389-6.458-.325-11.59.213-17.25.34-3.575.297-7.113-.097-7.862-1.021-1.942-1.781 2.579-2.514 14.953-.34 5.725-.888 11.534-1.219 12.909-.602 2.499-.603 2.499-1.19-.427-1.235-6.148.983-32.377 4.445-52.573.399-2.328.293-2.998-.318-2-.945 1.545-3.661 15.615-4.738 24.548-.335 2.776-1.022 5.701-1.528 6.5-1.413 2.234-1.107-9.997.538-21.509 1.535-10.741 1.333-14.048-.328-5.367m84.293 7.46a279.034 279.034 0 0 1-1.543 6.368c-.494 1.925-.854 4.625-.801 6 .089 2.319.154 2.283.903-.5 1.989-7.401 3.158-13.664 2.645-14.177-.307-.307-.849.732-1.204 2.309M139 977.559c0 .857.45 1.281 1 .941.55-.34 1-1.041 1-1.559s-.45-.941-1-.941-1 .702-1 1.559m166.172 3.517c-1.392 6.032-1.519 10.924-.283 10.924.488 0 1.184-1.575 1.545-3.5.867-4.623 2.238-4.431 3.566.5 1.534 5.699 4.504 5.561 5.399-.25.36-2.337.918-5.712 1.239-7.5.446-2.482.23-3.25-.915-3.25-.928 0-1.756 1.36-2.169 3.564-.791 4.216-2.898 4.128-3.392-.141-.338-2.917-1.776-5.423-3.113-5.423-.388 0-1.233 2.284-1.877 5.076m13.841 4.354c-1.551 8.219-1.063 9.57 3.456 9.57 3.878 0 4.868-1.67 1.291-2.18-2.912-.416-3.708-3.82-.892-3.82 2.865 0 3.754-2.025 1.184-2.697-2.889-.755-2.24-3.886.739-3.565 1.396.151 2.209-.309 2.209-1.25 0-.818-.863-1.488-1.918-1.488s-2.574-.252-3.376-.559c-1.119-.43-1.744.961-2.693 5.989m11.169-2.343c-2.229 6.03-2.277 10.818-.131 12.964 3.957 3.957 8.322.096 9.525-8.429.943-6.674-1.593-5.895-3.042.936-1.784 8.408-6.022 7.437-4.443-1.018 1.024-5.478-.347-8.676-1.909-4.453m-118.738 2.357c-.376 2.007-.434 3.899-.129 4.205.306.305.864-1.087 1.241-3.093.376-2.007.434-3.899.129-4.205-.306-.305-.864 1.087-1.241 3.093m130.545 5.621c-.655 3.886-.951 7.306-.657 7.6.976.976 2.668-.752 2.668-2.724 0-2.99 1.763-2.297 2.482.975.714 3.254 3.528 5.103 3.503 2.303-.009-.946-.434-2.381-.946-3.189-.641-1.014-.272-2.536 1.19-4.9l2.119-3.43-2.285-1.85c-4.799-3.886-6.752-2.625-8.074 5.215m-205.318-1.315c-1.653 13.383-1.897 19.25-.8 19.25.696 0 1.168-2.204 1.23-5.75.127-7.292.783-15.381 1.377-17 .253-.687.081-1.25-.381-1.25-.461 0-1.103 2.138-1.426 4.75m445.668 5c.339 4.813.626 8.862.639 9 .012.138.472.25 1.022.25 1.134 0 1.31-6.459.364-13.36-1.147-8.371-2.685-5.251-2.025 4.11m5.378-8c-.221.413-.068 1.875.341 3.25.433 1.458.784 1.805.842.832.055-.918.373-2.38.707-3.25.596-1.553-1.104-2.301-1.89-.832M345 989c0 1.111.667 2 1.5 2s1.5-.889 1.5-2-.667-2-1.5-2-1.5.889-1.5 2m9.557.223c-4.275 6.102.235 15.587 5.974 12.565C367.306 998.221 366.145 987 359 987c-1.849 0-3.446.799-4.443 2.223M567 988.559c0 .857.45 1.281 1 .941.55-.34 1-1.041 1-1.559s-.45-.941-1-.941-1 .702-1 1.559m-199.374 6.101c.774 6.805 1.914 10.34 3.335 10.34.785 0 5.311-7.624 7.865-13.25 1.384-3.049-3.239.138-4.887 3.369-2.384 4.673-3.659 4.196-4.122-1.542-.174-2.157-.888-4.11-1.586-4.339-.978-.322-1.117.925-.605 5.422M539 990.5c0 .825.436 1.5.969 1.5.532 0 .709-.675.393-1.5-.317-.825-.753-1.5-.969-1.5-.216 0-.393.675-.393 1.5m64.252 2c.011 2.2.216 2.982.455 1.738.239-1.244.23-3.044-.02-4s-.446.062-.435 2.262m-246.219-1.04c-1.573 1.896-1.676 6.297-.182 7.791 1.867 1.867 5.301-2.084 4.948-5.692-.338-3.435-2.768-4.506-4.766-2.099m24.647.249c-1.395 2.256-3.469 13.87-2.63 14.724 1.394 1.42 1.871.446 3.434-7.026 1.256-6.005.807-10.305-.804-7.698m5.52 2.491c-1.853 1.853-1.421 5.645.8 7.032 3.003 1.876 2.459 3.768-1.083 3.768-4.081 0-3.358 2.391.848 2.809 5.188.515 7.435-3.947 3.865-7.673-2.761-2.882-2.598-4.136.537-4.136 2.576 0 2.287-1.645-.417-2.37-3.05-.817-3.179-.801-4.55.57m10.291 2.05c-2.305 6.466-1.963 15.749.484 13.113 1.372-1.478 2.334-14.363 1.073-14.363-.611 0-1.311.563-1.557 1.25m6.1 3c-4.022 6.217-2.292 12.75 3.375 12.75 3.671 0 6.034-3.159 6.034-8.068 0-6.26-6.346-9.418-9.409-4.682m-92.418 5.115c-1.498 8.129-1.479 8.635.327 8.635.993 0 1.5-.993 1.5-2.941 0-4.596 1.686-4.5 3.247.185 2.316 6.95 4.314 6.086 5.575-2.412.593-3.996.906-7.437.695-7.649-1.021-1.02-2.517 1.249-2.517 3.817 0 3.871-1.791 4.782-2.54 1.291-1.999-9.322-4.668-9.715-6.287-.926m105.544-5.668c-.381.654-1.988 10.699-2.169 13.553-.139 2.185 2.037.432 2.716-2.189 1.043-4.026 2.359-3.884 3.151.339 1.622 8.645 4.745 6.175 6.121-4.842.81-6.486-1.377-7.877-2.644-1.682-.993 4.853-1.595 4.762-3.071-.462-1.263-4.472-3.052-6.527-4.104-4.717m-11.339 3.636c-1.924 4.036-1.304 6.667 1.572 6.667 2.179 0 3.459-3.138 2.883-7.07-.526-3.591-2.641-3.4-4.455.403m-78.455 1.59c-5.195 5.195-3.186 13.077 3.333 13.077 6.189 0 8.778-10.07 3.664-14.25-2.879-2.353-3.59-2.233-6.997 1.173m12.173 1.858c.202 5.69 2.411 13.719 3.775 13.719.754 0 3.094-3.038 5.201-6.75 3.128-5.514 3.518-6.749 2.129-6.742-.942.004-2.799 1.899-4.163 4.25l-2.461 4.242-.852-5.167c-.924-5.61-3.801-8.426-3.629-3.552m-11.028 1.093c-1.417 2.646-1.347 4.363.267 6.57 1.822 2.491 5.909-1.575 5.459-5.429-.38-3.251-4.191-4.01-5.726-1.141m25.772 2.037c-1.538 4.031-2.771 11.517-2.019 12.253.374.365 1.99.815 3.592 1 3.345.386 4.696-1.641 1.628-2.443-2.614-.684-2.639-2.752-.041-3.431 2.335-.611 2.606-1.843.578-2.622-2.267-.87-.771-4.864 1.546-4.129 1.247.396 1.876.109 1.876-.858 0-2.883-6.046-2.689-7.16.23m10.16 2.341c0 1.316-.726 4.521-1.612 7.124-.887 2.603-1.367 4.978-1.067 5.278 1.035 1.035 2.527-.684 3.182-3.665.89-4.053 2.307-3.772 2.687.532.414 4.703 1.877 4.781 4.308.232 2.617-4.898 3.367-4.736 2.766.597-.382 3.386-.133 4.486 1.123 4.968 1.239.476 1.615-.011 1.622-2.099.004-1.496.292-5.081.639-7.969.764-6.364-2.323-7.714-5.148-2.25-2.083 4.029-3.315 3.779-3.69-.75-.378-4.577-4.81-6.417-4.81-1.998m-221.078 2.498c-.294 14.129-.112 17.25 1.008 17.25.523 0 .876-4.6.805-10.5-.116-9.67-1.635-15.324-1.813-6.75m370.35 1.25c0 2.475.195 3.487.434 2.25.238-1.237.238-3.263 0-4.5-.239-1.237-.434-.225-.434 2.25m-130.768-1.75c-4.026 11.611-3.394 14.75 2.971 14.75 3.745 0 4.766-1.543 3.897-5.89-.325-1.627-.097-3.162.527-3.548 2.063-1.275 1.107-3.331-2.3-4.948-4.092-1.942-4.537-1.973-5.095-.364m1.673 3.417c.486 2.509 2.823 2.853 2.823.416 0-1.228-.646-2.083-1.573-2.083-.932 0-1.442.68-1.25 1.667m8.926 4.665c-1.42 8.153-1.396 8.668.397 8.668.933 0 1.5-.944 1.5-2.5 0-3.436 1.698-3.152 2.482.416.604 2.752 2.68 4.588 3.856 3.412.294-.293.09-1.702-.453-3.129-.758-1.994-.569-3.378.814-5.973 1.786-3.349 1.781-3.394-.56-5.302-4.704-3.834-6.801-2.684-8.036 4.408m13.467-3.445c-.218.353-.917 3.514-1.554 7.024-1.288 7.102-.793 8.046 4.234 8.074 3.186.017 3.688-1.506.75-2.275-1.1-.287-2-1.24-2-2.116 0-.927.837-1.594 2-1.594 2.723 0 2.541-2.625-.233-3.351-2.432-.636-1.572-2.204 1.536-2.802.991-.191 1.801-.797 1.799-1.347-.003-1.135-5.924-2.597-6.532-1.613m94.588 1.113c0 1.375.227 1.938.504 1.25.278-.687.278-1.812 0-2.5-.277-.687-.504-.125-.504 1.25M396 1020c0 1.111.667 2 1.5 2s1.5-.889 1.5-2-.667-2-1.5-2-1.5.889-1.5 2m-13 4c0 1.506.522 2.046 1.75 1.81.962-.186 1.75-1 1.75-1.81s-.788-1.624-1.75-1.81c-1.228-.236-1.75.304-1.75 1.81m117.583-1.134c-.431.697-.513 1.537-.183 1.867.895.895 1.871-.421 1.387-1.871-.338-1.016-.574-1.016-1.204.004m-367.137 1.221c-.369.598-.171 1.588.441 2.2.817.817 1.113.528 1.113-1.087 0-2.415-.519-2.787-1.554-1.113m5.57.913c-.617 1.687-.568 5.159.079 5.559 1.249.772 1.643-.881.847-3.559-.408-1.375-.825-2.275-.926-2m-10.784 4c0 1.925.206 2.713.457 1.75.252-.963.252-2.537 0-3.5-.251-.963-.457-.175-.457 1.75m37.351-2.134c-.431.697-.513 1.537-.183 1.867.895.895 1.871-.421 1.387-1.871-.338-1.016-.574-1.016-1.204.004m347.25 2.884c-.61 10.019-.529 13.613.261 11.5 1.013-2.708 1.727-2.806 3.627-.5 1.365 1.656 1.411 1.652.861-.082-.32-1.007-.582-2.42-.582-3.139 0-.719-.762-1.244-1.693-1.168-1.407.115-1.648-.665-1.425-4.611.148-2.612.01-4.75-.306-4.75-.317 0-.651 1.237-.743 2.75m-378.754.833c.048 1.165.285 1.402.604.605.289-.722.253-1.585-.079-1.917-.332-.332-.568.258-.525 1.312m375 2c.048 1.165.285 1.402.604.605.289-.722.253-1.585-.079-1.917-.332-.332-.568.258-.525 1.312m5.38 17.484c-.363.586-.445 1.281-.183 1.543s.743-.218 1.069-1.067c.676-1.762.1-2.072-.886-.476M450.5 1055c-.34.55-.141 1 .441 1s1.059-.45 1.059-1-.198-1-.441-1-.719.45-1.059 1m4.5 3.196c0 1.584-5.032 8.804-6.136 8.804-1.285 0-1.045-3.419.336-4.8.782-.782.824-1.2.122-1.2-.592 0-1.637.675-2.322 1.5-1.736 2.092-3 1.87-3-.526 0-1.481-1.637-.123-6.092 5.052-18.064 20.99-46.269 34.974-70.536 34.974-4.915 0-8.372.413-8.372 1 0 2.165-20.931-.287-26.109-3.058-1.101-.59-2.539-.889-3.196-.665-1.532.522 6.601 4.723 9.143 4.723 1.055 0 3.533.675 5.508 1.5 1.974.825 5.292 1.532 7.372 1.57 2.08.039 4.682.457 5.782.93l2 .859-2 .228c-4.851.553-15.192-.967-21.867-3.213-5.758-1.937-7.417-1.951-6.244-.053.807 1.305 15.416 5.163 22.713 5.997 6.563.751 8.321 2.498 3.023 3.005-3.778.361-16.358-2.093-22.936-4.474-3.862-1.398-6.459-1.285-4.958.216 1.568 1.568 16.04 5.733 23.41 6.738 4.608.629 8.23 1.583 8.051 2.121-.746 2.239-15.295-.048-30.942-4.866-4.972-1.531-6.789-.284-2.154 1.479 6.106 2.321 20.378 5.882 26.154 6.525 5.717.637 7.097 1.258 5.761 2.594-1.378 1.378-23.114-2.74-30.383-5.757-4.042-1.677-4.128-1.684-4.128-.344 0 2.002 10.534 5.813 22.25 8.049 11.888 2.268 16.321 4.611 6.374 3.368-6.843-.855-26.571-4.895-28.874-5.912-.985-.436-1.75-.357-1.75.181 0 2.014 18.281 7.981 27.134 8.857 8.042.795 10.024 1.337 9.281 2.54-.736 1.191-13.729.437-21.298-1.237-4.471-.989-6.222-.588-4.55 1.042 1.208 1.177 16.5 4.057 21.543 4.057 2.86 0 3.89.414 3.89 1.562 0 2.276-18.892.127-27.25-3.1-1.02-.394-1.75-.214-1.75.431 0 .609.93 1.107 2.066 1.107 1.136 0 2.925.46 3.975 1.022 1.05.562 6.757 1.865 12.684 2.897l10.775 1.875-6.562.103c-3.731.059-9.928-.779-14.367-1.941-7.978-2.09-11.712-2.172-7.982-.176 2.608 1.396 21.157 5.22 25.318 5.22 2.083 0 3.093.49 3.093 1.5 0 2.373-20.442.564-28.575-2.529-3.228-1.227-6.161-1.282-4.875-.092 2.23 2.064 21.007 6.064 28.641 6.103 3.459.017 5.791 1.342 4.075 2.314-1.392.789-16.627-1.28-24.643-3.345-7.649-1.972-10.025-1.953-8.01.062 1.524 1.524 16.03 4.869 24.806 5.719 7.707.747 12.337 3.291 5.914 3.25-4.214-.028-24.669-3.785-30.825-5.663-1.69-.515-1.801-.377-.733.91 1.577 1.899 9.778 4.177 22.725 6.309 13.285 2.188 14.946 3.911 3 3.112-13.199-.884-40.486-8.053-45.25-11.888-.828-.667-1.25-.67-1.25-.008 0 3.52 36.583 14.211 48.801 14.261 4.374.018 6.76 1.269 5.697 2.988-1.535 2.484-27.101-2.043-42.998-7.614-12.42-4.352-15.327-5.042-9.513-2.257 11.936 5.719 31.024 11.072 44.277 12.417 6.138.623 8.791 1.729 7.426 3.095-1.49 1.49-26.505-3.048-39.787-7.218-18.524-5.816-18.808-5.892-16.903-4.516 5.489 3.963 33.736 12.293 47.33 13.958 4.306.527 8.093 1.222 8.416 1.545 1.585 1.585-1.687 1.783-11.978.727-14.183-1.457-24.594-3.991-39.137-9.526-8.588-3.268-10.917-3.31-3.778-.068 15.354 6.974 39.723 13.454 50.595 13.454 2.504 0 4.552.45 4.552 1 0 3.873-38.938-3.499-55.5-10.508-5.61-2.374-8.297-2.719-4.367-.56 12.268 6.739 43.22 14.966 56.617 15.048 2.213.014 3.25.498 3.25 1.52 0 2.231-13.111 1.828-25-.768-12.676-2.767-17.816-4.065-19.347-4.883-1.684-.9-3.594-.456-2.546.592 1.454 1.454 23.36 6.688 34.143 8.158 12.556 1.711 16.817 3.411 8.5 3.391-4.311-.011-23.143-3.138-30-4.982-8.847-2.379-10.346-2.817-12.101-3.539-1.447-.594-1.775-.367-1.5 1.041.437 2.243 6.617 4.382 21.351 7.392 6.05 1.236 13.7 2.851 17 3.589l6 1.342-5.257.083c-6.842.109-22.822-2.337-31.98-4.895-3.981-1.111-8.256-1.969-9.5-1.905-2.014.103-2.043.165-.263.56 1.1.244 3.659 1.077 5.687 1.851 7.521 2.869 23.613 6.486 33.278 7.479 5.48.563 10.393 1.452 10.917 1.976 4.166 4.166-22.841.946-44.837-5.344-4.925-1.409-9.152-2.364-9.393-2.123-.241.241.414.714 1.455 1.052a49.264 49.264 0 0 1 3.893 1.501c4.783 2.122 17.995 5.932 20.569 5.932 1.547 0 3.067.411 3.377.913.311.502 2.362 1.217 4.559 1.588s3.995 1.085 3.995 1.587-.113.903-.25.892c-.137-.01-3.85-.696-8.25-1.523s-8.9-1.667-10-1.866c-3.66-.664-9.93-2.353-16.255-4.38-5.847-1.874-9.494-1.463-5.523.622 2.449 1.285 23.976 8.097 27.176 8.599l6.852 1.076c4.882.767 5.729 2.492 1.224 2.492-2.889 0-16.033-2.923-22.545-5.014-1.689-.542-3.706-.986-4.481-.986-2.268 0-21.948-8.195-21.948-9.14 0-.473-.45-.86-1-.86-2.275 0-.768 2.881 2.25 4.301 20.074 9.44 38.928 14.583 59.87 16.329 5.643.471 7.88 1.042 7.88 2.014 0 1.894-4.864 1.735-17.199-.562-5.666-1.055-12.497-2.216-15.181-2.581-2.684-.364-5.834-1.031-7-1.481-1.166-.45-5.045-1.59-8.62-2.533-3.575-.943-8.508-2.344-10.961-3.112-6.536-2.047-3.576.112 3.461 2.525 3.3 1.131 7.921 2.742 10.269 3.58 8.175 2.917 22.164 5.932 32.231 6.947 8.999.907 11.906 1.695 9.5 2.574-4.891 1.787-31.71-2.835-55.5-9.566-1.717-.486-2.187-.382-1.5.331 1.659 1.722 21.517 7.938 29.81 9.332 6.068 1.019 7.689 1.641 7.436 2.853-.191.919-1.12 1.411-2.284 1.209-1.079-.187-3.087-.339-4.462-.338-1.375.001-2.95-.347-3.5-.774-.55-.426-4.375-1.551-8.5-2.499-4.125-.948-10.314-2.621-13.753-3.719-7.564-2.413-10.762-1.902-3.731.597 2.741.975 6.559 2.396 8.484 3.16 1.925.763 7.599 2.28 12.608 3.371 9.632 2.097 14.392 3.612 14.392 4.579 0 2.314-36.675-6.809-48.515-12.068-4.776-2.122-8.485-3.452-8.485-3.043 0 2.347 23.818 11.271 42 15.737 13.634 3.349 17.425 4.791 12.5 4.754-5.804-.044-18.144-2.692-32-6.866-17.618-5.309-18.5-5.511-18.5-4.239 0 2.823 34.546 12.896 56 16.328 14.753 2.36 54.683 1.788 70.5-1.011 61.758-10.927 110.077-39.188 151.274-88.479 7.652-9.155 27.161-40.65 25.18-40.65-.525 0-.954.388-.954.862 0 .475-1.35 2.562-3 4.638-3.649 4.592-3.726 4.147-.5-2.906 1.375-3.006 2.5-5.81 2.5-6.23 0-2.075-2.61 2.398-6.919 11.858-6.012 13.199-12.087 23.172-13.348 21.911-.584-.584.573-3.521 3.068-7.786 4.323-7.389 6.72-13.678 3.754-9.847a69.87 69.87 0 0 1-3.441 4.026c-1.041 1.114-3.023 4.039-4.405 6.5-2.633 4.688-4.43 5.171-3.893 1.047.275-2.116.112-2.258-1.275-1.107-4.261 3.537-2.559-2.247 2.685-9.118 1.668-2.185 2.539-4.298 2.169-5.261-.455-1.187-.191-1.446 1.005-.987 1.197.459 1.46.2 1.004-.989-.905-2.359-1.75-1.998-3.839 1.639-2.653 4.62-8.69 11.959-9.319 11.329-.292-.292.066-1.25.795-2.128 2.569-3.096 16.328-30.66 17.321-34.701 1.26-5.125-1.784-2.965-3.543 2.514-1.705 5.314-9.341 19.446-12.235 22.643-.871.963-1.584 2.297-1.584 2.965 0 1.723-4.786 6.675-5.633 5.828-.387-.387.663-2.615 2.333-4.952 2.687-3.76 12.841-22.905 15.956-30.083.678-1.564.776-2.898.238-3.231-.505-.312-2.29 2.501-3.967 6.25-5.957 13.315-17.842 32.072-18.697 29.507-.202-.607 1.599-4.386 4.003-8.398 4.429-7.389 11.767-22.016 11.767-23.454 0-1.357-3.216 3.735-7.321 11.591-4.325 8.279-10.354 17.07-11.705 17.07-2.145 0-1.556-2.07 2.23-7.83 2.246-3.418 3.828-6.472 3.514-6.785-.314-.314-1.266.708-2.116 2.272-3.058 5.622-7.484 9.986-8.519 8.398-.687-1.054.079-2.679 2.83-6 6.898-8.328 11.207-17.213 9.481-19.55-1.739-2.355-1.136-3.074-8.896 10.603-6.065 10.689-8.111 13.065-9.079 10.542-.365-.952 2.001-5.979 5.988-12.718C534.529 1098.895 534.48 1099 533 1099c-.55 0-1 .412-1 .915 0 1.862-12.528 21.085-13.741 21.085-.693 0-1.259-.259-1.259-.576 0-.981 11.282-20.48 12.166-21.026.459-.284.834-1.813.834-3.398 0-1.585.396-3.127.879-3.425.484-.299 1.124-1.477 1.422-2.617.445-1.701.287-1.861-.88-.893-.781.649-1.421 1.618-1.421 2.153 0 .535-.84 2.168-1.868 3.628-1.027 1.46-3.349 5.579-5.16 9.154-3.758 7.417-7.632 13-9.023 13-1.401 0-1.153-2.114.461-3.921 2.182-2.443 7.839-13.163 7.255-13.747-.497-.498-5.665 6.996-5.665 8.215 0 1.106-5.237 7.453-6.15 7.453-1.963 0-2.007-3.206-.074-5.301 1.116-1.209 3.016-3.999 4.223-6.199 1.207-2.2 3.534-6.362 5.171-9.25 1.637-2.888 2.606-5.244 2.153-5.236-.452.008-2.739 3.577-5.081 7.933-4.377 8.14-8.724 14.053-10.331 14.053-1.647 0-.959-1.927 2.411-6.748 4.033-5.769 11.051-19.212 10.38-19.883-.651-.651-3.636 3.866-7.241 10.956-3.168 6.232-8.014 12.675-9.534 12.675-1.674 0-.977-1.925 2.444-6.748 4.039-5.693 12.643-22.863 12.596-25.138-.018-.888-2.481 3.276-5.473 9.253-5.783 11.552-11.188 19.551-13.244 19.602-1.908.047-1.49-2.795.767-5.218 2.076-2.228 11.993-21.465 11.987-23.251-.002-.55-2.395 3.327-5.317 8.616-5.908 10.694-9.559 15.746-11.437 15.829-1.734.076-1.716.026 2.611-7.096 5.875-9.671 10.139-18.536 10.135-21.07-.003-1.382-2.559 2.433-6.492 9.685-6.241 11.51-9.836 16.537-10.996 15.377-.301-.301 1.931-4.776 4.961-9.944 5.471-9.331 7.468-14.931 3.531-9.897-1.076 1.375-1.966 2.88-1.978 3.343-.047 1.782-8.511 13.657-9.734 13.657-1.801 0-1.605-1.733.548-4.846 3.412-4.932 3.382-5.675-.068-1.733-4.713 5.385-9.616 3.524-5.216-1.98 1.493-1.868 1.529-1.847.948.559s-.545 2.427.948.559c1.065-1.331 1.209-2.153.46-2.616-.779-.481-.786-1.215-.025-2.559 2.075-3.665 4.003-9.384 3.164-9.384-.468 0-1.35 1.43-1.959 3.178-1.662 4.766-7.156 12.898-8.255 12.219-.577-.357-.417-1.258.4-2.246 3.677-4.453 9.861-19.525 6.566-16.004-.714.764-2.354 3.406-3.643 5.871-2.958 5.658-6.869 10.602-7.716 9.755-.357-.357 1.648-4.452 4.455-9.1 4.77-7.896 6.264-11.508 4.246-10.26-.472.292-3.059 4.143-5.748 8.559-2.688 4.415-5.452 8.028-6.141 8.028-1.912 0-1.633-.647 3.748-8.692 2.75-4.112 4.964-8.225 4.921-9.142-.065-1.373-.179-1.402-.646-.166-.894 2.361-10.46 15-11.353 15-1.763 0-1.843-1.976-.195-4.847 2.433-4.239.895-5.045-2.326-1.218-3.765 4.475-5.683 2.435-2.113-2.247 1.802-2.361 2.277-3.723 1.554-4.446-.723-.723-.399-1.685 1.058-3.142 1.155-1.155 2.084-2.887 2.064-3.85-.047-2.283-3.941 2.372-7.064 8.445-1.218 2.368-2.594 4.305-3.057 4.305-1.405 0-.981-1.391 2.231-7.32 1.69-3.121 2.897-6.464 2.681-7.428-.287-1.278-.806-.806-1.919 1.748-.84 1.925-2.271 4.118-3.181 4.872-.91.755-1.655 1.993-1.655 2.75 0 .758-.375 1.378-.833 1.378-2.143 0-1.885-1.619.854-5.343 3.029-4.12 3.784-6.657 1.979-6.657-.55 0-1 .538-1 1.196m-202 21.875c0 .59.635 1.707 1.411 2.483.776.775 1.614 1.981 1.863 2.678.249.697.753.991 1.12.653.368-.338-.133-2.022-1.113-3.743-1.784-3.135-3.281-4.079-3.281-2.071m270.175 4.445c-.688 1.508-1.044 2.948-.793 3.199.678.679 2.804-3.656 2.395-4.884-.194-.582-.915.176-1.602 1.685m1.999 6.484c-3.343 5.827-3.724 7-2.272 7 .496 0 1.402-1.433 2.013-3.185.61-1.752 1.826-3.976 2.7-4.942.875-.967 1.393-2.346 1.153-3.065-.241-.719-1.858 1.167-3.594 4.192m-282.484 3.488c2.096 3.019 4.158 5.494 4.583 5.5.878.014-1.875-4.516-4.515-7.427-.967-1.066-1.758-2.303-1.758-2.75 0-.446-.477-.811-1.06-.811-.583 0 .655 2.47 2.75 5.488m4.81.512c.34.55.816 1 1.059 1s.441-.45.441-1-.477-1-1.059-1-.781.45-.441 1m4.5 5.313c0 .172 1.463 1.635 3.25 3.25l3.25 2.937-2.937-3.25c-2.738-3.029-3.563-3.71-3.563-2.937m-195.923 4.276c-6.672 5.614-2.996 15.411 5.783 15.411 8.656 0 12.346-8.948 6.217-15.077-3.727-3.726-7.833-3.841-12-.334M537 1105.5c0 .825.177 1.5.393 1.5.216 0 .652-.675.969-1.5.316-.825.139-1.5-.393-1.5-.533 0-.969.675-.969 1.5m25.048 7.398c-1.313 2.803-2.117 5.366-1.787 5.696.756.756 4.978-8.378 4.515-9.767-.188-.563-1.416 1.269-2.728 4.071M566.5 1115c-.375 1.183-.458 2.376-.183 2.651.275.275.808-.468 1.183-1.651s.458-2.376.183-2.651c-.275-.275-.808.468-1.183 1.651m4.558 1.348c-.549 1.443-1.908 4.509-3.021 6.812s-1.805 4.405-1.539 4.671c.266.267 1.865-2.56 3.552-6.281 1.687-3.721 2.829-7.005 2.537-7.297-.292-.291-.98.651-1.529 2.095m-346.047 3.929c-.011.749 2.101 3.2 10.39 12.055 2.444 2.612 3.099 3.048 1.754 1.168-3.051-4.265-12.131-14.151-12.144-13.223m-55.275 8.32c-.328.328.517 2.466 1.878 4.75 1.36 2.284 2.723 4.909 3.028 5.834.841 2.548 3.358 3.139 3.358.788 0-1.083-.421-1.969-.935-1.969-.515 0-1.505-1.575-2.201-3.5-.696-1.925-1.625-3.5-2.065-3.5-.439 0-.799-.675-.799-1.5 0-1.522-1.176-1.991-2.264-.903m387.826 4.663c-1.065 2.332-2.115 4.578-2.333 4.99-.218.412.204.748.938.746 1.141-.003 4.833-7.074 4.833-9.257 0-2.013-1.707-.265-3.438 3.521m86.938-2.449c-2.993.581-6.204 3.959-6.854 7.21-1.73 8.651 6.83 14.764 14.407 10.288 9.475-5.596 3.418-19.629-7.553-17.498m-323.059 1.721c1.068.807 2.418 1.454 3 1.436.583-.017.185-.692-.882-1.5-1.068-.807-2.418-1.454-3-1.436-.583.017-.185.692.882 1.5m-159.745 1.105c-.35.351.299 1.951 1.443 3.558 2.626 3.688 3.523 2.986 1.409-1.102-1.708-3.303-1.867-3.44-2.852-2.456M308 1147c0 .55.413 1 .918 1 .505 0 1.743.286 2.75.635 1.61.557 1.59.44-.168-.969-2.318-1.857-3.5-2.082-3.5-.666m-122.35 1.25c1.94 3.156 6.719 7.64 7.578 7.109.524-.324-.754-2.337-2.84-4.474-3.65-3.738-6.332-5.23-4.738-2.635m122.884 4.172c3.319 1.278 7.594 2.621 9.5 2.984l3.466.659-2.827-1.605c-1.555-.882-3.58-1.757-4.5-1.943-.92-.187-2.94-.829-4.488-1.428-1.548-.599-3.798-1.067-5-1.04-1.226.027.462 1.068 3.849 2.373M190 1160.8c0 1.052 2.172 3.2 3.235 3.2.46 0 .354-.9-.235-2-1.057-1.975-3-2.752-3-1.2m162 43.2c0 .55.45 1 1 1s1-.45 1-1-.45-1-1-1-1 .45-1 1m-72.559 7.514c1.068.817 2.53 1.486 3.25 1.486 2.23 0 1.452-.756-1.941-1.888-2.973-.992-3.085-.958-1.309.402m-5.941 3.261c.55.55 2.125 1.326 3.5 1.725 1.667.483 2.167.391 1.5-.275-.55-.55-2.125-1.326-3.5-1.725-1.667-.483-2.167-.391-1.5.275m67 .225c.34.55 3.291 1 6.559 1 3.294 0 5.941-.446 5.941-1 0-.565-2.853-1-6.559-1-4.118 0-6.329.372-5.941 1m1.947 5.087c-.245.396 1.916.903 4.804 1.127 5.16.401 6.533.236 5.623-.673-.804-.805-9.964-1.204-10.427-.454M263 1228.883c0 .486 1.012 1.103 2.25 1.372 1.238.268 3.038.819 4 1.223.962.405 1.75.328 1.75-.17s-1.494-1.447-3.321-2.107c-3.965-1.434-4.679-1.482-4.679-.318m69 5.89c0 1.439 11.023 3.604 12.225 2.402.688-.688-.557-1.231-3.854-1.68-2.679-.365-5.659-.881-6.621-1.146-.962-.266-1.75-.075-1.75.424m14 2.227c0 .55 1.238.993 2.75.985 2.143-.012 2.419-.23 1.25-.985-1.957-1.264-4-1.264-4 0" fill="#0d0c0c"/>

</svg>